<?xml version="1.0" standalone="no"?>
<!DOCTYPE svg PUBLIC "-//W3C//DTD SVG 1.1//EN" "http://www.w3.org/Graphics/SVG/1.1/DTD/svg11.dtd" >
<svg>
<metadata>
Created by FontForge 20110222 at Mon Jun  2 09:12:55 2014
 By Orthosie Webhosting
Copyright (c) 1988, 1990, 1993, 2003 Linotype Library GmbH, www.linotype.com. All rights reserved. Copyright (c) 1988, 1990, 1993 Adobe Systems Incorporated. All Rights Reserved.
</metadata>
<defs>
<font id="HelveticaNeueLTPro-HvEx" horiz-adv-x="814" >
  <font-face 
    font-family="Helvetica Neue LT Pro"
    font-weight="750"
    font-stretch="normal"
    units-per-em="1000"
    panose-1="2 11 9 7 4 5 2 3 2 4"
    ascent="714"
    descent="-286"
    x-height="542"
    cap-height="714"
    bbox="-200 -235 1297 1003"
    underline-thickness="50"
    underline-position="-50"
    stemh="140"
    stemv="212"
    unicode-range="U+000D-FB02"
  />
<missing-glyph horiz-adv-x="512" 
d="M222 117h56v67h-56v-67zM225 234h46c0 35 2 59 6 72s18 30 43 52c51 47 63 77 63 120c0 79 -53 131 -124 131c-72 0 -126 -42 -135 -137l50 -8c8 68 41 95 82 95s76 -37 76 -85c0 -25 -7 -42 -50 -83c-22 -22 -37 -42 -46 -59s-13 -44 -13 -81zM462 50h-412v617h412v-617
zM512 718h-512v-718h512v718z" />
    <glyph glyph-name="fi" unicode="fi" horiz-adv-x="796" 
d="M0 402v140h111v46c0 100 34 156 228 156c43 0 83 -3 124 -8v-120h-95c-39 0 -45 -9 -45 -41v-33h140v-140h-140v-402h-212v402h-111zM524 0v542h212v-542h-212zM524 604v128h212v-128h-212z" />
    <glyph glyph-name="fl" unicode="fl" horiz-adv-x="796" 
d="M0 402v140h111v46c0 100 34 156 228 156c43 0 83 -3 124 -8v-120h-95c-39 0 -45 -9 -45 -41v-33h140v-140h-140v-402h-212v402h-111zM524 0v732h212v-732h-212z" />
    <glyph glyph-name="napostrophe" unicode="&#x22;n" horiz-adv-x="829" 
d="M107 0v542h206v-78h2c43 53 120 92 228 92c133 0 230 -64 230 -199v-357h-212v293c0 69 -38 103 -110 103c-75 0 -132 -42 -132 -130v-266h-212zM0 714v108h208v-76c0 -20 -4 -38 -13 -54c-8 -17 -23 -30 -44 -40s-58 -15 -111 -15v45c41 4 53 15 56 32h-96z" />
    <glyph glyph-name="IJ" unicode="IJ" horiz-adv-x="1130" 
d="M75 0v714h238v-714h-238zM398 256v30h238c0 -106 13 -154 97 -154c85 0 99 50 99 130v452h238v-466c0 -140 -45 -270 -321 -270c-209 0 -351 50 -351 278z" />
    <glyph glyph-name="ij" unicode="ij" horiz-adv-x="666" 
d="M60 0v542h212v-542h-212zM60 604v128h212v-128h-212zM287 -193v145h25c74 0 82 10 82 70v520h212v-535c0 -156 -41 -203 -213 -203c-40 0 -78 2 -106 3zM394 604v128h212v-128h-212z" />
    <glyph glyph-name=".notdef" horiz-adv-x="512" 
d="M222 117h56v67h-56v-67zM225 234h46c0 35 2 59 6 72s18 30 43 52c51 47 63 77 63 120c0 79 -53 131 -124 131c-72 0 -126 -42 -135 -137l50 -8c8 68 41 95 82 95s76 -37 76 -85c0 -25 -7 -42 -50 -83c-22 -22 -37 -42 -46 -59s-13 -44 -13 -81zM462 50h-412v617h412v-617
zM512 718h-512v-718h512v718z" />
    <glyph glyph-name="space" unicode=" " horiz-adv-x="388" 
 />
    <glyph glyph-name="exclam" unicode="!" horiz-adv-x="388" 
d="M108 253l-29 461h230l-29 -461h-172zM82 0v198h224v-198h-224z" />
    <glyph glyph-name="quotedbl" unicode="&#x22;" horiz-adv-x="667" 
d="M377 320v394h148v-394h-148zM142 320v394h148v-394h-148z" />
    <glyph glyph-name="numbersign" unicode="#" horiz-adv-x="888" 
d="M225 0l24 173h-82v116h98l17 116h-82v116h98l24 173h120l-24 -173h101l24 173h120l-24 -173h82v-116h-98l-17 -116h82v-116h-98l-24 -173h-120l24 173h-101l-24 -173h-120zM486 289l17 116h-101l-17 -116h101z" />
    <glyph glyph-name="dollar" unicode="$" horiz-adv-x="888" 
d="M404 447v121c-32 0 -112 -7 -112 -63c0 -25 17 -41 45 -46zM472 264v-132c56 0 112 16 112 66c0 44 -30 55 -110 66h-2zM416 -105v89c-215 3 -371 51 -382 230h270c5 -45 28 -74 112 -82v142l-120 17c-189 27 -250 87 -250 198c0 189 229 219 358 219v89h56v-89
c227 -12 347 -74 362 -221h-264c-4 41 -29 70 -98 81v-129l177 -27c139 -21 217 -73 217 -195c0 -220 -273 -233 -382 -233v-89h-56z" />
    <glyph glyph-name="percent" unicode="%" horiz-adv-x="1074" 
d="M174 516c0 -71 33 -96 78 -96c47 0 78 24 78 96s-31 96 -78 96c-45 0 -78 -25 -78 -96zM254 -16l455 724h112l-455 -724h-112zM744 176c0 -71 33 -96 78 -96c47 0 78 24 78 96s-31 96 -78 96c-45 0 -78 -25 -78 -96zM34 516c0 136 88 192 218 192s218 -56 218 -192
s-88 -192 -218 -192s-218 56 -218 192zM604 176c0 136 88 192 218 192s218 -56 218 -192s-88 -192 -218 -192s-218 56 -218 192z" />
    <glyph glyph-name="ampersand" unicode="&#x26;" horiz-adv-x="981" 
d="M539 157l-189 172c-49 -16 -77 -64 -77 -99c0 -58 48 -112 141 -112c45 0 96 16 125 39zM994 0h-286l-64 59c-66 -45 -155 -81 -290 -81c-219 0 -311 109 -311 229c0 126 88 185 204 212c-29 27 -71 66 -71 127c0 120 120 175 268 175c171 0 270 -59 270 -166
c0 -89 -70 -135 -158 -159l138 -126c39 28 82 81 115 128l113 -79c-37 -61 -68 -99 -121 -147zM388 554c0 -24 32 -55 60 -78c53 20 80 45 80 76s-25 53 -66 53c-43 0 -74 -16 -74 -51z" />
    <glyph glyph-name="quoteright" unicode="&#x2019;" horiz-adv-x="388" 
d="M82 516v198h224v-127c0 -156 -71 -252 -224 -267v82c74 14 94 69 99 114h-99z" />
    <glyph glyph-name="parenleft" unicode="(" horiz-adv-x="481" 
d="M417 -190h-146c-133 128 -191 302 -191 452s58 324 191 452h146c-89 -141 -125 -301 -125 -452s36 -311 125 -452z" />
    <glyph glyph-name="parenright" unicode=")" horiz-adv-x="481" 
d="M210 -190h-146c89 141 125 301 125 452s-36 311 -125 452h146c133 -128 191 -302 191 -452s-58 -324 -191 -452z" />
    <glyph glyph-name="asterisk" unicode="*" horiz-adv-x="464" 
d="M52 364l91 108l-134 43l39 112l128 -53l-4 140h120l-4 -140l128 53l39 -112l-134 -43l91 -108l-96 -72l-84 114l-84 -114z" />
    <glyph glyph-name="plus" unicode="+" horiz-adv-x="600" 
d="M230 323v183h140v-183h183v-140h-183v-183h-140v183h-183v140h183z" />
    <glyph glyph-name="comma" unicode="," horiz-adv-x="388" 
d="M82 0v198h224v-127c0 -156 -71 -252 -224 -267v82c74 14 94 69 99 114h-99z" />
    <glyph glyph-name="hyphen" unicode="-" horiz-adv-x="481" 
d="M61 213v154h359v-154h-359z" />
    <glyph glyph-name="period" unicode="." horiz-adv-x="388" 
d="M82 0v198h224v-198h-224z" />
    <glyph glyph-name="slash" unicode="/" horiz-adv-x="444" 
d="M-3 -22l288 758h162l-288 -758h-162z" />
    <glyph glyph-name="zero" unicode="0" horiz-adv-x="888" 
d="M444 708c303 0 406 -176 406 -365c0 -185 -103 -359 -406 -359s-406 174 -406 359c0 192 101 365 406 365zM444 554c-79 0 -176 -40 -176 -211c0 -164 97 -205 176 -205s176 34 176 205s-97 211 -176 211z" />
    <glyph glyph-name="one" unicode="1" horiz-adv-x="611" 
d="M263 0v416h-212v148h34c99 0 183 15 223 128h173v-692h-218z" />
    <glyph glyph-name="two" unicode="2" horiz-adv-x="888" 
d="M828 154v-154h-797c8 229 146 313 321 361l167 47c40 11 72 35 72 70c0 44 -42 75 -133 76c-86 0 -149 -33 -157 -113h-246c13 204 181 267 404 267c231 0 378 -77 378 -233c0 -263 -455 -192 -552 -321h543z" />
    <glyph glyph-name="three" unicode="3" horiz-adv-x="888" 
d="M320 296v140h146c71 0 110 13 110 64c0 54 -58 68 -131 68c-71 0 -122 -7 -140 -65h-246c19 171 208 205 399 205c256 0 364 -70 364 -194c0 -80 -63 -132 -119 -135v-2c64 -11 144 -60 144 -164c0 -152 -145 -229 -398 -229c-303 0 -400 90 -408 250h238
c5 -59 53 -96 162 -96c83 0 154 22 154 82c0 52 -41 76 -145 76h-130z" />
    <glyph glyph-name="four" unicode="4" horiz-adv-x="888" 
d="M514 0v116h-474v156l392 420h288v-428h128v-148h-128v-116h-206zM514 264v274l-256 -274h256z" />
    <glyph glyph-name="five" unicode="5" horiz-adv-x="888" 
d="M72 302l68 390h656v-148h-503l-19 -105c51 20 117 33 214 33c208 0 351 -77 351 -234c0 -155 -131 -254 -399 -254c-282 0 -383 85 -402 235h246c13 -61 76 -81 153 -81c117 0 164 42 164 98c0 53 -48 102 -162 102c-57 0 -105 -11 -140 -36h-227z" />
    <glyph glyph-name="six" unicode="6" horiz-adv-x="888" 
d="M492 452c163 0 348 -39 348 -231c0 -143 -122 -237 -374 -237c-234 0 -418 69 -418 365c0 256 167 359 407 359c170 0 351 -42 375 -211h-234c-13 44 -66 63 -135 63c-144 0 -175 -76 -183 -161c60 39 126 53 214 53zM450 312c-131 0 -150 -48 -150 -94
c0 -43 43 -86 151 -86c119 0 151 43 151 86c0 51 -33 94 -152 94z" />
    <glyph glyph-name="seven" unicode="7" horiz-adv-x="833" 
d="M23 544v148h787v-190c-190 -163 -336 -303 -378 -502h-300c19 163 135 288 289 421l143 123h-541z" />
    <glyph glyph-name="eight" unicode="8" horiz-adv-x="888" 
d="M444 427c85 0 142 11 142 64c0 59 -57 69 -142 69s-142 -10 -142 -69c0 -53 57 -64 142 -64zM444 299c-133 0 -158 -42 -158 -82c0 -44 25 -85 158 -85s158 41 158 85c0 40 -25 82 -158 82zM444 708c253 0 380 -55 380 -194c0 -99 -80 -125 -120 -136v-2
c91 -17 144 -78 144 -162c0 -171 -168 -230 -404 -230s-404 59 -404 230c0 84 53 145 144 162v2c-40 11 -120 37 -120 136c0 139 125 194 380 194z" />
    <glyph glyph-name="nine" unicode="9" horiz-adv-x="888" 
d="M58 195h234c13 -44 66 -63 135 -63c144 0 175 76 183 161c-60 -39 -126 -53 -214 -53c-163 0 -348 39 -348 231c0 143 122 237 374 237c234 0 418 -69 418 -365c0 -256 -167 -359 -407 -359c-170 0 -351 42 -375 211zM438 380c131 0 150 48 150 94c0 43 -43 86 -151 86
c-119 0 -151 -43 -151 -86c0 -51 33 -94 152 -94z" />
    <glyph glyph-name="colon" unicode=":" horiz-adv-x="388" 
d="M82 344v198h224v-198h-224zM82 0v198h224v-198h-224z" />
    <glyph glyph-name="semicolon" unicode=";" horiz-adv-x="388" 
d="M82 0v198h224v-127c0 -156 -71 -252 -224 -267v82c74 14 94 69 99 114h-99zM82 344v198h224v-198h-224z" />
    <glyph glyph-name="semicolon" unicode="&#x37e;" horiz-adv-x="388" 
d="M82 0v198h224v-127c0 -156 -71 -252 -224 -267v82c74 14 94 69 99 114h-99zM82 344v198h224v-198h-224z" />
    <glyph glyph-name="less" unicode="&#x3c;" horiz-adv-x="600" 
d="M47 192v122l506 210v-135l-340 -136l340 -136v-135z" />
    <glyph glyph-name="equal" unicode="=" horiz-adv-x="600" 
d="M47 295v140h506v-140h-506zM47 71v140h506v-140h-506z" />
    <glyph glyph-name="greater" unicode="&#x3e;" horiz-adv-x="600" 
d="M47 -18v135l340 136l-340 136v135l506 -210v-122z" />
    <glyph glyph-name="question" unicode="?" horiz-adv-x="796" 
d="M495 253h-218c0 74 20 104 73 133l109 56c47 24 58 48 58 75c0 45 -50 75 -114 75c-108 0 -139 -48 -144 -121h-235c19 180 124 261 371 261c219 0 360 -70 360 -222c0 -179 -244 -159 -260 -257zM274 0v198h224v-198h-224z" />
    <glyph glyph-name="at" unicode="@" horiz-adv-x="800" 
d="M309 346c0 -47 28 -83 76 -83c64 0 105 49 105 106c0 49 -32 83 -81 83c-57 0 -100 -55 -100 -106zM531 538h95l-40 -216c-3 -15 -8 -38 -8 -47c0 -15 6 -22 17 -22c34 0 88 46 88 160c0 144 -113 227 -268 227c-173 0 -284 -119 -284 -284c0 -176 124 -282 301 -282
c79 0 145 22 196 58h113c-73 -100 -177 -154 -325 -154c-214 0 -395 157 -395 378c0 216 177 380 397 380c181 0 361 -119 361 -308c0 -172 -152 -275 -261 -275c-31 0 -55 16 -59 45h-4c-24 -28 -61 -45 -108 -45c-85 0 -160 71 -160 176c0 120 83 233 208 233
c51 0 95 -18 128 -62z" />
    <glyph glyph-name="A" unicode="A" horiz-adv-x="852" 
d="M-28 0l310 714h291l307 -714h-255l-43 116h-312l-43 -116h-255zM526 264l-99 270h-2l-99 -270h200z" />
    <glyph glyph-name="B" unicode="B" horiz-adv-x="944" 
d="M310 560v-121h237c51 0 73 28 73 61c0 32 -22 60 -73 60h-237zM310 154h256c51 0 84 27 84 74s-33 71 -84 71h-256v-145zM72 0v714h591c173 0 203 -108 203 -176c0 -67 -37 -125 -88 -144v-2c76 -17 124 -78 124 -179c0 -84 -39 -213 -259 -213h-571z" />
    <glyph glyph-name="C" unicode="C" horiz-adv-x="963" 
d="M672 275h264c-29 -155 -113 -297 -452 -297c-303 0 -449 132 -449 379c0 239 139 379 449 379c219 0 397 -49 450 -297h-265c-14 52 -49 137 -184 137c-149 0 -198 -101 -198 -219s44 -219 198 -219c108 0 171 53 187 137z" />
    <glyph glyph-name="D" unicode="D" horiz-adv-x="963" 
d="M72 0v714h516c223 0 340 -117 340 -357c0 -280 -166 -357 -371 -357h-485zM310 554v-394h199c136 0 173 99 173 198c0 133 -64 196 -192 196h-180z" />
    <glyph glyph-name="E" unicode="E" horiz-adv-x="815" 
d="M72 0v714h715v-154h-477v-129h447v-148h-447v-129h477v-154h-715z" />
    <glyph glyph-name="F" unicode="F" horiz-adv-x="760" 
d="M72 0v714h681v-160h-443v-123h412v-154h-412v-277h-238z" />
    <glyph glyph-name="G" unicode="G" horiz-adv-x="1000" 
d="M548 257v148h384v-405h-111l-29 74c-32 -34 -123 -96 -308 -96c-312 0 -449 132 -449 379c0 211 139 379 448 379c196 0 420 -51 449 -257h-269c-16 55 -58 103 -170 103c-147 0 -212 -100 -212 -226c0 -124 65 -224 212 -224c117 0 178 44 201 125h-146z" />
    <glyph glyph-name="H" unicode="H" horiz-adv-x="981" 
d="M671 0v299h-361v-299h-238v714h238v-255h361v255h238v-714h-238z" />
    <glyph glyph-name="I" unicode="I" horiz-adv-x="388" 
d="M75 0v714h238v-714h-238z" />
    <glyph glyph-name="J" unicode="J" horiz-adv-x="741" 
d="M9 256v30h238c0 -106 13 -154 97 -154c85 0 99 50 99 130v452h238v-466c0 -140 -45 -270 -321 -270c-209 0 -351 50 -351 278z" />
    <glyph glyph-name="K" unicode="K" horiz-adv-x="926" 
d="M72 0v714h238v-280l298 280h317l-323 -281l348 -433h-318l-221 285l-101 -84v-201h-238z" />
    <glyph glyph-name="L" unicode="L" horiz-adv-x="760" 
d="M72 0v714h238v-548h435v-166h-673z" />
    <glyph glyph-name="M" unicode="M" horiz-adv-x="1168" 
d="M72 0v714h348l163 -471h2l163 471h348v-714h-224v534h-2l-188 -534h-196l-188 534h-2v-534h-224z" />
    <glyph glyph-name="N" unicode="N" horiz-adv-x="981" 
d="M72 0v714h274l331 -447h2v447h230v-714h-263l-342 451h-2v-451h-230z" />
    <glyph glyph-name="O" unicode="O" horiz-adv-x="1000" 
d="M35 357c0 296 213 379 465 379s465 -83 465 -379s-213 -379 -465 -379s-465 83 -465 379zM287 357c0 -150 86 -219 213 -219c128 0 213 69 213 219c0 149 -85 219 -213 219c-127 0 -213 -71 -213 -219z" />
    <glyph glyph-name="P" unicode="P" horiz-adv-x="889" 
d="M310 566v-180h212c67 0 95 26 95 90s-28 90 -95 90h-212zM72 0v714h528c194 0 263 -102 263 -238c0 -118 -60 -238 -252 -238h-301v-238h-238z" />
    <glyph glyph-name="Q" unicode="Q" horiz-adv-x="1000" 
d="M853 -128l-147 129c-33 -8 -66 -13 -101 -17s-70 -6 -105 -6c-252 0 -465 83 -465 379s213 379 465 379s465 -83 465 -379c0 -132 -41 -219 -109 -278l102 -91zM547 141l-49 43l104 117l81 -71c20 32 30 74 30 127c0 149 -85 219 -213 219c-127 0 -213 -71 -213 -219
c0 -150 86 -219 213 -219c16 0 30 0 47 3z" />
    <glyph glyph-name="R" unicode="R" horiz-adv-x="926" 
d="M310 554v-156h229c59 0 89 30 89 79c0 47 -30 77 -89 77h-229zM72 0v714h572c176 0 239 -80 239 -199c0 -96 -50 -147 -114 -163v-2c45 -15 79 -51 86 -128c11 -140 15 -187 45 -222h-261c-13 31 -14 73 -14 106c0 112 -37 132 -97 132h-218v-238h-238z" />
    <glyph glyph-name="S" unicode="S" horiz-adv-x="889" 
d="M836 505h-270c-8 49 -45 83 -155 83c-80 0 -124 -23 -124 -70c0 -23 18 -38 53 -44c59 -11 243 -38 313 -49c133 -23 213 -78 213 -203c0 -242 -314 -244 -412 -244c-242 0 -418 43 -431 242h282c5 -54 37 -88 160 -88c60 0 125 14 125 75c0 37 -30 51 -113 64l-238 36
c-147 21 -204 95 -204 202c0 93 58 227 371 227c260 0 414 -63 430 -231z" />
    <glyph glyph-name="T" unicode="T" horiz-adv-x="760" 
d="M-1 554v160h762v-160h-262v-554h-238v554h-262z" />
    <glyph glyph-name="U" unicode="U" horiz-adv-x="926" 
d="M62 252v462h238v-423c0 -116 54 -153 163 -153s163 37 163 153v423h238v-462c0 -197 -148 -274 -401 -274s-401 77 -401 274z" />
    <glyph glyph-name="V" unicode="V" 
d="M281 0l-318 714h261l182 -509h2l182 509h261l-318 -714h-252z" />
    <glyph glyph-name="W" unicode="W" horiz-adv-x="1148" 
d="M214 0l-214 714h230l112 -482h2l129 482h202l129 -482h2l112 482h230l-214 -714h-235l-124 465h-2l-124 -465h-235z" />
    <glyph glyph-name="X" unicode="X" horiz-adv-x="852" 
d="M-21 0l310 371l-277 343h283l131 -192l131 192h283l-277 -343l310 -371h-295l-152 216l-152 -216h-295z" />
    <glyph glyph-name="Y" unicode="Y" 
d="M288 0v225l-317 489h276l160 -303l160 303h276l-317 -489v-225h-238z" />
    <glyph glyph-name="Z" unicode="Z" 
d="M18 0v137l450 417h-419v160h738v-140l-447 -414h440v-160h-762z" />
    <glyph glyph-name="bracketleft" unicode="[" horiz-adv-x="481" 
d="M72 -190v904h384v-154h-172v-596h172v-154h-384z" />
    <glyph glyph-name="backslash" unicode="\" horiz-adv-x="444" 
d="M288 -22l-288 758h156l288 -758h-156z" />
    <glyph glyph-name="bracketright" unicode="]" horiz-adv-x="481" 
d="M25 -190v154h172v596h-172v154h384v-904h-384z" />
    <glyph glyph-name="asciicircum" unicode="^" horiz-adv-x="600" 
d="M47 327l175 365h156l175 -365h-143l-110 237l-110 -237h-143z" />
    <glyph glyph-name="underscore" unicode="_" horiz-adv-x="500" 
d="M0 -125v50h500v-50h-500z" />
    <glyph glyph-name="quoteleft" unicode="&#x2018;" horiz-adv-x="388" 
d="M82 320v127c0 156 71 252 224 267v-82c-72 -13 -96 -69 -99 -114h99v-198h-224z" />
    <glyph glyph-name="a" unicode="a" 
d="M276 372h-212c19 161 174 184 339 184c197 0 345 -32 345 -184v-274c0 -46 6 -66 22 -98h-212c-7 16 -10 35 -11 50c-61 -59 -147 -72 -255 -72c-175 0 -265 56 -265 169c0 123 82 166 234 177l211 14c55 4 64 16 64 44c0 39 -41 58 -134 58c-79 0 -115 -21 -126 -68z
M542 220v33c-17 -5 -44 -10 -81 -15l-143 -17c-43 -5 -61 -22 -61 -55c0 -43 38 -66 95 -66c123 0 190 45 190 120z" />
    <glyph glyph-name="b" unicode="b" 
d="M56 0v730h212v-257h2c36 52 107 83 202 83c200 0 315 -128 315 -284c0 -188 -125 -294 -317 -294c-87 0 -161 30 -206 86h-2v-64h-206zM268 270c0 -84 51 -138 151 -138c97 0 150 47 150 138s-53 138 -150 138c-100 0 -151 -54 -151 -138z" />
    <glyph glyph-name="c" unicode="c" 
d="M563 221h224c-32 -156 -137 -243 -375 -243c-240 0 -380 93 -380 293c0 196 147 293 380 293c202 0 346 -61 365 -233h-218c-11 60 -53 93 -144 93c-100 0 -159 -54 -159 -153s57 -153 160 -153c80 0 132 34 147 103z" />
    <glyph glyph-name="d" unicode="d" 
d="M552 0v64h-2c-45 -56 -119 -86 -206 -86c-192 0 -317 106 -317 294c0 156 115 284 315 284c95 0 166 -31 202 -83h2v257h212v-730h-206zM546 270c0 84 -51 138 -151 138c-97 0 -150 -47 -150 -138s53 -138 150 -138c100 0 151 54 151 138z" />
    <glyph glyph-name="e" unicode="e" 
d="M250 331h314c-14 60 -56 111 -157 111c-100 0 -146 -51 -157 -111zM548 161h224c-26 -90 -129 -183 -360 -183c-244 0 -380 93 -380 294c0 192 150 292 374 292c232 0 376 -101 376 -327v-16h-532c11 -70 61 -121 170 -121c68 0 103 29 128 61z" />
    <glyph glyph-name="f" unicode="f" horiz-adv-x="463" 
d="M0 402v140h111v46c0 100 34 156 228 156c43 0 83 -3 124 -8v-120h-95c-39 0 -45 -9 -45 -41v-33h140v-140h-140v-402h-212v402h-111z" />
    <glyph glyph-name="g" unicode="g" horiz-adv-x="833" 
d="M571 473v69h206v-493c0 -181 -101 -257 -361 -257c-213 0 -351 37 -372 186h234c11 -49 66 -64 129 -64c119 0 158 42 158 141v38c-48 -48 -134 -69 -217 -69c-229 0 -321 117 -321 266c0 143 102 266 321 266c95 0 177 -23 221 -83h2zM251 287c0 -72 49 -129 156 -129
c120 0 158 58 158 127c0 76 -49 131 -158 131c-107 0 -156 -57 -156 -129z" />
    <glyph glyph-name="h" unicode="h" horiz-adv-x="778" 
d="M56 0v732h212v-268h2c37 53 114 92 222 92c133 0 230 -64 230 -199v-357h-212v293c0 69 -38 103 -110 103c-75 0 -132 -42 -132 -130v-266h-212z" />
    <glyph glyph-name="i" unicode="i" horiz-adv-x="332" 
d="M60 0v542h212v-542h-212zM60 604v128h212v-128h-212z" />
    <glyph glyph-name="j" unicode="j" horiz-adv-x="352" 
d="M-27 -193v145h25c74 0 82 10 82 70v520h212v-535c0 -156 -41 -203 -213 -203c-40 0 -78 2 -106 3zM80 604v128h212v-128h-212z" />
    <glyph glyph-name="k" unicode="k" horiz-adv-x="778" 
d="M56 0v732h212v-379l212 189h287l-250 -201l274 -341h-288l-154 205l-81 -65v-140h-212z" />
    <glyph glyph-name="l" unicode="l" horiz-adv-x="332" 
d="M60 0v732h212v-732h-212z" />
    <glyph glyph-name="m" unicode="m" horiz-adv-x="1168" 
d="M56 0v542h206v-79h2c50 50 116 93 218 93c76 0 144 -20 192 -93c56 56 120 93 228 93c113 0 210 -49 210 -184v-372h-212v316c0 52 -34 80 -91 80c-79 0 -119 -37 -119 -93v-303h-212v316c0 52 -34 80 -91 80c-79 0 -119 -37 -119 -93v-303h-212z" />
    <glyph glyph-name="n" unicode="n" horiz-adv-x="778" 
d="M56 0v542h206v-78h2c43 53 120 92 228 92c133 0 230 -64 230 -199v-357h-212v293c0 69 -38 103 -110 103c-75 0 -132 -42 -132 -130v-266h-212z" />
    <glyph glyph-name="o" unicode="o" 
d="M407 424c-96 0 -156 -50 -156 -153s60 -153 156 -153s156 50 156 153s-60 153 -156 153zM27 271c0 193 133 293 380 293s380 -100 380 -293s-133 -293 -380 -293s-380 100 -380 293z" />
    <glyph glyph-name="p" unicode="p" 
d="M56 -196v738h206v-72h2c45 56 119 86 206 86c192 0 317 -106 317 -294c0 -156 -115 -284 -315 -284c-95 0 -166 31 -202 71h-2v-245h-212zM268 270c0 -84 51 -138 151 -138c97 0 150 47 150 138s-53 138 -150 138c-100 0 -151 -54 -151 -138z" />
    <glyph glyph-name="q" unicode="q" 
d="M546 -196v245h-2c-36 -40 -108 -71 -208 -71c-200 0 -309 124 -309 284c0 181 131 294 323 294c80 0 155 -30 200 -86h2v72h206v-738h-212zM546 270c0 84 -51 138 -151 138c-97 0 -150 -47 -150 -138s53 -138 150 -138c100 0 151 54 151 138z" />
    <glyph glyph-name="r" unicode="r" horiz-adv-x="574" 
d="M60 0v542h209v-107h2c43 72 125 121 221 121c23 0 51 -2 72 -6v-198c-27 11 -77 18 -117 18c-121 0 -175 -61 -175 -160v-210h-212z" />
    <glyph glyph-name="s" unicode="s" horiz-adv-x="759" 
d="M27 169h246c3 -20 11 -35 30 -46s47 -17 94 -17s97 9 97 48c0 29 -21 36 -73 43l-189 23c-125 15 -187 59 -187 151c0 147 126 193 329 193c145 0 325 -26 338 -180h-238c-3 23 -17 38 -38 46c-21 9 -49 12 -76 12c-61 0 -97 -14 -97 -51c0 -17 13 -31 68 -38l183 -20
c147 -16 218 -60 218 -167c0 -129 -120 -188 -347 -188c-150 0 -353 27 -358 191z" />
    <glyph glyph-name="t" unicode="t" horiz-adv-x="500" 
d="M0 402v140h111v172h212v-172h140v-140h-140v-218c0 -48 13 -56 69 -56c27 0 47 1 75 2v-132c-43 -7 -98 -10 -161 -10c-139 0 -195 34 -195 151v263h-111z" />
    <glyph glyph-name="u" unicode="u" horiz-adv-x="778" 
d="M56 197v345h212v-280c0 -92 38 -124 110 -124c75 0 132 42 132 130v274h212v-542h-206v70h-2c-43 -53 -120 -92 -228 -92c-131 0 -230 56 -230 219z" />
    <glyph glyph-name="v" unicode="v" horiz-adv-x="722" 
d="M240 0l-250 542h241l130 -357l130 357h241l-250 -542h-242z" />
    <glyph glyph-name="w" unicode="w" horiz-adv-x="1130" 
d="M198 0l-196 542h230l112 -356h2l123 356h192l123 -356h2l112 356h230l-196 -542h-252l-114 319h-2l-114 -319h-252z" />
    <glyph glyph-name="x" unicode="x" horiz-adv-x="778" 
d="M-6 0l250 281l-229 261h263l111 -157l111 157h263l-228 -261l249 -281h-273l-122 167l-122 -167h-273z" />
    <glyph glyph-name="y" unicode="y" horiz-adv-x="685" 
d="M64 -190v134h51c74 0 86 20 97 39l24 48l-255 511h230l137 -322l132 322h224l-288 -610c-39 -82 -72 -128 -203 -128c-56 0 -108 3 -149 6z" />
    <glyph glyph-name="z" unicode="z" horiz-adv-x="667" 
d="M22 0v128l326 264v2h-309v148h596v-128l-316 -266h326v-148h-623z" />
    <glyph glyph-name="braceleft" unicode="{" horiz-adv-x="481" 
d="M28 195v134c21 0 94 7 94 59v188c0 92 53 138 150 138h175v-128h-55c-53 0 -58 -35 -58 -62v-169c0 -75 -73 -89 -108 -92v-2c35 -3 108 -10 108 -101v-160c0 -27 5 -62 58 -62h55v-128h-175c-97 0 -150 46 -150 138v179c0 61 -73 68 -94 68z" />
    <glyph glyph-name="bar" unicode="|" horiz-adv-x="222" 
d="M37 -22v758h148v-758h-148z" />
    <glyph glyph-name="braceright" unicode="}" horiz-adv-x="481" 
d="M453 329v-134c-21 0 -94 -7 -94 -59v-188c0 -92 -53 -138 -150 -138h-175v128h55c53 0 58 35 58 62v169c0 75 73 89 108 92v2c-35 3 -108 10 -108 101v160c0 27 -5 62 -58 62h-55v128h175c97 0 150 -46 150 -138v-179c0 -61 73 -68 94 -68z" />
    <glyph glyph-name="asciitilde" unicode="~" horiz-adv-x="600" 
d="M105 145l-36 126c21 43 59 86 125 86c35 0 72 -13 111 -32c36 -17 75 -36 102 -36c41 0 64 37 88 72l36 -126c-29 -43 -63 -86 -125 -86c-37 0 -69 14 -102 33c-32 19 -68 35 -115 35c-44 0 -68 -37 -84 -72z" />
    <glyph glyph-name="exclamdown" unicode="&#xa1;" horiz-adv-x="388" 
d="M79 -172l29 461h172l29 -461h-230zM82 344v198h224v-198h-224z" />
    <glyph glyph-name="cent" unicode="&#xa2;" horiz-adv-x="888" 
d="M430 120v303c-81 -11 -128 -64 -128 -152s45 -140 128 -151zM430 -128v108c-228 7 -352 98 -352 291c0 192 125 285 352 292v91h56v-91c188 -5 318 -68 337 -232h-218c-9 53 -44 85 -119 92v-303c68 7 111 38 123 101h224c-24 -149 -120 -236 -347 -241v-108h-56z" />
    <glyph glyph-name="sterling" unicode="&#xa3;" horiz-adv-x="888" 
d="M74 301v104h57c-15 32 -24 64 -24 95c0 143 153 208 353 208c232 0 354 -74 354 -259h-246c0 31 -6 56 -22 75c-17 20 -46 30 -87 30c-61 0 -106 -31 -106 -74c0 -32 8 -48 16 -75h158v-104h-151c-4 -45 -22 -94 -85 -135l2 -2c31 16 71 25 112 25c64 0 134 -25 203 -25
c68 0 124 27 164 60l64 -165c-39 -29 -109 -75 -232 -75c-96 0 -226 45 -304 45c-56 0 -116 -25 -153 -45l-87 149c51 29 92 65 92 125v23c0 6 -1 13 -2 20h-76z" />
    <glyph glyph-name="fraction" unicode="&#x2044;" horiz-adv-x="167" 
d="M-200 -16l455 724h112l-455 -724h-112z" />
    <glyph glyph-name="yen" unicode="&#xa5;" horiz-adv-x="888" 
d="M338 0v97h-216v104h216v44l-23 33h-193v104h120l-221 310h263l160 -292l160 292h263l-220 -310h119v-104h-193l-23 -33v-44h216v-104h-216v-97h-212z" />
    <glyph glyph-name="florin" unicode="&#x192;" horiz-adv-x="888" 
d="M232 295l22 104h114l33 165c14 68 56 144 224 144c45 0 91 -4 134 -7l-24 -130c-19 1 -36 3 -55 3c-48 0 -63 -23 -70 -56l-24 -119h112l-22 -104h-112l-72 -347c-24 -113 -110 -144 -227 -144c-60 0 -97 4 -136 7l27 130c16 -1 33 -3 49 -3c48 0 70 5 91 112l50 245
h-114z" />
    <glyph glyph-name="section" unicode="&#xa7;" horiz-adv-x="888" 
d="M525 31l-277 65c-118 27 -216 87 -216 203c0 88 44 131 103 158c-27 25 -36 59 -36 91c0 74 60 188 321 188c183 0 344 -48 363 -213h-227c-3 56 -41 73 -133 73c-79 0 -106 -23 -106 -50c0 -20 17 -33 84 -46l226 -47c165 -35 229 -98 229 -202c0 -77 -45 -125 -95 -151
c31 -27 46 -60 46 -93c0 -120 -100 -203 -349 -203c-205 0 -361 56 -380 220h227c11 -72 75 -86 164 -86c61 0 108 18 108 50c0 24 -15 34 -52 43zM580 291l-318 81c-23 -19 -32 -40 -32 -55c0 -24 14 -46 65 -59l339 -86c17 19 24 39 24 56c0 32 -23 48 -78 63z" />
    <glyph glyph-name="currency" unicode="&#xa4;" horiz-adv-x="888" 
d="M444 486c-76 0 -128 -55 -128 -140s52 -140 128 -140s128 55 128 140c0 79 -52 140 -128 140zM161 134l61 61c-28 40 -46 92 -46 151c0 57 18 111 47 151l-62 60l73 73l60 -62c39 28 91 46 150 46s111 -18 150 -46l60 62l73 -73l-62 -60c29 -40 47 -94 47 -151
c0 -59 -17 -111 -48 -151l63 -61l-73 -72l-60 63c-39 -29 -93 -47 -150 -47s-111 18 -150 47l-60 -63z" />
    <glyph glyph-name="quotesingle" unicode="'" horiz-adv-x="388" 
d="M120 320v394h148v-394h-148z" />
    <glyph glyph-name="quotedblleft" unicode="&#x201c;" horiz-adv-x="667" 
d="M66 320v127c0 156 71 252 224 267v-82c-72 -13 -96 -69 -99 -114h99v-198h-224zM377 320v127c0 156 71 252 224 267v-82c-72 -13 -96 -69 -99 -114h99v-198h-224z" />
    <glyph glyph-name="guillemotleft" unicode="&#xab;" horiz-adv-x="648" 
d="M344 202v176l206 152v-148l-122 -92l122 -92v-148zM84 202v176l206 152v-148l-122 -92l122 -92v-148z" />
    <glyph glyph-name="guilsinglleft" unicode="&#x2039;" horiz-adv-x="388" 
d="M84 202v176l206 152v-148l-122 -92l122 -92v-148z" />
    <glyph glyph-name="guilsinglright" unicode="&#x203a;" horiz-adv-x="388" 
d="M98 50v148l122 92l-122 92v148l206 -152v-176z" />
    <glyph glyph-name="endash" unicode="&#x2013;" horiz-adv-x="500" 
d="M0 220v140h500v-140h-500z" />
    <glyph glyph-name="dagger" unicode="&#x2020;" horiz-adv-x="888" 
d="M335 -196v548h-246v154h246v208h218v-208h246v-154h-246v-548h-218z" />
    <glyph glyph-name="daggerdbl" unicode="&#x2021;" horiz-adv-x="888" 
d="M89 -3v140h249v244h-249v140h249v193h212v-193h249v-140h-249v-244h249v-140h-249v-193h-212v193h-249z" />
    <glyph glyph-name="periodcentered" unicode="&#xb7;" horiz-adv-x="388" 
d="M75 260c0 66 53 119 119 119s119 -53 119 -119s-53 -119 -119 -119s-119 53 -119 119z" />
    <glyph glyph-name="paragraph" unicode="&#xb6;" horiz-adv-x="720" 
d="M256 -174v504c-145 0 -233 64 -233 189c0 160 117 195 256 195h364v-888h-140v778h-107v-778h-140z" />
    <glyph glyph-name="bullet" unicode="&#x2022;" horiz-adv-x="500" 
d="M72 357c0 99 79 178 177 178c99 0 179 -80 179 -179c0 -98 -79 -177 -178 -177s-178 79 -178 178z" />
    <glyph glyph-name="quotesinglbase" unicode="&#x201a;" horiz-adv-x="388" 
d="M82 0v198h224v-127c0 -156 -71 -252 -224 -267v82c74 14 94 69 99 114h-99z" />
    <glyph glyph-name="quotedblbase" unicode="&#x201e;" horiz-adv-x="667" 
d="M377 0v198h224v-127c0 -156 -71 -252 -224 -267v82c74 14 94 69 99 114h-99zM66 0v198h224v-127c0 -156 -71 -252 -224 -267v82c74 14 94 69 99 114h-99z" />
    <glyph glyph-name="quotedblright" unicode="&#x201d;" horiz-adv-x="667" 
d="M377 516v198h224v-127c0 -156 -71 -252 -224 -267v82c74 14 94 69 99 114h-99zM66 516v198h224v-127c0 -156 -71 -252 -224 -267v82c74 14 94 69 99 114h-99z" />
    <glyph glyph-name="guillemotright" unicode="&#xbb;" horiz-adv-x="648" 
d="M98 50v148l122 92l-122 92v148l206 -152v-176zM358 50v148l122 92l-122 92v148l206 -152v-176z" />
    <glyph glyph-name="ellipsis" unicode="&#x2026;" horiz-adv-x="1000" 
d="M55 0v198h224v-198h-224zM388 0v198h224v-198h-224zM721 0v198h224v-198h-224z" />
    <glyph glyph-name="perthousand" unicode="&#x2030;" horiz-adv-x="1167" 
d="M122 530c0 -63 9 -104 53 -104c45 0 55 37 55 104c0 65 -10 104 -55 104c-44 0 -53 -41 -53 -104zM110 -16l455 724h112l-455 -724h-112zM552 162c0 -63 9 -104 53 -104c45 0 55 37 55 104c0 65 -10 104 -55 104c-44 0 -53 -41 -53 -104zM6 530c0 95 49 178 170 178
c105 0 170 -54 170 -178c0 -125 -63 -178 -170 -178c-121 0 -170 83 -170 178zM436 162c0 95 49 178 170 178c105 0 170 -54 170 -178c0 -125 -63 -178 -170 -178c-121 0 -170 83 -170 178zM821 162c0 95 49 178 170 178c105 0 170 -54 170 -178c0 -125 -63 -178 -170 -178
c-121 0 -170 83 -170 178zM937 162c0 -63 9 -104 53 -104c45 0 55 37 55 104c0 65 -10 104 -55 104c-44 0 -53 -41 -53 -104z" />
    <glyph glyph-name="questiondown" unicode="&#xbf;" horiz-adv-x="796" 
d="M301 289h218c0 -72 -20 -106 -73 -133l-109 -56c-47 -24 -58 -48 -58 -75c0 -45 50 -75 114 -75c108 0 139 48 144 121h235c-21 -180 -122 -261 -371 -261c-219 0 -360 70 -360 222c0 179 244 158 260 257zM298 344v198h224v-198h-224z" />
    <glyph glyph-name="grave" unicode="`" horiz-adv-x="278" 
d="M65 600l-149 140h258l91 -140h-200z" />
    <glyph glyph-name="acute" unicode="&#xb4;" horiz-adv-x="278" 
d="M13 600l91 140h258l-149 -140h-200z" />
    <glyph glyph-name="circumflex" unicode="&#x2c6;" horiz-adv-x="278" 
d="M-158 600l149 140h296l149 -140h-234l-71 77l-71 -77h-218z" />
    <glyph glyph-name="tilde" unicode="&#x2dc;" horiz-adv-x="278" 
d="M-33 603h-96c27 115 94 145 162 145c19 0 39 -2 71 -9l139 -29c11 -3 19 -5 28 -5c27 0 36 20 43 35h93c-11 -76 -48 -148 -141 -148c-41 0 -71 6 -193 35c-23 5 -49 12 -60 12c-31 0 -41 -17 -46 -36z" />
    <glyph glyph-name="macron" unicode="&#xaf;" horiz-adv-x="278" 
d="M-124 612v116h526v-116h-526z" />
    <glyph glyph-name="breve" unicode="&#x2d8;" horiz-adv-x="278" 
d="M-85 748h116c4 -19 15 -32 33 -40c19 -8 44 -12 75 -12c64 0 100 13 108 52h116c-8 -55 -31 -96 -69 -121c-39 -25 -90 -35 -155 -35c-131 0 -208 41 -224 156z" />
    <glyph glyph-name="dotaccent" unicode="&#x2d9;" horiz-adv-x="278" 
d="M33 606v128h212v-128h-212z" />
    <glyph glyph-name="dieresis" unicode="&#xa8;" horiz-adv-x="278" 
d="M-120 606v128h212v-128h-212zM186 606v128h212v-128h-212z" />
    <glyph glyph-name="ring" unicode="&#x2da;" horiz-adv-x="278" 
d="M5 700c0 76 60 128 134 128s134 -52 134 -128s-60 -127 -134 -127s-134 51 -134 127zM81 700c0 -32 26 -58 58 -58s58 26 58 58s-26 58 -58 58s-58 -26 -58 -58z" />
    <glyph glyph-name="cedilla" unicode="&#xb8;" horiz-adv-x="278" 
d="M-9 -197l18 53c24 -8 56 -16 81 -16c31 0 47 17 47 34s-19 25 -39 25c-16 0 -27 -4 -36 -7l-25 20l62 88h69l-37 -51c19 3 35 5 47 5c40 0 99 -20 99 -79c0 -60 -51 -95 -143 -95c-56 0 -104 8 -143 23z" />
    <glyph glyph-name="hungarumlaut" unicode="&#x2dd;" horiz-adv-x="278" 
d="M-140 600l91 140h258l-149 -140h-200zM165 600l91 140h258l-149 -140h-200z" />
    <glyph glyph-name="ogonek" unicode="&#x2db;" horiz-adv-x="278" 
d="M214 0h90c-36 -33 -61 -56 -74 -70c-13 -15 -19 -29 -19 -43c0 -27 15 -38 36 -38c24 0 46 7 70 16l23 -56c-40 -16 -79 -29 -142 -29c-88 0 -125 37 -125 88c0 60 61 103 141 132z" />
    <glyph glyph-name="caron" unicode="&#x2c7;" horiz-adv-x="278" 
d="M-9 600l-149 140h234l71 -77l71 77h218l-149 -140h-296z" />
    <glyph glyph-name="emdash" unicode="&#x2014;" horiz-adv-x="1000" 
d="M0 220v140h1000v-140h-1000z" />
    <glyph glyph-name="AE" unicode="&#xc6;" horiz-adv-x="1148" 
d="M-17 0l359 714h774v-154h-372v-129h358v-148h-358v-129h376v-154h-588v135h-237l-60 -135h-252zM532 283v283h-46l-125 -283h171z" />
    <glyph glyph-name="ordfeminine" unicode="&#xaa;" horiz-adv-x="529" 
d="M518 358h-151c-4 10 -6 20 -6 30c-40 -27 -85 -42 -165 -42c-127 0 -185 33 -185 113c0 67 56 103 167 108l125 6c37 3 43 12 43 23c0 21 -27 32 -80 32c-43 0 -68 -12 -75 -36h-155c7 51 35 79 76 96c43 17 97 20 157 20c139 0 234 -19 234 -118v-173
c0 -28 3 -40 15 -59zM349 499v14c-11 -3 -35 -4 -52 -7l-78 -11c-27 -3 -40 -14 -40 -31c0 -19 24 -32 55 -32c72 0 115 28 115 67z" />
    <glyph glyph-name="Lslash" unicode="&#x141;" horiz-adv-x="760" 
d="M0 164v160l72 44v346h238v-217l171 105v-160l-171 -105v-171h435v-166h-673v208z" />
    <glyph glyph-name="Oslash" unicode="&#xd8;" horiz-adv-x="1000" 
d="M307 250l341 277c-36 33 -87 49 -148 49c-127 0 -213 -71 -213 -219c0 -41 7 -77 20 -107zM693 464l-341 -277c37 -35 88 -49 148 -49c128 0 213 69 213 219c0 41 -7 77 -20 107zM31 26l91 74c-55 59 -87 140 -87 257c0 296 213 379 465 379c121 0 232 -19 316 -72
l105 85l48 -61l-91 -74c56 -60 87 -141 87 -257c0 -296 -213 -379 -465 -379c-121 0 -232 19 -316 72l-105 -85z" />
    <glyph glyph-name="OE" unicode="&#x152;" horiz-adv-x="1167" 
d="M573 258v214c0 56 -66 110 -140 110c-121 0 -160 -102 -160 -225c0 -120 39 -225 160 -225c88 0 140 70 140 126zM574 0v48c-44 -39 -104 -70 -200 -70c-200 0 -339 135 -339 379s140 379 345 379c89 0 158 -30 194 -70v48h559v-154h-354v-129h341v-148h-341v-129h360
v-154h-565z" />
    <glyph glyph-name="ordmasculine" unicode="&#xba;" horiz-adv-x="529" 
d="M169 527c0 -56 35 -85 96 -85c60 0 95 29 95 85s-35 85 -95 85s-96 -29 -96 -85zM1 527c0 124 96 181 264 181c167 0 263 -57 263 -181c0 -123 -96 -181 -263 -181c-168 0 -264 58 -264 181z" />
    <glyph glyph-name="ae" unicode="&#xe6;" horiz-adv-x="1167" 
d="M266 372h-202c30 177 187 192 321 192c111 0 174 -21 221 -62c40 40 124 62 200 62c229 0 329 -125 329 -317v-26h-463c5 -60 41 -121 138 -121c73 0 96 32 112 60h206c-45 -135 -170 -182 -303 -182c-96 0 -183 19 -239 87c-48 -52 -148 -87 -276 -87
c-168 0 -278 42 -278 178c0 104 67 154 238 166c56 4 110 7 166 11c43 3 60 18 60 47c0 47 -37 62 -109 62c-71 0 -116 -13 -121 -70zM672 325h271c-11 63 -51 117 -137 117c-84 0 -123 -54 -134 -117zM498 218v30c-40 -21 -136 -19 -184 -27c-44 -5 -70 -25 -70 -60
c0 -39 34 -61 95 -61c108 0 159 34 159 118z" />
    <glyph glyph-name="dotlessi" unicode="&#x131;" horiz-adv-x="332" 
d="M60 0v542h212v-542h-212z" />
    <glyph glyph-name="lslash" unicode="&#x142;" horiz-adv-x="332" 
d="M60 0v259l-60 -37v140l60 37v333h212v-212l60 36v-140l-60 -36v-380h-212z" />
    <glyph glyph-name="oslash" unicode="&#xf8;" 
d="M20 15l79 61c-48 49 -72 114 -72 195c0 193 133 293 380 293c107 0 191 -19 254 -56l93 72l40 -53l-79 -61c48 -48 72 -113 72 -195c0 -193 -133 -293 -380 -293c-108 0 -193 19 -254 56l-93 -72zM263 202l248 191c-25 21 -60 31 -104 31c-96 0 -156 -50 -156 -153
c0 -27 4 -50 12 -69zM551 340l-248 -191c25 -21 60 -31 104 -31c96 0 156 50 156 153c0 27 -4 50 -12 69z" />
    <glyph glyph-name="oe" unicode="&#x153;" horiz-adv-x="1167" 
d="M922 160h206c-45 -135 -170 -182 -303 -182c-108 0 -186 22 -238 82c-40 -37 -107 -82 -229 -82c-221 0 -331 113 -331 293s110 293 331 293c116 0 182 -32 230 -72c40 40 107 72 218 72c229 0 329 -125 329 -317v-26h-463c5 -60 41 -121 138 -121c73 0 96 32 112 60z
M504 271c0 100 -43 153 -136 153c-92 0 -135 -53 -135 -153s43 -153 135 -153c93 0 136 53 136 153zM672 325h271c-11 63 -51 117 -137 117c-84 0 -123 -54 -134 -117z" />
    <glyph glyph-name="germandbls" unicode="&#xdf;" horiz-adv-x="833" 
d="M63 0v490c0 140 74 242 355 242c209 0 335 -56 335 -192c0 -84 -50 -120 -99 -128v-2c78 -13 142 -74 142 -194c0 -150 -123 -228 -296 -228c-66 0 -136 11 -163 19v148c41 -9 80 -13 108 -13c80 0 127 32 127 99c0 77 -86 89 -150 89h-66v122h51c84 0 116 26 116 63
c0 46 -36 69 -109 69c-119 0 -139 -52 -139 -137v-447h-212z" />
    <glyph glyph-name="onesuperior" unicode="&#xb9;" horiz-adv-x="397" 
d="M161 282v242h-128v104h22c64 0 119 10 145 70h123v-416h-162z" />
    <glyph glyph-name="logicalnot" unicode="&#xac;" horiz-adv-x="600" 
d="M413 108v187h-366v140h506v-327h-140z" />
    <glyph glyph-name="mu" unicode="&#xb5;" horiz-adv-x="778" 
d="M516 0v70h-2c-52 -73 -103 -92 -151 -92c-41 0 -72 12 -93 36h-2v-210h-212v738h212v-280c0 -92 38 -124 110 -124c75 0 132 42 132 130v274h212v-542h-206z" />
    <glyph glyph-name="trademark" unicode="&#x2122;" horiz-adv-x="1000" 
d="M114 302v308h-102v104h344v-104h-102v-308h-140zM830 302v258h-2l-89 -258h-88l-89 258h-2v-258h-128v412h174l89 -219l89 219h174v-412h-128z" />
    <glyph glyph-name="Eth" unicode="&#xd0;" horiz-adv-x="963" 
d="M72 0v291h-72v134h72v289h516c223 0 340 -117 340 -357c0 -280 -166 -357 -371 -357h-485zM466 425v-134h-156v-131h199c136 0 173 99 173 198c0 133 -64 196 -192 196h-180v-129h156z" />
    <glyph glyph-name="onehalf" unicode="&#xbd;" horiz-adv-x="1333" 
d="M278 -16l455 724h112l-455 -724h-112zM191 282v242h-128v104h22c64 0 119 10 145 70h123v-416h-162zM1214 104v-104h-524c5 126 94 177 209 206l108 28c27 7 47 23 47 42c0 31 -29 45 -80 46c-51 0 -92 -20 -96 -68h-180c5 68 34 110 82 137s114 35 194 35
c167 0 260 -46 260 -151c0 -77 -75 -114 -155 -127c-81 -13 -172 -26 -204 -42v-2h339z" />
    <glyph glyph-name="plusminus" unicode="&#xb1;" horiz-adv-x="600" 
d="M230 418v88h140v-88h183v-140h-183v-88h-140v88h-183v140h183zM47 0v140h506v-140h-506z" />
    <glyph glyph-name="Thorn" unicode="&#xde;" horiz-adv-x="889" 
d="M310 466v-180h212c67 0 95 26 95 90s-28 90 -95 90h-212zM72 0v714h238v-100h290c194 0 263 -102 263 -238c0 -118 -60 -238 -252 -238h-301v-138h-238z" />
    <glyph glyph-name="onequarter" unicode="&#xbc;" horiz-adv-x="1333" 
d="M983 0v55h-302v108l255 253h201v-239h70v-122h-70v-55h-154zM983 177v155l-161 -155h161zM293 -16l455 724h112l-455 -724h-112zM191 282v242h-128v104h22c64 0 119 10 145 70h123v-416h-162z" />
    <glyph glyph-name="divide" unicode="&#xf7;" horiz-adv-x="600" 
d="M47 183v140h506v-140h-506zM201 465c0 56 43 99 99 99s99 -43 99 -99s-43 -99 -99 -99s-99 43 -99 99zM201 41c0 56 43 99 99 99s99 -43 99 -99s-43 -99 -99 -99s-99 43 -99 99z" />
    <glyph glyph-name="brokenbar" unicode="&#xa6;" horiz-adv-x="222" 
d="M37 -22v296h148v-296h-148zM37 440v296h148v-296h-148z" />
    <glyph glyph-name="degree" unicode="&#xb0;" horiz-adv-x="400" 
d="M40 548c0 88 72 160 160 160s160 -72 160 -160s-72 -160 -160 -160s-160 72 -160 160zM114 548c0 -47 39 -86 86 -86s86 39 86 86s-39 86 -86 86s-86 -39 -86 -86z" />
    <glyph glyph-name="thorn" unicode="&#xfe;" 
d="M56 -196v928h212v-262h2c40 64 149 86 209 86c168 0 308 -93 308 -289c0 -179 -140 -289 -308 -289c-100 0 -170 31 -209 71h-2v-245h-212zM268 270c0 -84 51 -138 151 -138c97 0 150 47 150 138s-53 138 -150 138c-100 0 -151 -54 -151 -138z" />
    <glyph glyph-name="threequarters" unicode="&#xbe;" horiz-adv-x="1333" 
d="M1073 0v55h-302v108l255 253h201v-239h70v-122h-70v-55h-154zM1073 177v155l-161 -155h161zM218 446v96h89c45 0 71 9 71 34c0 28 -42 36 -79 36c-41 0 -72 -3 -85 -38h-178c7 59 40 91 89 110c51 19 114 24 185 24c177 0 248 -36 248 -124c0 -51 -40 -80 -91 -83v-2
c59 -5 110 -34 110 -98c0 -93 -92 -131 -275 -131c-212 0 -274 46 -279 140h174c2 -10 11 -19 27 -26c17 -7 41 -10 73 -10c47 0 94 7 94 31c0 27 -27 41 -94 41h-79zM423 -16l455 724h112l-455 -724h-112z" />
    <glyph glyph-name="twosuperior" unicode="&#xb2;" horiz-adv-x="577" 
d="M538 386v-104h-524c5 126 94 177 209 206l108 28c27 7 47 23 47 42c0 31 -29 45 -80 46c-51 0 -92 -20 -96 -68h-180c5 68 34 110 82 137s114 35 194 35c167 0 260 -46 260 -151c0 -77 -75 -114 -155 -127c-81 -13 -172 -26 -204 -42v-2h339z" />
    <glyph glyph-name="registered" unicode="&#xae;" horiz-adv-x="800" 
d="M21 357c0 208 171 379 379 379s379 -171 379 -379s-171 -379 -379 -379s-379 171 -379 379zM149 357c0 -168 119 -269 251 -269c129 0 251 101 251 269s-122 269 -251 269c-132 0 -251 -101 -251 -269zM254 177v386h134c108 0 174 -28 174 -125c0 -76 -45 -100 -78 -105
l89 -156h-107l-83 146h-33v-146h-96zM350 397h50c39 0 58 15 58 46s-19 46 -58 46h-50v-92z" />
    <glyph glyph-name="minus" unicode="&#x2212;" horiz-adv-x="600" 
d="M47 183v140h506v-140h-506z" />
    <glyph glyph-name="eth" unicode="&#xf0;" 
d="M251 241c0 -77 48 -123 156 -123c105 0 156 46 156 123s-51 123 -156 123s-156 -46 -156 -123zM142 580l117 51c-33 11 -68 22 -107 33l112 111c69 -11 135 -30 195 -55l121 53l74 -48l-107 -47c143 -85 240 -213 240 -390c0 -218 -136 -310 -380 -310
c-245 0 -380 90 -380 273c0 173 155 253 315 253c79 0 124 -11 168 -42l2 2c-32 53 -87 95 -158 128l-146 -64z" />
    <glyph glyph-name="multiply" unicode="&#xd7;" horiz-adv-x="600" 
d="M201 253l-143 143l99 99l143 -143l143 143l99 -99l-143 -143l143 -143l-99 -99l-143 143l-143 -143l-99 99z" />
    <glyph glyph-name="threesuperior" unicode="&#xb3;" horiz-adv-x="577" 
d="M198 446v96h89c45 0 71 9 71 34c0 28 -42 36 -79 36c-41 0 -72 -3 -85 -38h-178c7 59 40 91 89 110c51 19 114 24 185 24c177 0 248 -36 248 -124c0 -51 -40 -80 -91 -83v-2c59 -5 110 -34 110 -98c0 -93 -92 -131 -275 -131c-212 0 -274 46 -279 140h174
c2 -10 11 -19 27 -26c17 -7 41 -10 73 -10c47 0 94 7 94 31c0 27 -27 41 -94 41h-79z" />
    <glyph glyph-name="copyright" unicode="&#xa9;" horiz-adv-x="800" 
d="M149 357c0 -168 119 -269 251 -269c129 0 251 101 251 269s-122 269 -251 269c-132 0 -251 -101 -251 -269zM483 298h114c-16 -105 -92 -160 -181 -160c-127 0 -211 96 -211 218c0 125 80 219 205 219c96 0 167 -52 183 -156h-110c-9 39 -36 60 -73 60
c-61 0 -95 -46 -95 -121c0 -76 38 -124 98 -124c37 0 65 21 70 64zM21 357c0 208 171 379 379 379s379 -171 379 -379s-171 -379 -379 -379s-379 171 -379 379z" />
    <glyph glyph-name="Aacute" unicode="&#xc1;" horiz-adv-x="852" 
d="M-28 0l310 714h291l307 -714h-255l-43 116h-312l-43 -116h-255zM526 264l-99 270h-2l-99 -270h200zM302 780l91 140h258l-149 -140h-200z" />
    <glyph glyph-name="Acircumflex" unicode="&#xc2;" horiz-adv-x="852" 
d="M-28 0l310 714h291l307 -714h-255l-43 116h-312l-43 -116h-255zM526 264l-99 270h-2l-99 -270h200zM130 780l149 140h296l149 -140h-234l-71 77l-71 -77h-218z" />
    <glyph glyph-name="Adieresis" unicode="&#xc4;" horiz-adv-x="852" 
d="M-28 0l310 714h291l307 -714h-255l-43 116h-312l-43 -116h-255zM526 264l-99 270h-2l-99 -270h200zM169 786v128h212v-128h-212zM475 786v128h212v-128h-212z" />
    <glyph glyph-name="Agrave" unicode="&#xc0;" horiz-adv-x="852" 
d="M-28 0l310 714h291l307 -714h-255l-43 116h-312l-43 -116h-255zM526 264l-99 270h-2l-99 -270h200zM351 780l-149 140h258l91 -140h-200z" />
    <glyph glyph-name="Aring" unicode="&#xc5;" horiz-adv-x="852" 
d="M-28 0l310 714h291l307 -714h-255l-43 116h-312l-43 -116h-255zM526 264l-99 270h-2l-99 -270h200zM290 875c0 76 60 128 134 128s134 -52 134 -128s-60 -127 -134 -127s-134 51 -134 127zM366 875c0 -32 26 -58 58 -58s58 26 58 58s-26 58 -58 58s-58 -26 -58 -58z" />
    <glyph glyph-name="Atilde" unicode="&#xc3;" horiz-adv-x="852" 
d="M-28 0l310 714h291l307 -714h-255l-43 116h-312l-43 -116h-255zM526 264l-99 270h-2l-99 -270h200zM255 783h-96c27 115 94 145 162 145c19 0 39 -2 71 -9l139 -29c11 -3 19 -5 28 -5c27 0 36 20 43 35h93c-11 -76 -48 -148 -141 -148c-41 0 -71 6 -193 35
c-23 5 -49 12 -60 12c-31 0 -41 -17 -46 -36z" />
    <glyph glyph-name="Ccedilla" unicode="&#xc7;" horiz-adv-x="963" 
d="M334 -197l18 53c24 -8 56 -16 81 -16c31 0 47 17 47 34s-19 25 -39 25c-16 0 -27 -4 -36 -7l-25 20l47 68c-123 7 -217 39 -281 95c-74 65 -111 159 -111 282c0 239 139 379 449 379c219 0 397 -49 450 -297h-265c-14 52 -49 137 -184 137c-149 0 -198 -101 -198 -219
s44 -219 198 -219c108 0 171 53 187 137h264c-22 -118 -75 -222 -243 -273c-53 -15 -119 -23 -198 -24l-21 -29c19 3 35 5 47 5c40 0 99 -20 99 -79c0 -60 -51 -95 -143 -95c-56 0 -104 8 -143 23z" />
    <glyph glyph-name="Eacute" unicode="&#xc9;" horiz-adv-x="815" 
d="M72 0v714h715v-154h-477v-129h447v-148h-447v-129h477v-154h-715zM327 780l91 140h258l-149 -140h-200z" />
    <glyph glyph-name="Ecircumflex" unicode="&#xca;" horiz-adv-x="815" 
d="M72 0v714h715v-154h-477v-129h447v-148h-447v-129h477v-154h-715zM130 780l149 140h296l149 -140h-234l-71 77l-71 -77h-218z" />
    <glyph glyph-name="Edieresis" unicode="&#xcb;" horiz-adv-x="815" 
d="M72 0v714h715v-154h-477v-129h447v-148h-447v-129h477v-154h-715zM173 786v128h212v-128h-212zM479 786v128h212v-128h-212z" />
    <glyph glyph-name="Egrave" unicode="&#xc8;" horiz-adv-x="815" 
d="M72 0v714h715v-154h-477v-129h447v-148h-447v-129h477v-154h-715zM397 780l-149 140h258l91 -140h-200z" />
    <glyph glyph-name="Iacute" unicode="&#xcd;" horiz-adv-x="388" 
d="M75 0v714h238v-714h-238zM76 780l91 140h258l-149 -140h-200z" />
    <glyph glyph-name="Icircumflex" unicode="&#xce;" horiz-adv-x="388" 
d="M75 0v714h238v-714h-238zM-103 780l149 140h296l149 -140h-234l-71 77l-71 -77h-218z" />
    <glyph glyph-name="Idieresis" unicode="&#xcf;" horiz-adv-x="388" 
d="M75 0v714h238v-714h-238zM-64 786v128h212v-128h-212zM242 786v128h212v-128h-212z" />
    <glyph glyph-name="Igrave" unicode="&#xcc;" horiz-adv-x="388" 
d="M75 0v714h238v-714h-238zM111 780l-149 140h258l91 -140h-200z" />
    <glyph glyph-name="Ntilde" unicode="&#xd1;" horiz-adv-x="981" 
d="M72 0v714h274l331 -447h2v447h230v-714h-263l-342 451h-2v-451h-230zM317 783h-96c27 115 94 145 162 145c19 0 39 -2 71 -9l139 -29c11 -3 19 -5 28 -5c27 0 36 20 43 35h93c-11 -76 -48 -148 -141 -148c-41 0 -71 6 -193 35c-23 5 -49 12 -60 12c-31 0 -41 -17 -46 -36
z" />
    <glyph glyph-name="Oacute" unicode="&#xd3;" horiz-adv-x="1000" 
d="M35 357c0 296 213 379 465 379s465 -83 465 -379s-213 -379 -465 -379s-465 83 -465 379zM287 357c0 -150 86 -219 213 -219c128 0 213 69 213 219c0 149 -85 219 -213 219c-127 0 -213 -71 -213 -219zM410 780l91 140h258l-149 -140h-200z" />
    <glyph glyph-name="Ocircumflex" unicode="&#xd4;" horiz-adv-x="1000" 
d="M35 357c0 296 213 379 465 379s465 -83 465 -379s-213 -379 -465 -379s-465 83 -465 379zM287 357c0 -150 86 -219 213 -219c128 0 213 69 213 219c0 149 -85 219 -213 219c-127 0 -213 -71 -213 -219zM209 780l149 140h296l149 -140h-234l-71 77l-71 -77h-218z" />
    <glyph glyph-name="Odieresis" unicode="&#xd6;" horiz-adv-x="1000" 
d="M35 357c0 296 213 379 465 379s465 -83 465 -379s-213 -379 -465 -379s-465 83 -465 379zM287 357c0 -150 86 -219 213 -219c128 0 213 69 213 219c0 149 -85 219 -213 219c-127 0 -213 -71 -213 -219zM240 786v128h212v-128h-212zM546 786v128h212v-128h-212z" />
    <glyph glyph-name="Ograve" unicode="&#xd2;" horiz-adv-x="1000" 
d="M35 357c0 296 213 379 465 379s465 -83 465 -379s-213 -379 -465 -379s-465 83 -465 379zM287 357c0 -150 86 -219 213 -219c128 0 213 69 213 219c0 149 -85 219 -213 219c-127 0 -213 -71 -213 -219zM435 780l-149 140h258l91 -140h-200z" />
    <glyph glyph-name="Otilde" unicode="&#xd5;" horiz-adv-x="1000" 
d="M35 357c0 296 213 379 465 379s465 -83 465 -379s-213 -379 -465 -379s-465 83 -465 379zM287 357c0 -150 86 -219 213 -219c128 0 213 69 213 219c0 149 -85 219 -213 219c-127 0 -213 -71 -213 -219zM327 783h-96c27 115 94 145 162 145c19 0 39 -2 71 -9l139 -29
c11 -3 19 -5 28 -5c27 0 36 20 43 35h93c-11 -76 -48 -148 -141 -148c-41 0 -71 6 -193 35c-23 5 -49 12 -60 12c-31 0 -41 -17 -46 -36z" />
    <glyph glyph-name="Scaron" unicode="&#x160;" horiz-adv-x="889" 
d="M836 505h-270c-8 49 -45 83 -155 83c-80 0 -124 -23 -124 -70c0 -23 18 -38 53 -44c59 -11 243 -38 313 -49c133 -23 213 -78 213 -203c0 -242 -314 -244 -412 -244c-242 0 -418 43 -431 242h282c5 -54 37 -88 160 -88c60 0 125 14 125 75c0 37 -30 51 -113 64l-238 36
c-147 21 -204 95 -204 202c0 93 58 227 371 227c260 0 414 -63 430 -231zM299 780l-149 140h234l71 -77l71 77h218l-149 -140h-296z" />
    <glyph glyph-name="Uacute" unicode="&#xda;" horiz-adv-x="926" 
d="M62 252v462h238v-423c0 -116 54 -153 163 -153s163 37 163 153v423h238v-462c0 -197 -148 -274 -401 -274s-401 77 -401 274zM374 780l91 140h258l-149 -140h-200z" />
    <glyph glyph-name="Ucircumflex" unicode="&#xdb;" horiz-adv-x="926" 
d="M62 252v462h238v-423c0 -116 54 -153 163 -153s163 37 163 153v423h238v-462c0 -197 -148 -274 -401 -274s-401 77 -401 274zM174 780l149 140h296l149 -140h-234l-71 77l-71 -77h-218z" />
    <glyph glyph-name="Udieresis" unicode="&#xdc;" horiz-adv-x="926" 
d="M62 252v462h238v-423c0 -116 54 -153 163 -153s163 37 163 153v423h238v-462c0 -197 -148 -274 -401 -274s-401 77 -401 274zM203 786v128h212v-128h-212zM509 786v128h212v-128h-212z" />
    <glyph glyph-name="Ugrave" unicode="&#xd9;" horiz-adv-x="926" 
d="M62 252v462h238v-423c0 -116 54 -153 163 -153s163 37 163 153v423h238v-462c0 -197 -148 -274 -401 -274s-401 77 -401 274zM372 780l-149 140h258l91 -140h-200z" />
    <glyph glyph-name="Yacute" unicode="&#xdd;" 
d="M288 0v225l-317 489h276l160 -303l160 303h276l-317 -489v-225h-238zM317 780l91 140h258l-149 -140h-200z" />
    <glyph glyph-name="Ydieresis" unicode="&#x178;" 
d="M288 0v225l-317 489h276l160 -303l160 303h276l-317 -489v-225h-238zM149 786v128h212v-128h-212zM455 786v128h212v-128h-212z" />
    <glyph glyph-name="Zcaron" unicode="&#x17d;" 
d="M18 0v137l450 417h-419v160h738v-140l-447 -414h440v-160h-762zM271 780l-149 140h234l71 -77l71 77h218l-149 -140h-296z" />
    <glyph glyph-name="aacute" unicode="&#xe1;" 
d="M276 372h-212c19 161 174 184 339 184c197 0 345 -32 345 -184v-274c0 -46 6 -66 22 -98h-212c-7 16 -10 35 -11 50c-61 -59 -147 -72 -255 -72c-175 0 -265 56 -265 169c0 123 82 166 234 177l211 14c55 4 64 16 64 44c0 39 -41 58 -134 58c-79 0 -115 -21 -126 -68z
M542 220v33c-17 -5 -44 -10 -81 -15l-143 -17c-43 -5 -61 -22 -61 -55c0 -43 38 -66 95 -66c123 0 190 45 190 120zM315 600l91 140h258l-149 -140h-200z" />
    <glyph glyph-name="acircumflex" unicode="&#xe2;" 
d="M276 372h-212c19 161 174 184 339 184c197 0 345 -32 345 -184v-274c0 -46 6 -66 22 -98h-212c-7 16 -10 35 -11 50c-61 -59 -147 -72 -255 -72c-175 0 -265 56 -265 169c0 123 82 166 234 177l211 14c55 4 64 16 64 44c0 39 -41 58 -134 58c-79 0 -115 -21 -126 -68z
M542 220v33c-17 -5 -44 -10 -81 -15l-143 -17c-43 -5 -61 -22 -61 -55c0 -43 38 -66 95 -66c123 0 190 45 190 120zM119 600l149 140h296l149 -140h-234l-71 77l-71 -77h-218z" />
    <glyph glyph-name="adieresis" unicode="&#xe4;" 
d="M276 372h-212c19 161 174 184 339 184c197 0 345 -32 345 -184v-274c0 -46 6 -66 22 -98h-212c-7 16 -10 35 -11 50c-61 -59 -147 -72 -255 -72c-175 0 -265 56 -265 169c0 123 82 166 234 177l211 14c55 4 64 16 64 44c0 39 -41 58 -134 58c-79 0 -115 -21 -126 -68z
M542 220v33c-17 -5 -44 -10 -81 -15l-143 -17c-43 -5 -61 -22 -61 -55c0 -43 38 -66 95 -66c123 0 190 45 190 120zM151 606v128h212v-128h-212zM457 606v128h212v-128h-212z" />
    <glyph glyph-name="agrave" unicode="&#xe0;" 
d="M276 372h-212c19 161 174 184 339 184c197 0 345 -32 345 -184v-274c0 -46 6 -66 22 -98h-212c-7 16 -10 35 -11 50c-61 -59 -147 -72 -255 -72c-175 0 -265 56 -265 169c0 123 82 166 234 177l211 14c55 4 64 16 64 44c0 39 -41 58 -134 58c-79 0 -115 -21 -126 -68z
M542 220v33c-17 -5 -44 -10 -81 -15l-143 -17c-43 -5 -61 -22 -61 -55c0 -43 38 -66 95 -66c123 0 190 45 190 120zM352 600l-149 140h258l91 -140h-200z" />
    <glyph glyph-name="aring" unicode="&#xe5;" 
d="M276 372h-212c19 161 174 184 339 184c197 0 345 -32 345 -184v-274c0 -46 6 -66 22 -98h-212c-7 16 -10 35 -11 50c-61 -59 -147 -72 -255 -72c-175 0 -265 56 -265 169c0 123 82 166 234 177l211 14c55 4 64 16 64 44c0 39 -41 58 -134 58c-79 0 -115 -21 -126 -68z
M542 220v33c-17 -5 -44 -10 -81 -15l-143 -17c-43 -5 -61 -22 -61 -55c0 -43 38 -66 95 -66c123 0 190 45 190 120zM272 720c0 76 60 128 134 128s134 -52 134 -128s-60 -127 -134 -127s-134 51 -134 127zM348 720c0 -32 26 -58 58 -58s58 26 58 58s-26 58 -58 58
s-58 -26 -58 -58z" />
    <glyph glyph-name="atilde" unicode="&#xe3;" 
d="M276 372h-212c19 161 174 184 339 184c197 0 345 -32 345 -184v-274c0 -46 6 -66 22 -98h-212c-7 16 -10 35 -11 50c-61 -59 -147 -72 -255 -72c-175 0 -265 56 -265 169c0 123 82 166 234 177l211 14c55 4 64 16 64 44c0 39 -41 58 -134 58c-79 0 -115 -21 -126 -68z
M542 220v33c-17 -5 -44 -10 -81 -15l-143 -17c-43 -5 -61 -22 -61 -55c0 -43 38 -66 95 -66c123 0 190 45 190 120zM236 603h-96c27 115 94 145 162 145c19 0 39 -2 71 -9l139 -29c11 -3 19 -5 28 -5c27 0 36 20 43 35h93c-11 -76 -48 -148 -141 -148c-41 0 -71 6 -193 35
c-23 5 -49 12 -60 12c-31 0 -41 -17 -46 -36z" />
    <glyph glyph-name="ccedilla" unicode="&#xe7;" 
d="M264 -197l18 53c24 -8 56 -16 81 -16c31 0 47 17 47 34s-19 25 -39 25c-16 0 -27 -4 -36 -7l-25 20l47 68c-94 6 -169 29 -225 69c-67 48 -100 122 -100 222c0 196 147 293 380 293c202 0 346 -61 365 -233h-218c-11 60 -53 93 -144 93c-100 0 -159 -54 -159 -153
s57 -153 160 -153c80 0 132 34 147 103h224c-24 -117 -88 -195 -221 -227c-40 -10 -87 -15 -141 -16l-21 -29c19 3 35 5 47 5c40 0 99 -20 99 -79c0 -60 -51 -95 -143 -95c-56 0 -104 8 -143 23z" />
    <glyph glyph-name="eacute" unicode="&#xe9;" 
d="M250 331h314c-14 60 -56 111 -157 111c-100 0 -146 -51 -157 -111zM548 161h224c-26 -90 -129 -183 -360 -183c-244 0 -380 93 -380 294c0 192 150 292 374 292c232 0 376 -101 376 -327v-16h-532c11 -70 61 -121 170 -121c68 0 103 29 128 61zM320 600l91 140h258
l-149 -140h-200z" />
    <glyph glyph-name="ecircumflex" unicode="&#xea;" 
d="M250 331h314c-14 60 -56 111 -157 111c-100 0 -146 -51 -157 -111zM548 161h224c-26 -90 -129 -183 -360 -183c-244 0 -380 93 -380 294c0 192 150 292 374 292c232 0 376 -101 376 -327v-16h-532c11 -70 61 -121 170 -121c68 0 103 29 128 61zM122 600l149 140h296
l149 -140h-234l-71 77l-71 -77h-218z" />
    <glyph glyph-name="edieresis" unicode="&#xeb;" 
d="M250 331h314c-14 60 -56 111 -157 111c-100 0 -146 -51 -157 -111zM548 161h224c-26 -90 -129 -183 -360 -183c-244 0 -380 93 -380 294c0 192 150 292 374 292c232 0 376 -101 376 -327v-16h-532c11 -70 61 -121 170 -121c68 0 103 29 128 61zM153 606v128h212v-128
h-212zM459 606v128h212v-128h-212z" />
    <glyph glyph-name="egrave" unicode="&#xe8;" 
d="M250 331h314c-14 60 -56 111 -157 111c-100 0 -146 -51 -157 -111zM548 161h224c-26 -90 -129 -183 -360 -183c-244 0 -380 93 -380 294c0 192 150 292 374 292c232 0 376 -101 376 -327v-16h-532c11 -70 61 -121 170 -121c68 0 103 29 128 61zM347 600l-149 140h258
l91 -140h-200z" />
    <glyph glyph-name="iacute" unicode="&#xed;" horiz-adv-x="332" 
d="M60 0v542h212v-542h-212zM61 600l91 140h258l-149 -140h-200z" />
    <glyph glyph-name="icircumflex" unicode="&#xee;" horiz-adv-x="332" 
d="M60 0v542h212v-542h-212zM-131 600l149 140h296l149 -140h-234l-71 77l-71 -77h-218z" />
    <glyph glyph-name="idieresis" unicode="&#xef;" horiz-adv-x="332" 
d="M60 0v542h212v-542h-212zM-93 606v128h212v-128h-212zM213 606v128h212v-128h-212z" />
    <glyph glyph-name="igrave" unicode="&#xec;" horiz-adv-x="332" 
d="M60 0v542h212v-542h-212zM73 600l-149 140h258l91 -140h-200z" />
    <glyph glyph-name="ntilde" unicode="&#xf1;" horiz-adv-x="778" 
d="M56 0v542h206v-78h2c43 53 120 92 228 92c133 0 230 -64 230 -199v-357h-212v293c0 69 -38 103 -110 103c-75 0 -132 -42 -132 -130v-266h-212zM217 603h-96c27 115 94 145 162 145c19 0 39 -2 71 -9l139 -29c11 -3 19 -5 28 -5c27 0 36 20 43 35h93
c-11 -76 -48 -148 -141 -148c-41 0 -71 6 -193 35c-23 5 -49 12 -60 12c-31 0 -41 -17 -46 -36z" />
    <glyph glyph-name="oacute" unicode="&#xf3;" 
d="M407 424c-96 0 -156 -50 -156 -153s60 -153 156 -153s156 50 156 153s-60 153 -156 153zM27 271c0 193 133 293 380 293s380 -100 380 -293s-133 -293 -380 -293s-380 100 -380 293zM320 600l91 140h258l-149 -140h-200z" />
    <glyph glyph-name="ocircumflex" unicode="&#xf4;" 
d="M407 424c-96 0 -156 -50 -156 -153s60 -153 156 -153s156 50 156 153s-60 153 -156 153zM27 271c0 193 133 293 380 293s380 -100 380 -293s-133 -293 -380 -293s-380 100 -380 293zM118 600l149 140h296l149 -140h-234l-71 77l-71 -77h-218z" />
    <glyph glyph-name="odieresis" unicode="&#xf6;" 
d="M407 424c-96 0 -156 -50 -156 -153s60 -153 156 -153s156 50 156 153s-60 153 -156 153zM27 271c0 193 133 293 380 293s380 -100 380 -293s-133 -293 -380 -293s-380 100 -380 293zM148 606v128h212v-128h-212zM454 606v128h212v-128h-212z" />
    <glyph glyph-name="ograve" unicode="&#xf2;" 
d="M407 424c-96 0 -156 -50 -156 -153s60 -153 156 -153s156 50 156 153s-60 153 -156 153zM27 271c0 193 133 293 380 293s380 -100 380 -293s-133 -293 -380 -293s-380 100 -380 293zM337 600l-149 140h258l91 -140h-200z" />
    <glyph glyph-name="otilde" unicode="&#xf5;" 
d="M407 424c-96 0 -156 -50 -156 -153s60 -153 156 -153s156 50 156 153s-60 153 -156 153zM27 271c0 193 133 293 380 293s380 -100 380 -293s-133 -293 -380 -293s-380 100 -380 293zM236 603h-96c27 115 94 145 162 145c19 0 39 -2 71 -9l139 -29c11 -3 19 -5 28 -5
c27 0 36 20 43 35h93c-11 -76 -48 -148 -141 -148c-41 0 -71 6 -193 35c-23 5 -49 12 -60 12c-31 0 -41 -17 -46 -36z" />
    <glyph glyph-name="scaron" unicode="&#x161;" horiz-adv-x="759" 
d="M27 169h246c3 -20 11 -35 30 -46s47 -17 94 -17s97 9 97 48c0 29 -21 36 -73 43l-189 23c-125 15 -187 59 -187 151c0 147 126 193 329 193c145 0 325 -26 338 -180h-238c-3 23 -17 38 -38 46c-21 9 -49 12 -76 12c-61 0 -97 -14 -97 -51c0 -17 13 -31 68 -38l183 -20
c147 -16 218 -60 218 -167c0 -129 -120 -188 -347 -188c-150 0 -353 27 -358 191zM233 600l-149 140h234l71 -77l71 77h218l-149 -140h-296z" />
    <glyph glyph-name="uacute" unicode="&#xfa;" horiz-adv-x="778" 
d="M56 197v345h212v-280c0 -92 38 -124 110 -124c75 0 132 42 132 130v274h212v-542h-206v70h-2c-43 -53 -120 -92 -228 -92c-131 0 -230 56 -230 219zM297 600l91 140h258l-149 -140h-200z" />
    <glyph glyph-name="ucircumflex" unicode="&#xfb;" horiz-adv-x="778" 
d="M56 197v345h212v-280c0 -92 38 -124 110 -124c75 0 132 42 132 130v274h212v-542h-206v70h-2c-43 -53 -120 -92 -228 -92c-131 0 -230 56 -230 219zM92 600l149 140h296l149 -140h-234l-71 77l-71 -77h-218z" />
    <glyph glyph-name="udieresis" unicode="&#xfc;" horiz-adv-x="778" 
d="M56 197v345h212v-280c0 -92 38 -124 110 -124c75 0 132 42 132 130v274h212v-542h-206v70h-2c-43 -53 -120 -92 -228 -92c-131 0 -230 56 -230 219zM130 606v128h212v-128h-212zM436 606v128h212v-128h-212z" />
    <glyph glyph-name="ugrave" unicode="&#xf9;" horiz-adv-x="778" 
d="M56 197v345h212v-280c0 -92 38 -124 110 -124c75 0 132 42 132 130v274h212v-542h-206v70h-2c-43 -53 -120 -92 -228 -92c-131 0 -230 56 -230 219zM294 600l-149 140h258l91 -140h-200z" />
    <glyph glyph-name="yacute" unicode="&#xfd;" horiz-adv-x="685" 
d="M64 -190v134h51c74 0 86 20 97 39l24 48l-255 511h230l137 -322l132 322h224l-288 -610c-39 -82 -72 -128 -203 -128c-56 0 -108 3 -149 6zM257 600l91 140h258l-149 -140h-200z" />
    <glyph glyph-name="ydieresis" unicode="&#xff;" horiz-adv-x="685" 
d="M64 -190v134h51c74 0 86 20 97 39l24 48l-255 511h230l137 -322l132 322h224l-288 -610c-39 -82 -72 -128 -203 -128c-56 0 -108 3 -149 6zM88 606v128h212v-128h-212zM394 606v128h212v-128h-212z" />
    <glyph glyph-name="zcaron" unicode="&#x17e;" horiz-adv-x="667" 
d="M22 0v128l326 264v2h-309v148h596v-128l-316 -266h326v-148h-623zM193 600l-149 140h234l71 -77l71 77h218l-149 -140h-296z" />
    <glyph glyph-name="notequal" unicode="&#x2260;" horiz-adv-x="593" 
d="M569 72h-285l-80 -163l-138 68l46 95h-89v157h167l42 87h-209v158h287l80 161l137 -68l-46 -93h88v-158h-165l-43 -87h208v-157z" />
    <glyph glyph-name="infinity" unicode="&#x221e;" horiz-adv-x="889" 
d="M844 276c0 -124 -73 -221 -203 -221c-87 0 -148 51 -197 118c-49 -67 -104 -117 -191 -117c-131 0 -208 94 -208 220c0 124 74 214 203 214c95 0 143 -54 196 -126c51 73 101 126 197 126c129 0 203 -90 203 -214zM712 273c0 45 -29 80 -76 80c-46 0 -89 -47 -113 -82
c27 -38 66 -78 116 -78c48 0 73 35 73 80zM365 271c-24 35 -70 82 -116 82c-45 0 -72 -38 -72 -81c0 -45 26 -78 73 -78c49 0 88 38 115 77z" />
    <glyph glyph-name="lessequal" unicode="&#x2264;" horiz-adv-x="593" 
d="M569 128l-546 164v156l546 148v-160l-326 -66l326 -81v-161zM569 -53h-546v157h546v-157z" />
    <glyph glyph-name="greaterequal" unicode="&#x2265;" horiz-adv-x="593" 
d="M569 292l-546 -164v161l327 81l-327 66v160l546 -148v-156zM569 -53h-546v157h546v-157z" />
    <glyph glyph-name="partialdiff" unicode="&#x2202;" horiz-adv-x="593" 
d="M548 358c0 -172 -49 -372 -261 -372c-141 0 -242 93 -242 237c0 128 93 230 225 230c45 0 86 -14 123 -41c0 76 -22 191 -120 191c-49 0 -85 -25 -120 -58l-84 93c60 56 117 83 200 83c212 0 279 -183 279 -363zM391 273v21c-23 23 -62 43 -95 43
c-68 0 -101 -61 -101 -121c0 -55 29 -116 92 -116c83 0 104 108 104 173z" />
    <glyph glyph-name="summation" unicode="&#x2211;" horiz-adv-x="704" 
d="M674 -214h-644v135l286 372l-275 356v137h621v-156h-413l251 -337l-266 -351h440v-156z" />
    <glyph glyph-name="product" unicode="&#x220f;" horiz-adv-x="759" 
d="M711 -214h-156v845h-350v-845h-157v1000h663v-1000z" />
    <glyph glyph-name="pi" unicode="&#x3c0;" horiz-adv-x="629" 
d="M604 134v-113c-39 -20 -66 -30 -109 -30c-99 0 -127 59 -127 147v217h-143v-355h-155v355h-70v141h604v-141h-81v-155c0 -32 -7 -77 38 -77c15 0 28 4 43 11z" />
    <glyph glyph-name="integral" unicode="&#x222b;" horiz-adv-x="667" 
d="M573 684c0 -43 -29 -73 -72 -73c-97 0 -48 109 -89 109c-20 0 -20 -27 -20 -40c0 -68 8 -134 8 -202l1 -302c0 -151 18 -391 -199 -391c-59 0 -142 30 -142 102c0 43 28 73 71 73c95 0 51 -108 90 -108c20 0 20 28 20 42c0 59 -9 114 -9 173v389c0 109 -3 249 108 310
c27 15 59 20 90 20c60 0 143 -29 143 -102z" />
    <glyph glyph-name="Omega" unicode="&#x2126;" horiz-adv-x="778" 
d="M726 416c0 -109 -58 -228 -173 -252v-19h172v-145h-302v222c89 16 126 93 126 177c0 96 -55 175 -157 175c-103 0 -163 -84 -163 -181c0 -84 39 -155 124 -171v-222h-302v145h173v19c-116 32 -173 135 -173 251c0 199 156 306 342 306c181 0 333 -112 333 -305z" />
    <glyph glyph-name="radical" unicode="&#x221a;" horiz-adv-x="611" 
d="M617 786l-225 -1000h-142l-140 286l-58 -27l-58 122l198 91l104 -232l155 760h166z" />
    <glyph glyph-name="approxequal" unicode="&#x2248;" horiz-adv-x="593" 
d="M477 503h102c-5 -88 -52 -216 -159 -216c-71 0 -177 60 -253 60c-31 0 -49 -25 -52 -54h-101c0 88 54 216 158 216c77 0 178 -59 254 -59c35 0 48 22 51 53zM477 253h102c-5 -85 -46 -217 -153 -217c-82 0 -180 60 -258 60c-33 0 -49 -21 -53 -52h-101
c0 83 56 214 154 214c88 0 170 -59 258 -59c36 0 46 23 51 54z" />
    <glyph glyph-name="Delta" unicode="&#x2206;" horiz-adv-x="722" 
d="M710 0h-698l249 712h177zM486 150l-134 386l-124 -386h258z" />
    <glyph glyph-name="lozenge" unicode="&#x25ca;" horiz-adv-x="593" 
d="M562 356l-196 -391h-142l-194 391l196 391h140zM400 356l-104 231l-105 -231l105 -231z" />
    <glyph glyph-name="Euro" unicode="&#x20ac;" horiz-adv-x="888" 
d="M856 644l-88 -140c-16 12 -41 27 -73 38c-37 13 -81 18 -118 18c-45 0 -90 -7 -123 -27c-19 -11 -43 -31 -59 -68h355l-52 -86h-318c-4 -24 -2 -45 3 -68h276l-52 -86h-203c7 -20 22 -46 55 -66s77 -27 118 -27c23 0 92 1 155 33c33 16 66 40 94 73v-190
c-27 -15 -57 -28 -91 -39c-60 -19 -127 -25 -184 -25c-105 0 -200 22 -269 71c-39 26 -93 80 -117 170h-135l52 86h69c-4 21 -4 44 -1 68h-120l52 86h81c21 80 66 135 122 174c81 56 181 69 274 69c108 0 177 -18 197 -23c41 -11 72 -25 100 -41z" />
    <glyph glyph-name="commaaccent" unicode="&#xf004;" horiz-adv-x="388" 
d="M85 -158v108h208v-76c0 -20 -4 -38 -13 -54c-8 -17 -23 -30 -44 -40s-58 -15 -111 -15v45c41 4 53 15 56 32h-96z" />
    <glyph glyph-name="commaaccent" unicode="&#xf6c3;" horiz-adv-x="388" 
d="M85 -158v108h208v-76c0 -20 -4 -38 -13 -54c-8 -17 -23 -30 -44 -40s-58 -15 -111 -15v45c41 4 53 15 56 32h-96z" />
    <glyph glyph-name="commaaccent.alt" horiz-adv-x="388" 
d="M298 732v-108h-208v76c0 20 4 38 12 54c9 17 24 30 45 40s58 15 111 15v-45c-41 -4 -53 -15 -56 -32h96z" />
    <glyph glyph-name="caron.alt" horiz-adv-x="278" 
d="M43 572l35 160h200l-83 -160h-152z" />
    <glyph glyph-name="Amacron" unicode="&#x100;" horiz-adv-x="852" 
d="M-28 0l310 714h291l307 -714h-255l-43 116h-312l-43 -116h-255zM526 264l-99 270h-2l-99 -270h200zM166 792v116h526v-116h-526z" />
    <glyph glyph-name="Abreve" unicode="&#x102;" horiz-adv-x="852" 
d="M-28 0l310 714h291l307 -714h-255l-43 116h-312l-43 -116h-255zM526 264l-99 270h-2l-99 -270h200zM205 928h116c4 -19 15 -32 33 -40c19 -8 44 -12 75 -12c64 0 100 13 108 52h116c-8 -55 -31 -96 -69 -121c-39 -25 -90 -35 -155 -35c-131 0 -208 41 -224 156z" />
    <glyph glyph-name="Aogonek" unicode="&#x104;" horiz-adv-x="852" 
d="M880 0h-165c-36 -33 -61 -56 -74 -70c-13 -15 -19 -29 -19 -43c0 -27 15 -38 36 -38c24 0 46 7 70 16l23 -56c-40 -16 -79 -29 -142 -29c-88 0 -125 37 -125 88c0 60 61 103 141 132l-43 116h-312l-43 -116h-255l310 714h291zM526 264l-99 270h-2l-99 -270h200z" />
    <glyph glyph-name="Cacute" unicode="&#x106;" horiz-adv-x="963" 
d="M672 275h264c-29 -155 -113 -297 -452 -297c-303 0 -449 132 -449 379c0 239 139 379 449 379c219 0 397 -49 450 -297h-265c-14 52 -49 137 -184 137c-149 0 -198 -101 -198 -219s44 -219 198 -219c108 0 171 53 187 137zM397 780l91 140h258l-149 -140h-200z" />
    <glyph glyph-name="Ccircumflex" unicode="&#x108;" horiz-adv-x="963" 
d="M672 275h264c-29 -155 -113 -297 -452 -297c-303 0 -449 132 -449 379c0 239 139 379 449 379c219 0 397 -49 450 -297h-265c-14 52 -49 137 -184 137c-149 0 -198 -101 -198 -219s44 -219 198 -219c108 0 171 53 187 137zM203 780l149 140h296l149 -140h-234l-71 77
l-71 -77h-218z" />
    <glyph glyph-name="Ccaron" unicode="&#x10c;" horiz-adv-x="963" 
d="M672 275h264c-29 -155 -113 -297 -452 -297c-303 0 -449 132 -449 379c0 239 139 379 449 379c219 0 397 -49 450 -297h-265c-14 52 -49 137 -184 137c-149 0 -198 -101 -198 -219s44 -219 198 -219c108 0 171 53 187 137zM332 780l-149 140h234l71 -77l71 77h218
l-149 -140h-296z" />
    <glyph glyph-name="Cdotaccent" unicode="&#x10a;" horiz-adv-x="963" 
d="M672 275h264c-29 -155 -113 -297 -452 -297c-303 0 -449 132 -449 379c0 239 139 379 449 379c219 0 397 -49 450 -297h-265c-14 52 -49 137 -184 137c-149 0 -198 -101 -198 -219s44 -219 198 -219c108 0 171 53 187 137zM380 786v128h212v-128h-212z" />
    <glyph glyph-name="Dcaron" unicode="&#x10e;" horiz-adv-x="963" 
d="M72 0v714h516c223 0 340 -117 340 -357c0 -280 -166 -357 -371 -357h-485zM310 554v-394h199c136 0 173 99 173 198c0 133 -64 196 -192 196h-180zM303 780l-149 140h234l71 -77l71 77h218l-149 -140h-296z" />
    <glyph glyph-name="Ecaron" unicode="&#x11a;" horiz-adv-x="815" 
d="M72 0v714h715v-154h-477v-129h447v-148h-447v-129h477v-154h-715zM276 780l-149 140h234l71 -77l71 77h218l-149 -140h-296z" />
    <glyph glyph-name="Emacron" unicode="&#x112;" horiz-adv-x="815" 
d="M72 0v714h715v-154h-477v-129h447v-148h-447v-129h477v-154h-715zM166 792v116h526v-116h-526z" />
    <glyph glyph-name="Ebreve" unicode="&#x114;" horiz-adv-x="815" 
d="M72 0v714h715v-154h-477v-129h447v-148h-447v-129h477v-154h-715zM200 928h116c4 -19 15 -32 33 -40c19 -8 44 -12 75 -12c64 0 100 13 108 52h116c-8 -55 -31 -96 -69 -121c-39 -25 -90 -35 -155 -35c-131 0 -208 41 -224 156z" />
    <glyph glyph-name="Edotaccent" unicode="&#x116;" horiz-adv-x="815" 
d="M72 0v714h715v-154h-477v-129h447v-148h-447v-129h477v-154h-715zM323 786v128h212v-128h-212z" />
    <glyph glyph-name="Eogonek" unicode="&#x118;" horiz-adv-x="815" 
d="M787 0h-34c-36 -33 -61 -56 -74 -70c-13 -15 -19 -29 -19 -43c0 -27 15 -38 36 -38c24 0 46 7 70 16l23 -56c-40 -16 -79 -29 -142 -29c-88 0 -125 37 -125 88c0 60 61 103 141 132h-591v714h715v-154h-477v-129h447v-148h-447v-129h477v-154z" />
    <glyph glyph-name="Gcircumflex" unicode="&#x11c;" horiz-adv-x="1000" 
d="M548 257v148h384v-405h-111l-29 74c-32 -34 -123 -96 -308 -96c-312 0 -449 132 -449 379c0 211 139 379 448 379c196 0 420 -51 449 -257h-269c-16 55 -58 103 -170 103c-147 0 -212 -100 -212 -226c0 -124 65 -224 212 -224c117 0 178 44 201 125h-146zM204 780
l149 140h296l149 -140h-234l-71 77l-71 -77h-218z" />
    <glyph glyph-name="Gbreve" unicode="&#x11e;" horiz-adv-x="1000" 
d="M548 257v148h384v-405h-111l-29 74c-32 -34 -123 -96 -308 -96c-312 0 -449 132 -449 379c0 211 139 379 448 379c196 0 420 -51 449 -257h-269c-16 55 -58 103 -170 103c-147 0 -212 -100 -212 -226c0 -124 65 -224 212 -224c117 0 178 44 201 125h-146zM272 928h116
c4 -19 15 -32 33 -40c19 -8 44 -12 75 -12c64 0 100 13 108 52h116c-8 -55 -31 -96 -69 -121c-39 -25 -90 -35 -155 -35c-131 0 -208 41 -224 156z" />
    <glyph glyph-name="Gdotaccent" unicode="&#x120;" horiz-adv-x="1000" 
d="M548 257v148h384v-405h-111l-29 74c-32 -34 -123 -96 -308 -96c-312 0 -449 132 -449 379c0 211 139 379 448 379c196 0 420 -51 449 -257h-269c-16 55 -58 103 -170 103c-147 0 -212 -100 -212 -226c0 -124 65 -224 212 -224c117 0 178 44 201 125h-146zM387 786v128
h212v-128h-212z" />
    <glyph glyph-name="Gcommaaccent" unicode="&#x122;" horiz-adv-x="1000" 
d="M548 257v148h384v-405h-111l-29 74c-32 -34 -123 -96 -308 -96c-312 0 -449 132 -449 379c0 211 139 379 448 379c196 0 420 -51 449 -257h-269c-16 55 -58 103 -170 103c-147 0 -212 -100 -212 -226c0 -124 65 -224 212 -224c117 0 178 44 201 125h-146zM375 -158v108
h208v-76c0 -20 -4 -38 -13 -54c-8 -17 -23 -30 -44 -40s-58 -15 -111 -15v45c41 4 53 15 56 32h-96z" />
    <glyph glyph-name="Hcircumflex" unicode="&#x124;" horiz-adv-x="981" 
d="M671 0v299h-361v-299h-238v714h238v-255h361v255h238v-714h-238zM198 780l149 140h296l149 -140h-234l-71 77l-71 -77h-218z" />
    <glyph glyph-name="Hbar" unicode="&#x126;" horiz-adv-x="981" 
d="M671 0v289h-361v-289h-238v714h238v-124h361v124h238v-714h-238zM310 439h361v60h-361v-60z" />
    <glyph glyph-name="Itilde" unicode="&#x128;" horiz-adv-x="388" 
d="M75 0v714h238v-714h-238zM22 783h-96c27 115 94 145 162 145c19 0 39 -2 71 -9l139 -29c11 -3 19 -5 28 -5c27 0 36 20 43 35h93c-11 -76 -48 -148 -141 -148c-41 0 -71 6 -193 35c-23 5 -49 12 -60 12c-31 0 -41 -17 -46 -36z" />
    <glyph glyph-name="Imacron" unicode="&#x12a;" horiz-adv-x="388" 
d="M75 0v714h238v-714h-238zM-69 792v116h526v-116h-526z" />
    <glyph glyph-name="Idotaccent" unicode="&#x130;" horiz-adv-x="388" 
d="M75 0v714h238v-714h-238zM89 786v128h212v-128h-212z" />
    <glyph glyph-name="Iogonek" unicode="&#x12e;" horiz-adv-x="388" 
d="M313 0h-33c-36 -33 -61 -56 -74 -70c-13 -15 -19 -29 -19 -43c0 -27 15 -38 36 -38c24 0 46 7 70 16l23 -56c-40 -16 -79 -29 -142 -29c-88 0 -125 37 -125 88c0 60 61 103 141 132h-115v714h238v-714z" />
    <glyph glyph-name="Jcircumflex" unicode="&#x134;" horiz-adv-x="741" 
d="M9 256v30h238c0 -106 13 -154 97 -154c85 0 99 50 99 130v452h238v-466c0 -140 -45 -270 -321 -270c-209 0 -351 50 -351 278zM263 780l149 140h296l149 -140h-234l-71 77l-71 -77h-218z" />
    <glyph glyph-name="Kcommaaccent" unicode="&#x136;" horiz-adv-x="926" 
d="M72 0v714h238v-280l298 280h317l-323 -281l348 -433h-318l-221 285l-101 -84v-201h-238zM360 -158v108h208v-76c0 -20 -4 -38 -13 -54c-8 -17 -23 -30 -44 -40s-58 -15 -111 -15v45c41 4 53 15 56 32h-96z" />
    <glyph glyph-name="Lacute" unicode="&#x139;" horiz-adv-x="760" 
d="M72 0v714h238v-548h435v-166h-673zM92 780l91 140h258l-149 -140h-200z" />
    <glyph glyph-name="Lcaron" unicode="&#x13d;" horiz-adv-x="760" 
d="M72 0v714h238v-548h435v-166h-673zM388 572l35 160h200l-83 -160h-152z" />
    <glyph glyph-name="Lcommaaccent" unicode="&#x13b;" horiz-adv-x="760" 
d="M72 0v714h238v-548h435v-166h-673zM292 -158v108h208v-76c0 -20 -4 -38 -13 -54c-8 -17 -23 -30 -44 -40s-58 -15 -111 -15v45c41 4 53 15 56 32h-96z" />
    <glyph glyph-name="Nacute" unicode="&#x143;" horiz-adv-x="981" 
d="M72 0v714h274l331 -447h2v447h230v-714h-263l-342 451h-2v-451h-230zM397 780l91 140h258l-149 -140h-200z" />
    <glyph glyph-name="Ncaron" unicode="&#x147;" horiz-adv-x="981" 
d="M72 0v714h274l331 -447h2v447h230v-714h-263l-342 451h-2v-451h-230zM341 780l-149 140h234l71 -77l71 77h218l-149 -140h-296z" />
    <glyph glyph-name="Ncommaaccent" unicode="&#x145;" horiz-adv-x="981" 
d="M72 0v714h274l331 -447h2v447h230v-714h-263l-342 451h-2v-451h-230zM383 -158v108h208v-76c0 -20 -4 -38 -13 -54c-8 -17 -23 -30 -44 -40s-58 -15 -111 -15v45c41 4 53 15 56 32h-96z" />
    <glyph glyph-name="Omacron" unicode="&#x14c;" horiz-adv-x="1000" 
d="M35 357c0 296 213 379 465 379s465 -83 465 -379s-213 -379 -465 -379s-465 83 -465 379zM287 357c0 -150 86 -219 213 -219c128 0 213 69 213 219c0 149 -85 219 -213 219c-127 0 -213 -71 -213 -219zM237 792v116h526v-116h-526z" />
    <glyph glyph-name="Obreve" unicode="&#x14e;" horiz-adv-x="1000" 
d="M35 357c0 296 213 379 465 379s465 -83 465 -379s-213 -379 -465 -379s-465 83 -465 379zM287 357c0 -150 86 -219 213 -219c128 0 213 69 213 219c0 149 -85 219 -213 219c-127 0 -213 -71 -213 -219zM276 928h116c4 -19 15 -32 33 -40c19 -8 44 -12 75 -12
c64 0 100 13 108 52h116c-8 -55 -31 -96 -69 -121c-39 -25 -90 -35 -155 -35c-131 0 -208 41 -224 156z" />
    <glyph glyph-name="Ohungarumlaut" unicode="&#x150;" horiz-adv-x="1000" 
d="M35 357c0 296 213 379 465 379s465 -83 465 -379s-213 -379 -465 -379s-465 83 -465 379zM287 357c0 -150 86 -219 213 -219c128 0 213 69 213 219c0 149 -85 219 -213 219c-127 0 -213 -71 -213 -219zM258 780l91 140h258l-149 -140h-200zM563 780l91 140h258l-149 -140
h-200z" />
    <glyph glyph-name="Racute" unicode="&#x154;" horiz-adv-x="926" 
d="M310 554v-156h229c59 0 89 30 89 79c0 47 -30 77 -89 77h-229zM72 0v714h572c176 0 239 -80 239 -199c0 -96 -50 -147 -114 -163v-2c45 -15 79 -51 86 -128c11 -140 15 -187 45 -222h-261c-13 31 -14 73 -14 106c0 112 -37 132 -97 132h-218v-238h-238zM339 780l91 140
h258l-149 -140h-200z" />
    <glyph glyph-name="Rcaron" unicode="&#x158;" horiz-adv-x="926" 
d="M310 554v-156h229c59 0 89 30 89 79c0 47 -30 77 -89 77h-229zM72 0v714h572c176 0 239 -80 239 -199c0 -96 -50 -147 -114 -163v-2c45 -15 79 -51 86 -128c11 -140 15 -187 45 -222h-261c-13 31 -14 73 -14 106c0 112 -37 132 -97 132h-218v-238h-238zM299 780l-149 140
h234l71 -77l71 77h218l-149 -140h-296z" />
    <glyph glyph-name="Rcommaaccent" unicode="&#x156;" horiz-adv-x="926" 
d="M310 554v-156h229c59 0 89 30 89 79c0 47 -30 77 -89 77h-229zM72 0v714h572c176 0 239 -80 239 -199c0 -96 -50 -147 -114 -163v-2c45 -15 79 -51 86 -128c11 -140 15 -187 45 -222h-261c-13 31 -14 73 -14 106c0 112 -37 132 -97 132h-218v-238h-238zM370 -158v108h208
v-76c0 -20 -4 -38 -13 -54c-8 -17 -23 -30 -44 -40s-58 -15 -111 -15v45c41 4 53 15 56 32h-96z" />
    <glyph glyph-name="Sacute" unicode="&#x15a;" horiz-adv-x="889" 
d="M836 505h-270c-8 49 -45 83 -155 83c-80 0 -124 -23 -124 -70c0 -23 18 -38 53 -44c59 -11 243 -38 313 -49c133 -23 213 -78 213 -203c0 -242 -314 -244 -412 -244c-242 0 -418 43 -431 242h282c5 -54 37 -88 160 -88c60 0 125 14 125 75c0 37 -30 51 -113 64l-238 36
c-147 21 -204 95 -204 202c0 93 58 227 371 227c260 0 414 -63 430 -231zM352 780l91 140h258l-149 -140h-200z" />
    <glyph glyph-name="Scircumflex" unicode="&#x15c;" horiz-adv-x="889" 
d="M836 505h-270c-8 49 -45 83 -155 83c-80 0 -124 -23 -124 -70c0 -23 18 -38 53 -44c59 -11 243 -38 313 -49c133 -23 213 -78 213 -203c0 -242 -314 -244 -412 -244c-242 0 -418 43 -431 242h282c5 -54 37 -88 160 -88c60 0 125 14 125 75c0 37 -30 51 -113 64l-238 36
c-147 21 -204 95 -204 202c0 93 58 227 371 227c260 0 414 -63 430 -231zM150 780l149 140h296l149 -140h-234l-71 77l-71 -77h-218z" />
    <glyph glyph-name="Scedilla" unicode="&#x15e;" horiz-adv-x="889" 
d="M287 -197l18 53c24 -8 56 -16 81 -16c31 0 47 17 47 34s-19 25 -39 25c-16 0 -27 -4 -36 -7l-25 20l47 68c-33 1 -64 4 -94 8c-151 20 -253 83 -263 232h282c5 -54 37 -88 160 -88c60 0 125 14 125 75c0 37 -30 51 -113 64l-238 36c-147 21 -204 95 -204 202
c0 93 58 227 371 227c260 0 414 -63 430 -231h-270c-8 49 -45 83 -155 83c-80 0 -124 -23 -124 -70c0 -23 18 -38 53 -44c59 -11 243 -38 313 -49c133 -23 213 -78 213 -203c0 -242 -314 -244 -412 -244h-6l-21 -29c19 3 35 5 47 5c40 0 99 -20 99 -79
c0 -60 -51 -95 -143 -95c-56 0 -104 8 -143 23z" />
    <glyph glyph-name="Scedilla" unicode="&#xf6c1;" horiz-adv-x="889" 
d="M287 -197l18 53c24 -8 56 -16 81 -16c31 0 47 17 47 34s-19 25 -39 25c-16 0 -27 -4 -36 -7l-25 20l47 68c-33 1 -64 4 -94 8c-151 20 -253 83 -263 232h282c5 -54 37 -88 160 -88c60 0 125 14 125 75c0 37 -30 51 -113 64l-238 36c-147 21 -204 95 -204 202
c0 93 58 227 371 227c260 0 414 -63 430 -231h-270c-8 49 -45 83 -155 83c-80 0 -124 -23 -124 -70c0 -23 18 -38 53 -44c59 -11 243 -38 313 -49c133 -23 213 -78 213 -203c0 -242 -314 -244 -412 -244h-6l-21 -29c19 3 35 5 47 5c40 0 99 -20 99 -79
c0 -60 -51 -95 -143 -95c-56 0 -104 8 -143 23z" />
    <glyph glyph-name="Scommaaccent" unicode="&#x218;" horiz-adv-x="889" 
d="M836 505h-270c-8 49 -45 83 -155 83c-80 0 -124 -23 -124 -70c0 -23 18 -38 53 -44c59 -11 243 -38 313 -49c133 -23 213 -78 213 -203c0 -242 -314 -244 -412 -244c-242 0 -418 43 -431 242h282c5 -54 37 -88 160 -88c60 0 125 14 125 75c0 37 -30 51 -113 64l-238 36
c-147 21 -204 95 -204 202c0 93 58 227 371 227c260 0 414 -63 430 -231zM331 -158v108h208v-76c0 -20 -4 -38 -13 -54c-8 -17 -23 -30 -44 -40s-58 -15 -111 -15v45c41 4 53 15 56 32h-96z" />
    <glyph glyph-name="Tcaron" unicode="&#x164;" horiz-adv-x="760" 
d="M-1 554v160h762v-160h-262v-554h-238v554h-262zM235 780l-149 140h234l71 -77l71 77h218l-149 -140h-296z" />
    <glyph glyph-name="Tcommaaccent" unicode="&#x162;" horiz-adv-x="760" 
d="M-1 554v160h762v-160h-262v-554h-238v554h-262zM274 -158v108h208v-76c0 -20 -4 -38 -13 -54c-8 -17 -23 -30 -44 -40s-58 -15 -111 -15v45c41 4 53 15 56 32h-96z" />
    <glyph glyph-name="Tbar" unicode="&#x166;" horiz-adv-x="760" 
d="M90 345v91h171v118h-262v160h762v-160h-262v-118h170v-91h-170v-345h-238v345h-171z" />
    <glyph glyph-name="Utilde" unicode="&#x168;" horiz-adv-x="926" 
d="M62 252v462h238v-423c0 -116 54 -153 163 -153s163 37 163 153v423h238v-462c0 -197 -148 -274 -401 -274s-401 77 -401 274zM291 783h-96c27 115 94 145 162 145c19 0 39 -2 71 -9l139 -29c11 -3 19 -5 28 -5c27 0 36 20 43 35h93c-11 -76 -48 -148 -141 -148
c-41 0 -71 6 -193 35c-23 5 -49 12 -60 12c-31 0 -41 -17 -46 -36z" />
    <glyph glyph-name="Umacron" unicode="&#x16a;" horiz-adv-x="926" 
d="M62 252v462h238v-423c0 -116 54 -153 163 -153s163 37 163 153v423h238v-462c0 -197 -148 -274 -401 -274s-401 77 -401 274zM202 792v116h526v-116h-526z" />
    <glyph glyph-name="Ubreve" unicode="&#x16c;" horiz-adv-x="926" 
d="M62 252v462h238v-423c0 -116 54 -153 163 -153s163 37 163 153v423h238v-462c0 -197 -148 -274 -401 -274s-401 77 -401 274zM242 928h116c4 -19 15 -32 33 -40c19 -8 44 -12 75 -12c64 0 100 13 108 52h116c-8 -55 -31 -96 -69 -121c-39 -25 -90 -35 -155 -35
c-131 0 -208 41 -224 156z" />
    <glyph glyph-name="Uring" unicode="&#x16e;" horiz-adv-x="926" 
d="M62 252v462h238v-423c0 -116 54 -153 163 -153s163 37 163 153v423h238v-462c0 -197 -148 -274 -401 -274s-401 77 -401 274zM330 875c0 76 60 128 134 128s134 -52 134 -128s-60 -127 -134 -127s-134 51 -134 127zM406 875c0 -32 26 -58 58 -58s58 26 58 58
s-26 58 -58 58s-58 -26 -58 -58z" />
    <glyph glyph-name="Uhungarumlaut" unicode="&#x170;" horiz-adv-x="926" 
d="M62 252v462h238v-423c0 -116 54 -153 163 -153s163 37 163 153v423h238v-462c0 -197 -148 -274 -401 -274s-401 77 -401 274zM229 780l91 140h258l-149 -140h-200zM534 780l91 140h258l-149 -140h-200z" />
    <glyph glyph-name="Uogonek" unicode="&#x172;" horiz-adv-x="926" 
d="M62 252v462h238v-423c0 -116 54 -153 163 -153s163 37 163 153v423h238v-462c0 -147 -83 -229 -232 -259c-32 -7 -67 -11 -106 -13c-24 -23 -41 -39 -51 -50c-13 -15 -19 -29 -19 -43c0 -27 15 -38 36 -38c24 0 46 7 70 16l23 -56c-40 -16 -79 -29 -142 -29
c-88 0 -125 37 -125 88c0 30 13 56 40 78c15 12 33 23 52 33c-43 3 -82 7 -117 14c-148 30 -231 112 -231 259z" />
    <glyph glyph-name="Wcircumflex" unicode="&#x174;" horiz-adv-x="1148" 
d="M214 0l-214 714h230l112 -482h2l129 482h202l129 -482h2l112 482h230l-214 -714h-235l-124 465h-2l-124 -465h-235zM277 780l149 140h296l149 -140h-234l-71 77l-71 -77h-218z" />
    <glyph glyph-name="Ycircumflex" unicode="&#x176;" 
d="M288 0v225l-317 489h276l160 -303l160 303h276l-317 -489v-225h-238zM118 780l149 140h296l149 -140h-234l-71 77l-71 -77h-218z" />
    <glyph glyph-name="Zacute" unicode="&#x179;" 
d="M18 0v137l450 417h-419v160h738v-140l-447 -414h440v-160h-762zM318 780l91 140h258l-149 -140h-200z" />
    <glyph glyph-name="Zdotaccent" unicode="&#x17b;" 
d="M18 0v137l450 417h-419v160h738v-140l-447 -414h440v-160h-762zM311 786v128h212v-128h-212z" />
    <glyph glyph-name="amacron" unicode="&#x101;" 
d="M276 372h-212c19 161 174 184 339 184c197 0 345 -32 345 -184v-274c0 -46 6 -66 22 -98h-212c-7 16 -10 35 -11 50c-61 -59 -147 -72 -255 -72c-175 0 -265 56 -265 169c0 123 82 166 234 177l211 14c55 4 64 16 64 44c0 39 -41 58 -134 58c-79 0 -115 -21 -126 -68z
M542 220v33c-17 -5 -44 -10 -81 -15l-143 -17c-43 -5 -61 -22 -61 -55c0 -43 38 -66 95 -66c123 0 190 45 190 120zM151 612v116h526v-116h-526z" />
    <glyph glyph-name="abreve" unicode="&#x103;" 
d="M276 372h-212c19 161 174 184 339 184c197 0 345 -32 345 -184v-274c0 -46 6 -66 22 -98h-212c-7 16 -10 35 -11 50c-61 -59 -147 -72 -255 -72c-175 0 -265 56 -265 169c0 123 82 166 234 177l211 14c55 4 64 16 64 44c0 39 -41 58 -134 58c-79 0 -115 -21 -126 -68z
M542 220v33c-17 -5 -44 -10 -81 -15l-143 -17c-43 -5 -61 -22 -61 -55c0 -43 38 -66 95 -66c123 0 190 45 190 120zM186 748h116c4 -19 15 -32 33 -40c19 -8 44 -12 75 -12c64 0 100 13 108 52h116c-8 -55 -31 -96 -69 -121c-39 -25 -90 -35 -155 -35
c-131 0 -208 41 -224 156z" />
    <glyph glyph-name="aogonek" unicode="&#x105;" 
d="M276 372h-212c19 161 174 184 339 184c197 0 345 -32 345 -184v-274c0 -46 6 -66 22 -98h-109c-37 -33 -61 -56 -71 -70c-10 -15 -15 -29 -15 -43c0 -27 14 -38 35 -38c23 0 43 7 66 16l22 -56c-37 -16 -75 -29 -135 -29c-84 0 -119 37 -119 88c0 30 12 56 37 78
c25 21 51 39 77 54c-7 16 -10 35 -11 50c-61 -59 -147 -72 -255 -72c-175 0 -265 56 -265 169c0 123 82 166 234 177l211 14c55 4 64 16 64 44c0 39 -41 58 -134 58c-79 0 -115 -21 -126 -68zM542 220v33c-17 -5 -44 -10 -81 -15l-143 -17c-43 -5 -61 -22 -61 -55
c0 -43 38 -66 95 -66c123 0 190 45 190 120z" />
    <glyph glyph-name="cacute" unicode="&#x107;" 
d="M563 221h224c-32 -156 -137 -243 -375 -243c-240 0 -380 93 -380 293c0 196 147 293 380 293c202 0 346 -61 365 -233h-218c-11 60 -53 93 -144 93c-100 0 -159 -54 -159 -153s57 -153 160 -153c80 0 132 34 147 103zM326 600l91 140h258l-149 -140h-200z" />
    <glyph glyph-name="ccircumflex" unicode="&#x109;" 
d="M563 221h224c-32 -156 -137 -243 -375 -243c-240 0 -380 93 -380 293c0 196 147 293 380 293c202 0 346 -61 365 -233h-218c-11 60 -53 93 -144 93c-100 0 -159 -54 -159 -153s57 -153 160 -153c80 0 132 34 147 103zM121 600l149 140h296l149 -140h-234l-71 77l-71 -77
h-218z" />
    <glyph glyph-name="ccaron" unicode="&#x10d;" 
d="M563 221h224c-32 -156 -137 -243 -375 -243c-240 0 -380 93 -380 293c0 196 147 293 380 293c202 0 346 -61 365 -233h-218c-11 60 -53 93 -144 93c-100 0 -159 -54 -159 -153s57 -153 160 -153c80 0 132 34 147 103zM261 600l-149 140h234l71 -77l71 77h218l-149 -140
h-296z" />
    <glyph glyph-name="cdotaccent" unicode="&#x10b;" 
d="M563 221h224c-32 -156 -137 -243 -375 -243c-240 0 -380 93 -380 293c0 196 147 293 380 293c202 0 346 -61 365 -233h-218c-11 60 -53 93 -144 93c-100 0 -159 -54 -159 -153s57 -153 160 -153c80 0 132 34 147 103zM305 606v128h212v-128h-212z" />
    <glyph glyph-name="dcaron" unicode="&#x10f;" horiz-adv-x="998" 
d="M552 0v64h-2c-45 -56 -119 -86 -206 -86c-192 0 -317 106 -317 294c0 156 115 284 315 284c95 0 166 -31 202 -83h2v257h212v-730h-206zM546 270c0 84 -51 138 -151 138c-97 0 -150 -47 -150 -138s53 -138 150 -138c100 0 151 54 151 138zM803 565l35 160h200l-83 -160
h-152z" />
    <glyph glyph-name="dcroat" unicode="&#x111;" horiz-adv-x="884" 
d="M552 0v64h-2c-45 -56 -119 -86 -206 -86c-192 0 -317 106 -317 294c0 156 115 284 315 284c95 0 166 -31 202 -83h2v107h-166v91h166v59h212v-59h121v-91h-121v-580h-206zM546 270c0 84 -51 138 -151 138c-97 0 -150 -47 -150 -138s53 -138 150 -138
c100 0 151 54 151 138z" />
    <glyph glyph-name="ecaron" unicode="&#x11b;" 
d="M250 331h314c-14 60 -56 111 -157 111c-100 0 -146 -51 -157 -111zM548 161h224c-26 -90 -129 -183 -360 -183c-244 0 -380 93 -380 294c0 192 150 292 374 292c232 0 376 -101 376 -327v-16h-532c11 -70 61 -121 170 -121c68 0 103 29 128 61zM269 600l-149 140h234
l71 -77l71 77h218l-149 -140h-296z" />
    <glyph glyph-name="emacron" unicode="&#x113;" 
d="M250 331h314c-14 60 -56 111 -157 111c-100 0 -146 -51 -157 -111zM548 161h224c-26 -90 -129 -183 -360 -183c-244 0 -380 93 -380 294c0 192 150 292 374 292c232 0 376 -101 376 -327v-16h-532c11 -70 61 -121 170 -121c68 0 103 29 128 61zM153 612v116h526v-116
h-526z" />
    <glyph glyph-name="ebreve" unicode="&#x115;" 
d="M250 331h314c-14 60 -56 111 -157 111c-100 0 -146 -51 -157 -111zM548 161h224c-26 -90 -129 -183 -360 -183c-244 0 -380 93 -380 294c0 192 150 292 374 292c232 0 376 -101 376 -327v-16h-532c11 -70 61 -121 170 -121c68 0 103 29 128 61zM186 748h116
c4 -19 15 -32 33 -40c19 -8 44 -12 75 -12c64 0 100 13 108 52h116c-8 -55 -31 -96 -69 -121c-39 -25 -90 -35 -155 -35c-131 0 -208 41 -224 156z" />
    <glyph glyph-name="edotaccent" unicode="&#x117;" 
d="M250 331h314c-14 60 -56 111 -157 111c-100 0 -146 -51 -157 -111zM548 161h224c-26 -90 -129 -183 -360 -183c-244 0 -380 93 -380 294c0 192 150 292 374 292c232 0 376 -101 376 -327v-16h-532c11 -70 61 -121 170 -121c68 0 103 29 128 61zM304 606v128h212v-128
h-212z" />
    <glyph glyph-name="eogonek" unicode="&#x119;" 
d="M548 161h224c-20 -69 -83 -135 -210 -167c-25 -6 -54 -10 -85 -13c-24 -23 -41 -40 -52 -51c-13 -15 -19 -29 -19 -43c0 -27 15 -38 36 -38c24 0 46 7 70 16l23 -56c-40 -16 -79 -29 -142 -29c-88 0 -125 37 -125 88c0 30 13 56 40 78c15 12 33 23 53 34
c-97 6 -174 29 -231 69c-65 48 -98 122 -98 223c0 192 150 292 374 292c232 0 376 -101 376 -327v-16h-532c11 -70 61 -121 170 -121c68 0 103 29 128 61zM250 331h314c-14 60 -56 111 -157 111c-100 0 -146 -51 -157 -111z" />
    <glyph glyph-name="gcircumflex" unicode="&#x11d;" horiz-adv-x="833" 
d="M571 473v69h206v-493c0 -181 -101 -257 -361 -257c-213 0 -351 37 -372 186h234c11 -49 66 -64 129 -64c119 0 158 42 158 141v38c-48 -48 -134 -69 -217 -69c-229 0 -321 117 -321 266c0 143 102 266 321 266c95 0 177 -23 221 -83h2zM251 287c0 -72 49 -129 156 -129
c120 0 158 58 158 127c0 76 -49 131 -158 131c-107 0 -156 -57 -156 -129zM132 600l149 140h296l149 -140h-234l-71 77l-71 -77h-218z" />
    <glyph glyph-name="gbreve" unicode="&#x11f;" horiz-adv-x="833" 
d="M571 473v69h206v-493c0 -181 -101 -257 -361 -257c-213 0 -351 37 -372 186h234c11 -49 66 -64 129 -64c119 0 158 42 158 141v38c-48 -48 -134 -69 -217 -69c-229 0 -321 117 -321 266c0 143 102 266 321 266c95 0 177 -23 221 -83h2zM251 287c0 -72 49 -129 156 -129
c120 0 158 58 158 127c0 76 -49 131 -158 131c-107 0 -156 -57 -156 -129zM200 748h116c4 -19 15 -32 33 -40c19 -8 44 -12 75 -12c64 0 100 13 108 52h116c-8 -55 -31 -96 -69 -121c-39 -25 -90 -35 -155 -35c-131 0 -208 41 -224 156z" />
    <glyph glyph-name="gdotaccent" unicode="&#x121;" horiz-adv-x="833" 
d="M571 473v69h206v-493c0 -181 -101 -257 -361 -257c-213 0 -351 37 -372 186h234c11 -49 66 -64 129 -64c119 0 158 42 158 141v38c-48 -48 -134 -69 -217 -69c-229 0 -321 117 -321 266c0 143 102 266 321 266c95 0 177 -23 221 -83h2zM251 287c0 -72 49 -129 156 -129
c120 0 158 58 158 127c0 76 -49 131 -158 131c-107 0 -156 -57 -156 -129zM308 606v128h212v-128h-212z" />
    <glyph glyph-name="gcommaaccent" unicode="&#x123;" horiz-adv-x="833" 
d="M571 473v69h206v-493c0 -181 -101 -257 -361 -257c-213 0 -351 37 -372 186h234c11 -49 66 -64 129 -64c119 0 158 42 158 141v38c-48 -48 -134 -69 -217 -69c-229 0 -321 117 -321 266c0 143 102 266 321 266c95 0 177 -23 221 -83h2zM251 287c0 -72 49 -129 156 -129
c120 0 158 58 158 127c0 76 -49 131 -158 131c-107 0 -156 -57 -156 -129zM515 732v-108h-208v76c0 20 4 38 12 54c9 17 24 30 45 40s58 15 111 15v-45c-41 -4 -53 -15 -56 -32h96z" />
    <glyph glyph-name="hcircumflex" unicode="&#x125;" horiz-adv-x="778" 
d="M56 0v732h212v-268h2c37 53 114 92 222 92c133 0 230 -64 230 -199v-357h-212v293c0 69 -38 103 -110 103c-75 0 -132 -42 -132 -130v-266h-212zM89 780l149 140h296l149 -140h-234l-71 77l-71 -77h-218z" />
    <glyph glyph-name="hbar" unicode="&#x127;" horiz-adv-x="848" 
d="M6 580v91h120v61h212v-61h167v-91h-167v-116h2c37 53 114 92 222 92c133 0 230 -64 230 -199v-357h-212v293c0 69 -38 103 -110 103c-75 0 -132 -42 -132 -130v-266h-212v580h-120z" />
    <glyph glyph-name="itilde" unicode="&#x129;" horiz-adv-x="332" 
d="M60 0v542h212v-542h-212zM-5 603h-96c27 115 94 145 162 145c19 0 39 -2 71 -9l139 -29c11 -3 19 -5 28 -5c27 0 36 20 43 35h93c-11 -76 -48 -148 -141 -148c-41 0 -71 6 -193 35c-23 5 -49 12 -60 12c-31 0 -41 -17 -46 -36z" />
    <glyph glyph-name="imacron" unicode="&#x12b;" horiz-adv-x="332" 
d="M60 0v542h212v-542h-212zM-94 612v116h526v-116h-526z" />
    <glyph glyph-name="iogonek" unicode="&#x12f;" horiz-adv-x="332" 
d="M272 0h-20c-35 -33 -59 -56 -72 -70c-12 -15 -18 -29 -18 -43c0 -27 14 -38 35 -38c23 0 44 7 67 16l23 -56c-39 -16 -77 -29 -138 -29c-85 0 -121 37 -121 88c0 60 58 103 137 132h-105v542h212v-542zM60 604v128h212v-128h-212z" />
    <glyph glyph-name="dotlessj" unicode="&#xf6be;" horiz-adv-x="352" 
d="M-27 -193v145h25c74 0 82 10 82 70v520h212v-535c0 -156 -41 -203 -213 -203c-40 0 -78 2 -106 3z" />
    <glyph glyph-name="dotlessj" unicode="&#xfb0f;" horiz-adv-x="352" 
d="M-27 -193v145h25c74 0 82 10 82 70v520h212v-535c0 -156 -41 -203 -213 -203c-40 0 -78 2 -106 3z" />
    <glyph glyph-name="jcircumflex" unicode="&#x135;" horiz-adv-x="352" 
d="M-27 -193v145h25c74 0 82 10 82 70v520h212v-535c0 -156 -41 -203 -213 -203c-40 0 -78 2 -106 3zM-109 600l149 140h296l149 -140h-234l-71 77l-71 -77h-218z" />
    <glyph glyph-name="kcommaaccent" unicode="&#x137;" horiz-adv-x="778" 
d="M56 0v732h212v-379l212 189h287l-250 -201l274 -341h-288l-154 205l-81 -65v-140h-212zM278 -158v108h208v-76c0 -20 -4 -38 -13 -54c-8 -17 -23 -30 -44 -40s-58 -15 -111 -15v45c41 4 53 15 56 32h-96z" />
    <glyph glyph-name="lacute" unicode="&#x13a;" horiz-adv-x="332" 
d="M60 0v732h212v-732h-212zM62 780l91 140h258l-149 -140h-200z" />
    <glyph glyph-name="lcaron" unicode="&#x13e;" horiz-adv-x="511" 
d="M60 0v732h212v-732h-212zM316 572l35 160h200l-83 -160h-152z" />
    <glyph glyph-name="lcommaaccent" unicode="&#x13c;" horiz-adv-x="332" 
d="M60 0v732h212v-732h-212zM62 -158v108h208v-76c0 -20 -4 -38 -13 -54c-8 -17 -23 -30 -44 -40s-58 -15 -111 -15v45c41 4 53 15 56 32h-96z" />
    <glyph glyph-name="nacute" unicode="&#x144;" horiz-adv-x="778" 
d="M56 0v542h206v-78h2c43 53 120 92 228 92c133 0 230 -64 230 -199v-357h-212v293c0 69 -38 103 -110 103c-75 0 -132 -42 -132 -130v-266h-212zM297 600l91 140h258l-149 -140h-200z" />
    <glyph glyph-name="ncaron" unicode="&#x148;" horiz-adv-x="778" 
d="M56 0v542h206v-78h2c43 53 120 92 228 92c133 0 230 -64 230 -199v-357h-212v293c0 69 -38 103 -110 103c-75 0 -132 -42 -132 -130v-266h-212zM240 600l-149 140h234l71 -77l71 77h218l-149 -140h-296z" />
    <glyph glyph-name="ncommaaccent" unicode="&#x146;" horiz-adv-x="778" 
d="M56 0v542h206v-78h2c43 53 120 92 228 92c133 0 230 -64 230 -199v-357h-212v293c0 69 -38 103 -110 103c-75 0 -132 -42 -132 -130v-266h-212zM284 -158v108h208v-76c0 -20 -4 -38 -13 -54c-8 -17 -23 -30 -44 -40s-58 -15 -111 -15v45c41 4 53 15 56 32h-96z" />
    <glyph glyph-name="omacron" unicode="&#x14d;" 
d="M407 424c-96 0 -156 -50 -156 -153s60 -153 156 -153s156 50 156 153s-60 153 -156 153zM27 271c0 193 133 293 380 293s380 -100 380 -293s-133 -293 -380 -293s-380 100 -380 293zM144 612v116h526v-116h-526z" />
    <glyph glyph-name="obreve" unicode="&#x14f;" 
d="M407 424c-96 0 -156 -50 -156 -153s60 -153 156 -153s156 50 156 153s-60 153 -156 153zM27 271c0 193 133 293 380 293s380 -100 380 -293s-133 -293 -380 -293s-380 100 -380 293zM183 748h116c4 -19 15 -32 33 -40c19 -8 44 -12 75 -12c64 0 100 13 108 52h116
c-8 -55 -31 -96 -69 -121c-39 -25 -90 -35 -155 -35c-131 0 -208 41 -224 156z" />
    <glyph glyph-name="ohungarumlaut" unicode="&#x151;" 
d="M407 424c-96 0 -156 -50 -156 -153s60 -153 156 -153s156 50 156 153s-60 153 -156 153zM27 271c0 193 133 293 380 293s380 -100 380 -293s-133 -293 -380 -293s-380 100 -380 293zM161 600l91 140h258l-149 -140h-200zM466 600l91 140h258l-149 -140h-200z" />
    <glyph glyph-name="racute" unicode="&#x155;" horiz-adv-x="574" 
d="M60 0v542h209v-107h2c43 72 125 121 221 121c23 0 51 -2 72 -6v-198c-27 11 -77 18 -117 18c-121 0 -175 -61 -175 -160v-210h-212zM66 600l91 140h258l-149 -140h-200z" />
    <glyph glyph-name="rcommaaccent" unicode="&#x157;" horiz-adv-x="574" 
d="M60 0v542h209v-107h2c43 72 125 121 221 121c23 0 51 -2 72 -6v-198c-27 11 -77 18 -117 18c-121 0 -175 -61 -175 -160v-210h-212zM61 -158v108h208v-76c0 -20 -4 -38 -13 -54c-8 -17 -23 -30 -44 -40s-58 -15 -111 -15v45c41 4 53 15 56 32h-96z" />
    <glyph glyph-name="rcaron" unicode="&#x159;" horiz-adv-x="574" 
d="M60 0v542h209v-107h2c43 72 125 121 221 121c23 0 51 -2 72 -6v-198c-27 11 -77 18 -117 18c-121 0 -175 -61 -175 -160v-210h-212zM160 600l-149 140h234l71 -77l71 77h218l-149 -140h-296z" />
    <glyph glyph-name="sacute" unicode="&#x15b;" horiz-adv-x="759" 
d="M27 169h246c3 -20 11 -35 30 -46s47 -17 94 -17s97 9 97 48c0 29 -21 36 -73 43l-189 23c-125 15 -187 59 -187 151c0 147 126 193 329 193c145 0 325 -26 338 -180h-238c-3 23 -17 38 -38 46c-21 9 -49 12 -76 12c-61 0 -97 -14 -97 -51c0 -17 13 -31 68 -38l183 -20
c147 -16 218 -60 218 -167c0 -129 -120 -188 -347 -188c-150 0 -353 27 -358 191zM293 600l91 140h258l-149 -140h-200z" />
    <glyph glyph-name="scircumflex" unicode="&#x15d;" horiz-adv-x="759" 
d="M27 169h246c3 -20 11 -35 30 -46s47 -17 94 -17s97 9 97 48c0 29 -21 36 -73 43l-189 23c-125 15 -187 59 -187 151c0 147 126 193 329 193c145 0 325 -26 338 -180h-238c-3 23 -17 38 -38 46c-21 9 -49 12 -76 12c-61 0 -97 -14 -97 -51c0 -17 13 -31 68 -38l183 -20
c147 -16 218 -60 218 -167c0 -129 -120 -188 -347 -188c-150 0 -353 27 -358 191zM85 600l149 140h296l149 -140h-234l-71 77l-71 -77h-218z" />
    <glyph glyph-name="scedilla" unicode="&#x15f;" horiz-adv-x="759" 
d="M229 -197l18 53c24 -8 56 -16 81 -16c31 0 47 17 47 34s-19 25 -39 25c-16 0 -27 -4 -36 -7l-25 20l48 68c-19 1 -38 3 -57 5c-120 14 -235 61 -239 184h246c3 -20 11 -35 30 -46s47 -17 94 -17s97 9 97 48c0 29 -21 36 -73 43l-189 23c-125 15 -187 59 -187 151
c0 147 126 193 329 193c145 0 325 -26 338 -180h-238c-3 23 -17 38 -38 46c-21 9 -49 12 -76 12c-61 0 -97 -14 -97 -51c0 -17 13 -31 68 -38l183 -20c147 -16 218 -60 218 -167c0 -65 -30 -112 -89 -143c-58 -29 -142 -44 -253 -45l-21 -29c19 3 35 5 47 5
c40 0 99 -20 99 -79c0 -60 -51 -95 -143 -95c-56 0 -104 8 -143 23z" />
    <glyph glyph-name="scedilla" unicode="&#xf6c2;" horiz-adv-x="759" 
d="M229 -197l18 53c24 -8 56 -16 81 -16c31 0 47 17 47 34s-19 25 -39 25c-16 0 -27 -4 -36 -7l-25 20l48 68c-19 1 -38 3 -57 5c-120 14 -235 61 -239 184h246c3 -20 11 -35 30 -46s47 -17 94 -17s97 9 97 48c0 29 -21 36 -73 43l-189 23c-125 15 -187 59 -187 151
c0 147 126 193 329 193c145 0 325 -26 338 -180h-238c-3 23 -17 38 -38 46c-21 9 -49 12 -76 12c-61 0 -97 -14 -97 -51c0 -17 13 -31 68 -38l183 -20c147 -16 218 -60 218 -167c0 -65 -30 -112 -89 -143c-58 -29 -142 -44 -253 -45l-21 -29c19 3 35 5 47 5
c40 0 99 -20 99 -79c0 -60 -51 -95 -143 -95c-56 0 -104 8 -143 23z" />
    <glyph glyph-name="scommaaccent" unicode="&#x219;" horiz-adv-x="759" 
d="M27 169h246c3 -20 11 -35 30 -46s47 -17 94 -17s97 9 97 48c0 29 -21 36 -73 43l-189 23c-125 15 -187 59 -187 151c0 147 126 193 329 193c145 0 325 -26 338 -180h-238c-3 23 -17 38 -38 46c-21 9 -49 12 -76 12c-61 0 -97 -14 -97 -51c0 -17 13 -31 68 -38l183 -20
c147 -16 218 -60 218 -167c0 -129 -120 -188 -347 -188c-150 0 -353 27 -358 191zM272 -158v108h208v-76c0 -20 -4 -38 -13 -54c-8 -17 -23 -30 -44 -40s-58 -15 -111 -15v45c41 4 53 15 56 32h-96z" />
    <glyph glyph-name="tcaron" unicode="&#x165;" horiz-adv-x="632" 
d="M435 572l35 160h200l-83 -160h-152zM0 402v140h111v172h212v-172h140v-140h-140v-218c0 -48 13 -56 69 -56c27 0 47 1 75 2v-132c-43 -7 -98 -10 -161 -10c-139 0 -195 34 -195 151v263h-111z" />
    <glyph glyph-name="tcommaaccent" unicode="&#x163;" horiz-adv-x="500" 
d="M0 402v140h111v172h212v-172h140v-140h-140v-218c0 -48 13 -56 69 -56c27 0 47 1 75 2v-132c-43 -7 -98 -10 -161 -10c-139 0 -195 34 -195 151v263h-111zM187 -158v108h208v-76c0 -20 -4 -38 -13 -54c-8 -17 -23 -30 -44 -40s-58 -15 -111 -15v45c41 4 53 15 56 32h-96z
" />
    <glyph glyph-name="tbar" unicode="&#x167;" horiz-adv-x="500" 
d="M-10 243v91h121v78h-111v130h111v172h212v-172h140v-130h-140v-78h150v-91h-150v-59c0 -48 13 -56 69 -56c27 0 47 1 75 2v-132c-43 -7 -98 -10 -161 -10c-139 0 -195 34 -195 151v104h-121z" />
    <glyph glyph-name="utilde" unicode="&#x169;" horiz-adv-x="778" 
d="M56 197v345h212v-280c0 -92 38 -124 110 -124c75 0 132 42 132 130v274h212v-542h-206v70h-2c-43 -53 -120 -92 -228 -92c-131 0 -230 56 -230 219zM218 603h-96c27 115 94 145 162 145c19 0 39 -2 71 -9l139 -29c11 -3 19 -5 28 -5c27 0 36 20 43 35h93
c-11 -76 -48 -148 -141 -148c-41 0 -71 6 -193 35c-23 5 -49 12 -60 12c-31 0 -41 -17 -46 -36z" />
    <glyph glyph-name="umacron" unicode="&#x16b;" horiz-adv-x="778" 
d="M56 197v345h212v-280c0 -92 38 -124 110 -124c75 0 132 42 132 130v274h212v-542h-206v70h-2c-43 -53 -120 -92 -228 -92c-131 0 -230 56 -230 219zM127 612v116h526v-116h-526z" />
    <glyph glyph-name="ubreve" unicode="&#x16d;" horiz-adv-x="778" 
d="M56 197v345h212v-280c0 -92 38 -124 110 -124c75 0 132 42 132 130v274h212v-542h-206v70h-2c-43 -53 -120 -92 -228 -92c-131 0 -230 56 -230 219zM164 748h116c4 -19 15 -32 33 -40c19 -8 44 -12 75 -12c64 0 100 13 108 52h116c-8 -55 -31 -96 -69 -121
c-39 -25 -90 -35 -155 -35c-131 0 -208 41 -224 156z" />
    <glyph glyph-name="uring" unicode="&#x16f;" horiz-adv-x="778" 
d="M56 197v345h212v-280c0 -92 38 -124 110 -124c75 0 132 42 132 130v274h212v-542h-206v70h-2c-43 -53 -120 -92 -228 -92c-131 0 -230 56 -230 219zM255 700c0 76 60 128 134 128s134 -52 134 -128s-60 -127 -134 -127s-134 51 -134 127zM331 700c0 -32 26 -58 58 -58
s58 26 58 58s-26 58 -58 58s-58 -26 -58 -58z" />
    <glyph glyph-name="uhungarumlaut" unicode="&#x171;" horiz-adv-x="778" 
d="M56 197v345h212v-280c0 -92 38 -124 110 -124c75 0 132 42 132 130v274h212v-542h-206v70h-2c-43 -53 -120 -92 -228 -92c-131 0 -230 56 -230 219zM141 600l91 140h258l-149 -140h-200zM446 600l91 140h258l-149 -140h-200z" />
    <glyph glyph-name="uogonek" unicode="&#x173;" horiz-adv-x="778" 
d="M56 197v345h212v-280c0 -92 38 -124 110 -124c75 0 132 42 132 130v274h212v-542h-90c-35 -34 -56 -58 -65 -72c-8 -14 -12 -28 -12 -41c0 -27 14 -38 35 -38c23 0 44 7 67 16l23 -56c-39 -16 -77 -29 -138 -29c-85 0 -121 37 -121 88c0 60 35 89 95 132v70h-2
c-43 -53 -120 -92 -228 -92c-131 0 -230 56 -230 219z" />
    <glyph glyph-name="wcircumflex" unicode="&#x175;" horiz-adv-x="1130" 
d="M198 0l-196 542h230l112 -356h2l123 356h192l123 -356h2l112 356h230l-196 -542h-252l-114 319h-2l-114 -319h-252zM277 600l149 140h296l149 -140h-234l-71 77l-71 -77h-218z" />
    <glyph glyph-name="ycircumflex" unicode="&#x177;" horiz-adv-x="685" 
d="M64 -190v134h51c74 0 86 20 97 39l24 48l-255 511h230l137 -322l132 322h224l-288 -610c-39 -82 -72 -128 -203 -128c-56 0 -108 3 -149 6zM55 600l149 140h296l149 -140h-234l-71 77l-71 -77h-218z" />
    <glyph glyph-name="zacute" unicode="&#x17a;" horiz-adv-x="667" 
d="M22 0v128l326 264v2h-309v148h596v-128l-316 -266h326v-148h-623zM239 600l91 140h258l-149 -140h-200z" />
    <glyph glyph-name="zdotaccent" unicode="&#x17c;" horiz-adv-x="667" 
d="M22 0v128l326 264v2h-309v148h596v-128l-316 -266h326v-148h-623zM230 606v128h212v-128h-212z" />
    <glyph glyph-name="Ldot" unicode="&#x13f;" horiz-adv-x="760" 
d="M72 0v714h238v-548h435v-166h-673zM407 349v197h142v-197h-142z" />
    <glyph glyph-name="ldot" unicode="&#x140;" horiz-adv-x="530" 
d="M60 0v732h212v-732h-212zM341 346v194h140v-194h-140z" />
    <glyph glyph-name=".null" horiz-adv-x="500" 
 />
    <glyph glyph-name=".null" horiz-adv-x="500" 
 />
    <glyph glyph-name="CR" unicode="&#xd;" horiz-adv-x="0" 
 />
    <glyph glyph-name="uni00A0" unicode="&#xa0;" horiz-adv-x="388" 
 />
    <glyph glyph-name="grave.cap" horiz-adv-x="278" 
d="M65 600l-149 140h258l91 -140h-200z" />
    <glyph glyph-name="Dcroat" unicode="&#x110;" horiz-adv-x="963" 
d="M72 0v291h-72v134h72v289h516c223 0 340 -117 340 -357c0 -280 -166 -357 -371 -357h-485zM466 425v-134h-156v-131h199c136 0 173 99 173 198c0 133 -64 196 -192 196h-180v-129h156z" />
    <glyph glyph-name="uni021A" unicode="&#x21a;" horiz-adv-x="760" 
d="M-1 554v160h762v-160h-262v-554h-238v554h-262zM274 -158v108h208v-76c0 -20 -4 -38 -13 -54c-8 -17 -23 -30 -44 -40s-58 -15 -111 -15v45c41 4 53 15 56 32h-96z" />
    <glyph glyph-name="uni021B" unicode="&#x21b;" horiz-adv-x="500" 
d="M0 402v140h111v172h212v-172h140v-140h-140v-218c0 -48 13 -56 69 -56c27 0 47 1 75 2v-132c-43 -7 -98 -10 -161 -10c-139 0 -195 34 -195 151v263h-111zM187 -158v108h208v-76c0 -20 -4 -38 -13 -54c-8 -17 -23 -30 -44 -40s-58 -15 -111 -15v45c41 4 53 15 56 32h-96z
" />
    <glyph glyph-name="acute.cap" horiz-adv-x="278" 
d="M13 600l91 140h258l-149 -140h-200z" />
    <glyph glyph-name="circumflex.cap" horiz-adv-x="278" 
d="M-158 600l149 140h296l149 -140h-234l-71 77l-71 -77h-218z" />
    <glyph glyph-name="caron.cap" horiz-adv-x="278" 
d="M-9 600l-149 140h234l71 -77l71 77h218l-149 -140h-296z" />
    <glyph glyph-name="tilde.cap" horiz-adv-x="278" 
d="M-33 603h-96c27 115 94 145 162 145c19 0 39 -2 71 -9l139 -29c11 -3 19 -5 28 -5c27 0 36 20 43 35h93c-11 -76 -48 -148 -141 -148c-41 0 -71 6 -193 35c-23 5 -49 12 -60 12c-31 0 -41 -17 -46 -36z" />
    <glyph glyph-name="dieresis.cap" horiz-adv-x="278" 
d="M-120 606v128h212v-128h-212zM186 606v128h212v-128h-212z" />
    <glyph glyph-name="macron.cap" horiz-adv-x="278" 
d="M-124 612v116h526v-116h-526z" />
    <glyph glyph-name="uni02C9" unicode="&#x2c9;" horiz-adv-x="278" 
d="M-124 612v116h526v-116h-526z" />
    <glyph glyph-name="breve.cap" horiz-adv-x="278" 
d="M-85 748h116c4 -19 15 -32 33 -40c19 -8 44 -12 75 -12c64 0 100 13 108 52h116c-8 -55 -31 -96 -69 -121c-39 -25 -90 -35 -155 -35c-131 0 -208 41 -224 156z" />
    <glyph glyph-name="ring.cap" horiz-adv-x="278" 
d="M5 700c0 76 60 128 134 128s134 -52 134 -128s-60 -127 -134 -127s-134 51 -134 127zM81 700c0 -32 26 -58 58 -58s58 26 58 58s-26 58 -58 58s-58 -26 -58 -58z" />
    <glyph glyph-name="hungarumlaut.cap" horiz-adv-x="278" 
d="M-140 600l91 140h258l-149 -140h-200zM165 600l91 140h258l-149 -140h-200z" />
    <glyph glyph-name="dotaccent.cap" horiz-adv-x="278" 
d="M33 606v128h212v-128h-212z" />
    <glyph glyph-name="uni2219" unicode="&#x2219;" horiz-adv-x="388" 
d="M75 260c0 66 53 119 119 119s119 -53 119 -119s-53 -119 -119 -119s-119 53 -119 119z" />
    <glyph glyph-name="uni2215" unicode="&#x2215;" horiz-adv-x="167" 
d="M-200 -16l455 724h112l-455 -724h-112z" />
    <glyph glyph-name="uni0394" unicode="&#x394;" horiz-adv-x="722" 
d="M710 0h-698l249 712h177zM486 150l-134 386l-124 -386h258z" />
    <glyph glyph-name="uni03A9" unicode="&#x3a9;" horiz-adv-x="778" 
d="M726 416c0 -109 -58 -228 -173 -252v-19h172v-145h-302v222c89 16 126 93 126 177c0 96 -55 175 -157 175c-103 0 -163 -84 -163 -181c0 -84 39 -155 124 -171v-222h-302v145h173v19c-116 32 -173 135 -173 251c0 199 156 306 342 306c181 0 333 -112 333 -305z" />
    <glyph glyph-name="uni03BC" unicode="&#x3bc;" horiz-adv-x="778" 
d="M516 0v70h-2c-52 -73 -103 -92 -151 -92c-41 0 -72 12 -93 36h-2v-210h-212v738h212v-280c0 -92 38 -124 110 -124c75 0 132 42 132 130v274h212v-542h-206z" />
    <glyph glyph-name="uniF8FF" unicode="&#xf8ff;" horiz-adv-x="512" 
d="M222 117h56v67h-56v-67zM225 234h46c0 35 2 59 6 72s18 30 43 52c51 47 63 77 63 120c0 79 -53 131 -124 131c-72 0 -126 -42 -135 -137l50 -8c8 68 41 95 82 95s76 -37 76 -85c0 -25 -7 -42 -50 -83c-22 -22 -37 -42 -46 -59s-13 -44 -13 -81zM462 50h-412v617h412v-617
zM512 718h-512v-718h512v718z" />
    <glyph glyph-name="uni00AD" unicode="&#xad;" horiz-adv-x="481" 
d="M61 213v154h359v-154h-359z" />
    <glyph glyph-name="afii61289" unicode="&#x2113;" horiz-adv-x="500" 
d="M465 56c-57 -47 -114 -70 -181 -70c-113 0 -173 67 -173 151v25l-54 -45h-2l-54 84l109 86v233c0 112 79 201 192 201c98 0 160 -63 160 -155c0 -103 -62 -195 -196 -303v-101c0 -47 29 -63 57 -63c24 0 54 13 88 37h2zM336 557c0 33 -13 62 -35 62
c-20 0 -35 -29 -35 -69v-157c52 53 70 109 70 164z" />
    <glyph glyph-name="estimated" unicode="&#x212e;" horiz-adv-x="600" 
d="M561 259h-404v-181c39 -39 87 -59 145 -59c83 0 143 36 193 120l35 -21c-61 -95 -123 -135 -228 -135c-157 0 -258 122 -258 276c0 155 101 276 258 276c154 0 258 -114 259 -276zM157 295h291v145c-42 40 -91 60 -147 60c-57 0 -105 -21 -144 -60v-145z" />
    </font>
</defs>
</svg>
