<?xml version="1.0" standalone="no"?>
<!DOCTYPE svg PUBLIC "-//W3C//DTD SVG 1.1//EN" "http://www.w3.org/Graphics/SVG/1.1/DTD/svg11.dtd" >
<svg>
<metadata>
Created by FontForge 20110222 at Mon Jun  2 09:19:37 2014
 By Orthosie Webhosting
Copyright (c) 1988, 1990, 1993, 2003 Linotype Library GmbH, www.linotype.com. All rights reserved. Copyright (c) 1988, 1990, 1993 Adobe Systems Incorporated. All Rights Reserved.
</metadata>
<defs>
<font id="HelveticaNeueLTPro-Th" horiz-adv-x="519" >
  <font-face 
    font-family="Helvetica Neue LT Pro"
    font-weight="250"
    font-stretch="normal"
    units-per-em="1000"
    panose-1="2 11 4 3 2 2 2 2 2 4"
    ascent="714"
    descent="-286"
    x-height="514"
    cap-height="714"
    bbox="-169 -217 1041 949"
    underline-thickness="50"
    underline-position="-50"
    stemh="33"
    stemv="38"
    unicode-range="U+000D-FB02"
  />
<missing-glyph horiz-adv-x="512" 
d="M222 117h56v67h-56v-67zM225 234h46c0 35 2 59 6 72s18 30 43 52c51 47 63 77 63 120c0 79 -53 131 -124 131c-72 0 -126 -42 -135 -137l50 -8c8 68 41 95 82 95s76 -37 76 -85c0 -25 -7 -42 -50 -83c-22 -22 -37 -42 -46 -59s-13 -44 -13 -81zM462 50h-412v617h412v-617
zM512 718h-512v-718h512v718z" />
    <glyph glyph-name="fi" unicode="fi" horiz-adv-x="389" 
d="M286 0v514h38v-514h-38zM286 611v103h38v-103h-38zM0 481v33h92v106c0 72 52 102 113 102c13 0 28 -2 45 -5v-33c-17 3 -32 5 -45 5c-43 0 -75 -15 -75 -72v-103h107v-33h-107v-481h-38v481h-92z" />
    <glyph glyph-name="fl" unicode="fl" horiz-adv-x="389" 
d="M286 0v714h38v-714h-38zM0 481v33h92v106c0 72 52 102 113 102c13 0 28 -2 45 -5v-33c-17 3 -32 5 -45 5c-43 0 -75 -15 -75 -72v-103h107v-33h-107v-481h-38v481h-92z" />
    <glyph glyph-name="napostrophe" unicode="&#x22;n" horiz-adv-x="536" 
d="M73 0v514h38v-110h2c27 77 103 122 184 122c181 0 183 -145 183 -208v-318h-38v325c0 52 -6 168 -146 168c-116 0 -185 -90 -185 -215v-278h-38zM28 661v20c17 4 28 13 31 33h-25v93h57v-80c0 -41 -22 -63 -63 -66z" />
    <glyph glyph-name="IJ" unicode="IJ" horiz-adv-x="681" 
d="M63 0v714h44v-714h-44zM220 227h44c-8 -106 13 -206 153 -206c164 0 157 117 157 216v477h44v-492c0 -84 3 -239 -196 -239c-193 0 -202 137 -202 244z" />
    <glyph glyph-name="ij" unicode="ij" horiz-adv-x="345" 
d="M103 611h-38v103h38v-103zM103 0h-38v514h38v-514zM280 611h-38v103h38v-103zM242 514h38v-569c0 -69 -17 -129 -105 -129h-16c-5 0 -11 0 -16 1v33c7 -1 14 -2 25 -2c53 0 74 22 74 100v566z" />
    <glyph glyph-name=".notdef" horiz-adv-x="512" 
d="M222 117h56v67h-56v-67zM225 234h46c0 35 2 59 6 72s18 30 43 52c51 47 63 77 63 120c0 79 -53 131 -124 131c-72 0 -126 -42 -135 -137l50 -8c8 68 41 95 82 95s76 -37 76 -85c0 -25 -7 -42 -50 -83c-22 -22 -37 -42 -46 -59s-13 -44 -13 -81zM462 50h-412v617h412v-617
zM512 718h-512v-718h512v718z" />
    <glyph glyph-name="space" unicode=" " horiz-adv-x="278" 
 />
    <glyph glyph-name="exclam" unicode="!" horiz-adv-x="259" 
d="M155 0h-51v103h51v-103zM106 714h48v-241l-12 -290h-24l-12 290v241z" />
    <glyph glyph-name="quotedbl" unicode="&#x22;" horiz-adv-x="315" 
d="M197 485v229h38v-229h-38zM80 485v229h38v-229h-38z" />
    <glyph glyph-name="numbersign" unicode="#" horiz-adv-x="556" 
d="M209 437l-24 -173h169l24 173h-169zM414 690h33l-31 -220h110v-33h-115l-24 -173h111v-33h-116l-32 -231h-33l32 231h-169l-32 -231h-33l32 231h-117v33h122l24 173h-118v33h123l31 220h33l-31 -220h169z" />
    <glyph glyph-name="dollar" unicode="$" horiz-adv-x="556" 
d="M258 -105v88c-147 13 -246 79 -246 252h38c0 -125 69 -206 208 -214v333l-47 11c-85 19 -177 54 -177 176c0 45 12 182 224 190v49h32v-49c139 -3 227 -68 232 -220h-38c-8 131 -79 180 -194 183v-310l78 -19c132 -32 171 -100 171 -182c0 -148 -125 -197 -249 -200v-88
h-32zM258 393v300c-135 -5 -186 -69 -186 -152c0 -94 65 -120 145 -139zM290 347v-326c114 0 211 46 211 162c0 76 -46 122 -150 149z" />
    <glyph glyph-name="percent" unicode="%" horiz-adv-x="778" 
d="M205 379c80 0 129 71 129 144c0 77 -44 146 -128 146c-83 0 -128 -69 -128 -146c0 -73 50 -144 127 -144zM206 346c-101 0 -166 80 -166 177c0 99 63 179 167 179c105 0 165 -77 165 -179c0 -95 -65 -177 -166 -177zM571 21c80 0 129 71 129 144c0 77 -44 146 -128 146
c-83 0 -128 -69 -128 -146c0 -73 50 -144 127 -144zM572 -12c-101 0 -166 80 -166 177c0 99 63 179 167 179c105 0 165 -77 165 -179c0 -95 -65 -177 -166 -177zM138 -24l465 738h40l-465 -738h-40z" />
    <glyph glyph-name="ampersand" unicode="&#x26;" horiz-adv-x="593" 
d="M545 0l-87 106c-44 -73 -116 -118 -203 -118c-119 0 -212 61 -212 182c0 118 104 171 186 224c-44 55 -97 109 -97 185c0 74 75 123 150 123c77 0 150 -43 150 -123c0 -101 -79 -144 -148 -195l170 -209c15 37 24 78 24 119h38c-3 -52 -16 -104 -36 -151l116 -143h-51z
M433 137l-184 229c-74 -47 -168 -95 -168 -196c0 -94 87 -149 174 -149c121 0 178 111 178 116zM262 412c58 37 132 86 132 167c0 53 -57 90 -112 90s-112 -37 -112 -90c0 -69 60 -119 92 -167z" />
    <glyph glyph-name="quoteright" unicode="&#x2019;" horiz-adv-x="204" 
d="M125 714v-103c0 -53 -15 -107 -64 -126v33c29 13 34 66 34 93h-21v103h51z" />
    <glyph glyph-name="parenleft" unicode="(" horiz-adv-x="241" 
d="M228 -184h-34c-81 133 -129 291 -129 450c0 163 48 325 131 465h35c-84 -141 -128 -301 -128 -465c0 -159 41 -313 125 -450z" />
    <glyph glyph-name="parenright" unicode=")" horiz-adv-x="241" 
d="M13 731h34c81 -133 129 -291 129 -450c0 -163 -48 -325 -131 -465h-35c84 141 128 301 128 465c0 159 -41 313 -125 450z" />
    <glyph glyph-name="asterisk" unicode="*" horiz-adv-x="352" 
d="M161 714h29v-130l122 41l10 -28l-123 -41l76 -102l-22 -20l-77 106l-80 -106l-24 20l81 102l-124 41l9 28l123 -41v130z" />
    <glyph glyph-name="plus" unicode="+" horiz-adv-x="600" 
d="M281 271v233h38v-233h233v-38h-233v-233h-38v233h-233v38h233z" />
    <glyph glyph-name="comma" unicode="," horiz-adv-x="278" 
d="M100 -126v33c29 13 34 66 34 93h-21v103h51v-103c0 -53 -15 -107 -64 -126z" />
    <glyph glyph-name="hyphen" unicode="-" horiz-adv-x="352" 
d="M283 253h-214v38h214v-38z" />
    <glyph glyph-name="period" unicode="." horiz-adv-x="278" 
d="M164 0h-51v103h51v-103z" />
    <glyph glyph-name="slash" unicode="/" horiz-adv-x="333" 
d="M28 -17h-41l318 748h41z" />
    <glyph glyph-name="zero" unicode="0" horiz-adv-x="556" 
d="M278 21c172 0 212 185 212 324s-40 324 -212 324s-212 -185 -212 -324s40 -324 212 -324zM278 -12c-199 0 -250 192 -250 357s51 357 250 357s250 -192 250 -357s-51 -357 -250 -357z" />
    <glyph glyph-name="one" unicode="1" horiz-adv-x="556" 
d="M331 690v-690h-38v616c-49 -52 -116 -81 -185 -88v33c80 12 148 58 189 129h34z" />
    <glyph glyph-name="two" unicode="2" horiz-adv-x="556" 
d="M94 38h412v-38h-460c8 128 110 200 211 267c100 67 200 130 200 247c0 93 -80 155 -170 155c-125 0 -186 -93 -186 -212h-38c8 167 82 245 218 245c117 0 214 -61 214 -189c0 -242 -385 -301 -401 -475z" />
    <glyph glyph-name="three" unicode="3" horiz-adv-x="556" 
d="M36 228h38c-5 -128 74 -207 201 -207c102 0 198 60 198 170c0 132 -117 167 -232 159v33c101 -5 216 26 216 145c0 97 -98 141 -182 141c-121 0 -179 -83 -184 -197h-38c0 136 86 230 222 230c111 0 220 -51 220 -174c0 -83 -54 -147 -135 -158v-2
c93 -11 151 -84 151 -177c0 -136 -108 -203 -236 -203c-151 0 -247 86 -239 240z" />
    <glyph glyph-name="four" unicode="4" horiz-adv-x="556" 
d="M365 209v429h-2l-296 -429h298zM365 690h38v-481h116v-33h-116v-176h-38v176h-336v38z" />
    <glyph glyph-name="five" unicode="5" horiz-adv-x="556" 
d="M58 333l72 357h349v-33h-319l-59 -275l2 -2c40 56 102 83 171 83c136 0 234 -98 234 -235s-95 -240 -234 -240c-132 0 -245 84 -237 223h38c-3 -115 88 -190 199 -190c117 0 196 94 196 207c0 112 -83 202 -196 202c-79 0 -133 -33 -177 -97h-39z" />
    <glyph glyph-name="six" unicode="6" horiz-adv-x="556" 
d="M507 520h-38c-16 88 -82 149 -173 149c-190 0 -216 -223 -216 -359l2 -2c30 89 114 148 206 148c136 0 231 -101 231 -236c0 -133 -98 -232 -231 -232c-192 0 -246 155 -246 323c0 169 41 391 254 391c116 0 198 -65 211 -182zM288 21c111 0 193 91 193 199
s-81 203 -193 203c-114 0 -195 -91 -195 -203c0 -115 87 -199 195 -199z" />
    <glyph glyph-name="seven" unicode="7" horiz-adv-x="556" 
d="M56 657v33h445v-38c-138 -154 -265 -312 -297 -652h-44c16 198 65 401 303 657h-407z" />
    <glyph glyph-name="eight" unicode="8" horiz-adv-x="556" 
d="M453 529c0 105 -84 140 -175 140s-175 -35 -175 -140c0 -99 87 -137 175 -137s175 38 175 137zM65 529c0 130 105 173 213 173s213 -43 213 -173c0 -77 -43 -135 -127 -151v-2c95 -11 153 -79 153 -178c0 -144 -107 -210 -239 -210s-239 66 -239 210c0 99 58 167 153 178
v2c-84 16 -127 74 -127 151zM479 198c0 115 -93 161 -201 161s-201 -46 -201 -161c0 -123 94 -177 201 -177c106 0 201 54 201 177z" />
    <glyph glyph-name="nine" unicode="9" horiz-adv-x="556" 
d="M55 170h38c16 -88 80 -149 173 -149c189 0 216 227 216 351l-2 2c-29 -76 -94 -140 -201 -140c-139 0 -233 98 -233 236c0 136 98 232 233 232c106 0 241 -47 241 -323c0 -169 -41 -391 -254 -391c-116 0 -198 65 -211 182zM279 267c114 0 195 91 195 203
c0 110 -84 199 -195 199s-195 -91 -195 -199c0 -109 84 -203 195 -203z" />
    <glyph glyph-name="colon" unicode=":" horiz-adv-x="278" 
d="M164 0h-51v103h51v-103zM113 514h51v-103h-51v103z" />
    <glyph glyph-name="semicolon" unicode=";" horiz-adv-x="278" 
d="M113 514h51v-103h-51v103zM100 -126v33c29 13 34 66 34 93h-21v103h51v-103c0 -53 -15 -107 -64 -126z" />
    <glyph glyph-name="less" unicode="&#x3c;" horiz-adv-x="600" 
d="M554 514v-42l-475 -218l475 -220v-42l-508 236v52z" />
    <glyph glyph-name="equal" unicode="=" horiz-adv-x="600" 
d="M552 175v-38h-504v38h504zM552 369v-38h-504v38h504z" />
    <glyph glyph-name="greater" unicode="&#x3e;" horiz-adv-x="600" 
d="M46 -8v42l475 218l-475 220v42l508 -236v-52z" />
    <glyph glyph-name="question" unicode="?" 
d="M231 0v103h51v-103h-51zM81 493h-38c0 142 78 238 222 238c107 0 196 -58 196 -179c0 -85 -43 -127 -89 -170c-45 -40 -98 -83 -98 -201h-38c0 106 40 159 88 205c49 46 99 96 99 166c0 99 -78 141 -161 141c-120 0 -181 -85 -181 -200z" />
    <glyph glyph-name="at" unicode="@" horiz-adv-x="800" 
d="M609 560l-96 -296c-7 -21 -16 -45 -16 -60c0 -20 18 -34 39 -34c91 0 180 140 180 253c0 167 -151 275 -299 275c-183 0 -333 -158 -333 -345c0 -197 168 -337 335 -337c111 0 214 60 275 152h44c-61 -114 -190 -185 -319 -185c-212 0 -373 168 -373 377
c0 205 169 371 369 371c189 0 339 -130 339 -311c0 -151 -125 -288 -229 -288c-35 0 -65 23 -66 71h-2c-32 -47 -79 -71 -134 -71c-76 0 -128 69 -128 150c0 139 98 298 236 298c64 0 104 -44 112 -91h2l23 71h41zM425 547c-113 0 -192 -156 -192 -260
c0 -75 44 -122 103 -122c39 0 84 34 116 79c37 54 65 131 65 185c0 37 -8 118 -92 118z" />
    <glyph glyph-name="A" unicode="A" horiz-adv-x="593" 
d="M140 267h314l-153 404h-2zM275 714h48l282 -714h-47l-90 229h-342l-91 -229h-47z" />
    <glyph glyph-name="B" unicode="B" horiz-adv-x="630" 
d="M107 676v-286h242c120 0 181 59 181 147c0 104 -86 139 -181 139h-242zM63 0v714h286c170 0 225 -93 225 -185c0 -77 -56 -141 -139 -152l2 -2c19 3 161 -31 161 -175c0 -130 -100 -200 -249 -200h-286zM107 352v-314h242c127 0 205 55 205 162c0 123 -112 152 -205 152
h-242z" />
    <glyph glyph-name="C" unicode="C" horiz-adv-x="704" 
d="M663 501h-44c-19 120 -124 192 -243 192c-187 0 -296 -153 -296 -336s109 -336 296 -336c140 0 247 124 255 257h44c-16 -171 -142 -295 -299 -295c-214 0 -340 165 -340 374s126 374 340 374c252 0 287 -220 287 -230z" />
    <glyph glyph-name="D" unicode="D" horiz-adv-x="667" 
d="M63 0v714h234c256 0 330 -175 330 -356c0 -203 -103 -358 -332 -358h-232zM107 676v-638h192c133 0 284 73 284 320c0 292 -187 318 -293 318h-183z" />
    <glyph glyph-name="E" unicode="E" horiz-adv-x="560" 
d="M107 38h441v-38h-485v714h480v-38h-436v-286h410v-38h-410v-314z" />
    <glyph glyph-name="F" unicode="F" horiz-adv-x="514" 
d="M471 352h-364v-352h-44v714h448v-38h-404v-286h364v-38z" />
    <glyph glyph-name="G" unicode="G" horiz-adv-x="741" 
d="M382 350h301v-350h-38v152h-2c-35 -104 -144 -169 -270 -169c-216 0 -336 165 -336 370c0 203 122 378 337 378c147 0 273 -89 297 -238h-42c-33 124 -123 200 -254 200c-192 0 -294 -161 -294 -340c0 -181 98 -332 294 -332c170 0 278 116 270 291h-263v38z" />
    <glyph glyph-name="H" unicode="H" horiz-adv-x="670" 
d="M563 352h-456v-352h-44v714h44v-324h456v324h44v-714h-44v352z" />
    <glyph glyph-name="I" unicode="I" horiz-adv-x="170" 
d="M63 0v714h44v-714h-44z" />
    <glyph glyph-name="J" unicode="J" horiz-adv-x="481" 
d="M20 227h44c-8 -106 13 -206 153 -206c164 0 157 117 157 216v477h44v-492c0 -84 3 -239 -196 -239c-193 0 -202 137 -202 244z" />
    <glyph glyph-name="K" unicode="K" horiz-adv-x="613" 
d="M63 0v714h44v-411l449 411h57l-326 -297l346 -417h-55l-323 387l-148 -135v-252h-44z" />
    <glyph glyph-name="L" unicode="L" horiz-adv-x="500" 
d="M63 0v714h44v-676h405v-38h-449z" />
    <glyph glyph-name="M" unicode="M" horiz-adv-x="809" 
d="M63 0v714h63l279 -665h2l276 665h63v-714h-44v660h-2l-272 -660h-44l-275 660h-2v-660h-44z" />
    <glyph glyph-name="N" unicode="N" horiz-adv-x="678" 
d="M63 0v714h55l451 -655h2v655h44v-714h-52l-454 660h-2v-660h-44z" />
    <glyph glyph-name="O" unicode="O" horiz-adv-x="741" 
d="M75 357c0 -183 109 -336 296 -336c186 0 295 153 295 336s-109 336 -295 336c-187 0 -296 -153 -296 -336zM710 357c0 -209 -126 -374 -339 -374c-214 0 -340 165 -340 374s126 374 340 374c213 0 339 -165 339 -374z" />
    <glyph glyph-name="P" unicode="P" horiz-adv-x="591" 
d="M63 0v714h304c81 0 208 -28 208 -200c0 -125 -81 -196 -224 -196h-244v-318h-44zM107 676v-320h251c129 0 173 85 173 159c0 53 -24 161 -167 161h-257z" />
    <glyph glyph-name="Q" unicode="Q" horiz-adv-x="741" 
d="M691 -37l-118 85c-55 -43 -122 -65 -202 -65c-214 0 -340 165 -340 374s126 374 340 374c213 0 339 -165 339 -374c0 -117 -38 -216 -107 -283l111 -80zM453 182l115 -83c64 63 98 155 98 258c0 183 -109 336 -295 336c-187 0 -296 -153 -296 -336s109 -336 296 -336
c67 0 122 18 167 53l-108 77z" />
    <glyph glyph-name="R" unicode="R" horiz-adv-x="630" 
d="M63 0v714h298c125 0 226 -46 226 -184c0 -96 -57 -167 -153 -183v-2c131 -16 142 -115 142 -209c0 -55 -1 -109 21 -136h-49c-55 99 65 325 -187 325h-254v-325h-44zM107 363h254c104 0 182 49 182 164c0 108 -86 149 -182 149h-254v-313z" />
    <glyph glyph-name="S" unicode="S" horiz-adv-x="630" 
d="M573 510h-44c-5 122 -97 183 -229 183c-81 0 -196 -34 -196 -152c0 -115 122 -135 243 -159c122 -24 244 -58 244 -198c0 -148 -142 -201 -251 -201c-167 0 -304 69 -301 253h44c-8 -156 115 -215 257 -215c85 0 207 39 207 163c0 120 -122 143 -244 167
c-121 24 -243 55 -243 190c0 137 127 190 240 190c149 0 265 -64 273 -221z" />
    <glyph glyph-name="T" unicode="T" 
d="M237 676h-251v38h547v-38h-252v-676h-44v676z" />
    <glyph glyph-name="U" unicode="U" horiz-adv-x="672" 
d="M63 714h44v-428c0 -85 17 -265 224 -265c175 0 234 102 234 265v428h44v-428c0 -170 -65 -303 -278 -303c-254 0 -268 208 -268 303v428z" />
    <glyph glyph-name="V" unicode="V" horiz-adv-x="556" 
d="M32 714l245 -676h2l247 676h44l-267 -714h-51l-266 714h46z" />
    <glyph glyph-name="W" unicode="W" horiz-adv-x="889" 
d="M200 0l-206 714h45l186 -667h2l189 667h55l192 -667h2l183 667h47l-205 -714h-50l-196 676h-2l-193 -676h-49z" />
    <glyph glyph-name="X" unicode="X" horiz-adv-x="556" 
d="M251 367l-250 347h51l226 -314l231 314h50l-252 -347l266 -367h-53l-242 334l-243 -334h-52z" />
    <glyph glyph-name="Y" unicode="Y" horiz-adv-x="574" 
d="M287 336l259 378h49l-287 -415v-299h-44v299l-285 415h50z" />
    <glyph glyph-name="Z" unicode="Z" horiz-adv-x="537" 
d="M28 676v38h501v-38l-484 -638h493v-38h-539v38l482 638h-453z" />
    <glyph glyph-name="bracketleft" unicode="[" horiz-adv-x="241" 
d="M231 698h-99v-849h99v-33h-137v915h137v-33z" />
    <glyph glyph-name="backslash" unicode="\" horiz-adv-x="333" 
d="M346 -17h-41l-318 748h41z" />
    <glyph glyph-name="bracketright" unicode="]" horiz-adv-x="241" 
d="M10 -151h99v849h-99v33h137v-915h-137v33z" />
    <glyph glyph-name="asciicircum" unicode="^" horiz-adv-x="600" 
d="M561 237h-42l-218 420l-220 -420h-42l236 453h52z" />
    <glyph glyph-name="underscore" unicode="_" horiz-adv-x="500" 
d="M500 -125h-500v50h500v-50z" />
    <glyph glyph-name="quoteleft" unicode="&#x2018;" horiz-adv-x="204" 
d="M143 714v-33c-29 -13 -34 -66 -34 -93h21v-103h-51v103c0 53 15 107 64 126z" />
    <glyph glyph-name="a" unicode="a" horiz-adv-x="500" 
d="M435 392v-297c0 -29 -1 -62 34 -62c7 0 16 1 28 3v-32c-11 -3 -20 -4 -31 -4c-60 0 -69 33 -69 75v27h-2c-24 -61 -92 -114 -191 -114c-97 0 -172 37 -172 145c0 121 104 144 189 152c170 11 177 24 177 107c0 23 -26 101 -143 101c-92 0 -153 -48 -158 -137h-38
c5 113 75 170 196 170c90 0 180 -27 180 -134zM397 196v96c-29 -35 -112 -29 -186 -40c-91 -11 -141 -42 -141 -119c0 -63 44 -112 135 -112c173 0 192 148 192 175z" />
    <glyph glyph-name="b" unicode="b" horiz-adv-x="556" 
d="M65 0v714h38v-309h2c29 80 111 121 195 121c151 0 223 -114 223 -257c0 -245 -152 -281 -223 -281c-135 0 -187 100 -195 127h-2v-115h-38zM300 21c135 0 185 130 185 248c0 114 -62 224 -185 224c-133 0 -196 -96 -196 -224c0 -126 56 -248 196 -248z" />
    <glyph glyph-name="c" unicode="c" 
d="M481 355h-38c-8 91 -81 138 -174 138c-128 0 -198 -114 -198 -231c0 -139 65 -241 198 -241c96 0 166 67 179 160h38c-16 -123 -107 -193 -217 -193c-167 0 -236 130 -236 274s84 264 236 264c111 0 201 -55 212 -171z" />
    <glyph glyph-name="d" unicode="d" horiz-adv-x="556" 
d="M453 0v110h-2c-43 -81 -105 -122 -197 -122c-155 0 -222 127 -222 268c0 152 74 270 229 270c84 0 163 -46 190 -127h2v315h38v-714h-38zM262 21c130 0 190 117 190 235c0 120 -59 237 -191 237c-136 0 -191 -113 -191 -237c0 -121 60 -235 192 -235z" />
    <glyph glyph-name="e" unicode="e" 
d="M71 285h377c-3 108 -71 208 -188 208c-114 0 -181 -106 -189 -208zM486 252h-415c-3 -121 62 -231 189 -231c97 0 165 57 184 153h38c-20 -121 -99 -186 -222 -186c-149 0 -230 118 -227 260c-3 141 72 278 227 278c160 0 234 -126 226 -274z" />
    <glyph glyph-name="f" unicode="f" horiz-adv-x="241" 
d="M92 481h-92v33h92v106c0 72 52 102 113 102c13 0 28 -2 45 -5v-33c-17 3 -32 5 -45 5c-43 0 -75 -15 -75 -72v-103h107v-33h-107v-481h-38v481z" />
    <glyph glyph-name="g" unicode="g" horiz-adv-x="537" 
d="M443 514h38v-487c0 -40 0 -231 -222 -223c-109 0 -196 41 -201 160h38c8 -91 80 -127 164 -127c180 0 183 147 183 181v118h-2c-36 -76 -98 -117 -186 -117c-151 0 -222 111 -222 254c0 136 78 253 222 253c81 0 157 -43 186 -119h2v107zM255 493
c-124 0 -184 -111 -184 -220c0 -121 63 -221 184 -221c125 0 187 105 187 221s-62 220 -187 220z" />
    <glyph glyph-name="h" unicode="h" 
d="M56 714h38v-310h2c27 77 103 122 184 122c181 0 183 -145 183 -208v-318h-38v325c0 52 -6 168 -146 168c-116 0 -185 -90 -185 -215v-278h-38v714z" />
    <glyph glyph-name="i" unicode="i" horiz-adv-x="168" 
d="M103 611h-38v103h38v-103zM103 0h-38v514h38v-514z" />
    <glyph glyph-name="j" unicode="j" horiz-adv-x="168" 
d="M103 611h-38v103h38v-103zM65 514h38v-569c0 -69 -17 -129 -105 -129h-16c-5 0 -11 0 -16 1v33c7 -1 14 -2 25 -2c53 0 74 22 74 100v566z" />
    <glyph glyph-name="k" unicode="k" horiz-adv-x="463" 
d="M58 0v714h38v-473l317 273h55l-225 -192l241 -322h-52l-219 293l-117 -99v-194h-38z" />
    <glyph glyph-name="l" unicode="l" horiz-adv-x="168" 
d="M65 714h38v-714h-38v714z" />
    <glyph glyph-name="m" unicode="m" horiz-adv-x="796" 
d="M57 0v514h38v-105h2c16 65 84 117 161 117c98 0 144 -56 155 -109h2c31 71 79 109 163 109c93 0 161 -55 161 -175v-351h-38v352c0 131 -94 141 -123 141c-93 0 -161 -65 -161 -189v-304h-38v352c0 129 -89 141 -121 141c-73 0 -163 -57 -163 -189v-304h-38z" />
    <glyph glyph-name="n" unicode="n" 
d="M56 0v514h38v-110h2c27 77 103 122 184 122c181 0 183 -145 183 -208v-318h-38v325c0 52 -6 168 -146 168c-116 0 -185 -90 -185 -215v-278h-38z" />
    <glyph glyph-name="o" unicode="o" horiz-adv-x="537" 
d="M70 257c0 -123 70 -236 198 -236s198 113 198 236s-70 236 -198 236s-198 -113 -198 -236zM32 257c0 146 84 269 236 269s236 -123 236 -269c0 -147 -84 -269 -236 -269s-236 122 -236 269z" />
    <glyph glyph-name="p" unicode="p" horiz-adv-x="556" 
d="M103 514v-118h2c16 52 74 130 187 130c157 0 231 -126 231 -270c0 -156 -74 -268 -231 -268c-85 0 -156 35 -187 119h-2v-291h-38v698h38zM292 21c133 0 193 108 193 235c0 117 -55 237 -193 237c-137 0 -188 -115 -188 -237c0 -123 43 -235 188 -235z" />
    <glyph glyph-name="q" unicode="q" horiz-adv-x="556" 
d="M453 -184v299h-2c-27 -81 -106 -127 -190 -127c-155 0 -229 118 -229 270c0 141 67 268 222 268c92 0 154 -41 197 -122h2v110h38v-698h-38zM261 21c132 0 191 117 191 237c0 118 -60 235 -190 235c-132 0 -192 -114 -192 -235c0 -124 55 -237 191 -237z" />
    <glyph glyph-name="r" unicode="r" horiz-adv-x="278" 
d="M94 514v-114h3c19 68 104 120 197 117v-38c-40 5 -95 -5 -142 -50c-37 -40 -55 -71 -58 -148v-281h-38v514h38z" />
    <glyph glyph-name="s" unicode="s" horiz-adv-x="481" 
d="M36 171h38c5 -95 78 -150 170 -150c67 0 163 20 163 109c0 174 -353 54 -353 264c0 101 99 132 186 132c108 0 190 -47 190 -164h-38c0 93 -66 131 -152 131c-69 0 -148 -26 -148 -99c0 -83 88 -94 171 -113c102 -19 182 -44 182 -151c0 -111 -111 -142 -201 -142
c-117 0 -205 63 -208 183z" />
    <glyph glyph-name="t" unicode="t" horiz-adv-x="259" 
d="M245 514v-33h-112v-359c0 -82 39 -92 111 -89v-33c-76 -5 -154 6 -149 122v359h-95v33h95v160h38v-160h112z" />
    <glyph glyph-name="u" unicode="u" 
d="M463 514v-514h-38v110h-2c-27 -77 -103 -122 -184 -122c-181 0 -183 145 -183 208v318h38v-325c0 -52 6 -168 146 -168c116 0 185 90 185 215v278h38z" />
    <glyph glyph-name="v" unicode="v" horiz-adv-x="444" 
d="M446 514l-194 -514h-47l-207 514h44l186 -470h2l174 470h42z" />
    <glyph glyph-name="w" unicode="w" horiz-adv-x="704" 
d="M39 514l145 -470h2l140 470h51l141 -470h2l144 470h42l-165 -514h-47l-141 466h-2l-142 -466h-48l-163 514h41z" />
    <glyph glyph-name="x" unicode="x" horiz-adv-x="444" 
d="M-6 0l202 270l-188 244h53l161 -215l162 215h49l-186 -244l203 -270h-52l-176 241l-180 -241h-48z" />
    <glyph glyph-name="y" unicode="y" horiz-adv-x="444" 
d="M209 3l-215 511h45l191 -469l176 469h43l-220 -569c-21 -51 -37 -89 -60 -106c-27 -21 -61 -23 -120 -23v33c55 0 80 6 107 33c15 15 29 53 53 121z" />
    <glyph glyph-name="z" unicode="z" horiz-adv-x="426" 
d="M55 33h362v-33h-408v36l345 445h-318v33h365v-36z" />
    <glyph glyph-name="braceleft" unicode="{" horiz-adv-x="333" 
d="M293 731v-33h-48c-41 0 -52 -27 -52 -103v-157c0 -134 -57 -154 -70 -162c13 -13 70 -33 70 -167v-157c0 -76 11 -103 52 -103h48v-33h-50c-56 0 -88 27 -88 118v158c0 81 -13 159 -72 162v38c59 3 72 81 72 162v159c0 91 32 118 88 118h50z" />
    <glyph glyph-name="bar" unicode="|" horiz-adv-x="222" 
d="M92 -214v1000h38v-1000h-38z" />
    <glyph glyph-name="braceright" unicode="}" horiz-adv-x="333" 
d="M40 -184v33h48c41 0 52 27 52 103v157c0 134 57 154 70 167c-13 8 -70 28 -70 162v157c0 76 -11 103 -52 103h-48v33h50c56 0 88 -27 88 -118v-159c0 -81 13 -159 72 -162v-38c-59 -3 -72 -81 -72 -162v-158c0 -91 -32 -118 -88 -118h-50z" />
    <glyph glyph-name="asciitilde" unicode="~" horiz-adv-x="600" 
d="M500 312l28 -28c-27 -40 -62 -85 -121 -85c-37 0 -69 15 -114 38c-23 11 -65 30 -92 30c-59 0 -86 -43 -99 -75l-29 30c31 51 61 83 122 83c40 0 66 -12 111 -32c28 -13 59 -36 102 -36c38 0 76 43 92 75z" />
    <glyph glyph-name="exclamdown" unicode="&#xa1;" horiz-adv-x="259" 
d="M104 535h51v-103h-51v103zM153 -184h-48v241l12 290h24l12 -290v-241z" />
    <glyph glyph-name="cent" unicode="&#xa2;" horiz-adv-x="556" 
d="M272 -118v106c-156 8 -221 134 -221 274c0 139 79 256 221 264v89h32v-89c105 -5 184 -61 195 -171h-38c-7 85 -70 131 -157 138v-472c88 8 149 72 162 160h38c-16 -117 -96 -185 -200 -193v-106h-32zM272 21v472c-119 -8 -183 -119 -183 -231c0 -134 60 -233 183 -241z
" />
    <glyph glyph-name="sterling" unicode="&#xa3;" horiz-adv-x="556" 
d="M50 330v33h60c-31 55 -60 112 -60 176c0 125 107 192 227 192c156 0 239 -82 235 -247h-38c-1 136 -59 209 -196 209c-117 0 -190 -57 -190 -152c0 -72 40 -126 65 -178h160v-33h-141c13 -20 23 -57 23 -108c0 -76 -48 -148 -99 -191l2 -2c29 20 59 36 94 36
c41 0 73 -11 104 -23c31 -11 59 -21 91 -21c59 0 98 33 135 68l22 -33c-39 -41 -92 -73 -151 -73c-41 0 -75 11 -108 22c-32 11 -63 22 -96 22c-51 0 -79 -19 -120 -44l-25 34c56 53 113 119 113 207c0 40 -12 79 -29 106h-78z" />
    <glyph glyph-name="fraction" unicode="&#x2044;" horiz-adv-x="167" 
d="M-169 -24l465 738h40l-465 -738h-40z" />
    <glyph glyph-name="yen" unicode="&#xa5;" horiz-adv-x="556" 
d="M-7 714h48l238 -374l239 374h45l-238 -372h92v-33h-120v-78h120v-33h-120v-198h-38v198h-120v33h120v78h-120v33h92z" />
    <glyph glyph-name="florin" unicode="&#x192;" horiz-adv-x="556" 
d="M5 -178l7 37c17 -3 33 -5 50 -5c57 0 90 57 105 138l79 404h-112l7 33h111l33 169c14 68 54 133 147 133c19 0 38 -1 61 -6l-8 -38c-21 4 -39 6 -54 6c-49 0 -90 -27 -105 -100l-32 -164h120l-5 -33h-121l-80 -409c-11 -57 -37 -171 -150 -171c-17 0 -34 2 -53 6z" />
    <glyph glyph-name="section" unicode="&#xa7;" horiz-adv-x="556" 
d="M449 536h-38c3 81 -47 162 -136 162c-58 3 -128 -41 -128 -105c1 -184 353 -168 356 -380c0 -77 -47 -119 -111 -136c40 -37 57 -66 57 -123c0 -100 -77 -138 -168 -138c-116 0 -182 81 -182 193h38c3 -88 47 -160 143 -160c80 0 131 32 131 105c0 88 -91 132 -180 180
c-100 58 -184 105 -179 203c0 64 52 113 111 134c-46 32 -59 99 -54 122c0 84 82 141 166 138c116 0 173 -76 174 -195zM339 359l-152 90c-47 -18 -97 -56 -97 -112c0 -69 60 -106 108 -135c56 -33 110 -66 165 -101c11 -3 45 17 67 34c20 19 35 46 35 78
c0 69 -71 115 -126 146z" />
    <glyph glyph-name="currency" unicode="&#xa4;" horiz-adv-x="556" 
d="M278 135c109 0 204 94 204 210s-95 210 -204 210s-204 -94 -204 -210s95 -210 204 -210zM519 131l-27 -27l-53 54c-47 -41 -105 -61 -162 -61s-113 20 -160 61l-55 -56l-27 27l56 55c-40 47 -60 104 -61 161c0 57 20 114 61 161l-57 56l27 27l56 -56c47 39 103 59 160 60
c57 0 115 -20 162 -61l54 55l27 -27l-55 -54c41 -47 61 -104 61 -161s-20 -115 -61 -160z" />
    <glyph glyph-name="quotesingle" unicode="'" horiz-adv-x="204" 
d="M83 485v229h38v-229h-38z" />
    <glyph glyph-name="quotedblleft" unicode="&#x201c;" horiz-adv-x="315" 
d="M254 714v-33c-29 -13 -34 -66 -34 -93h21v-103h-51v103c0 53 15 107 64 126zM128 714v-33c-29 -13 -34 -66 -34 -93h21v-103h-51v103c0 53 15 107 64 126z" />
    <glyph glyph-name="guillemotleft" unicode="&#xab;" horiz-adv-x="389" 
d="M309 121l-114 131v40l114 131v-51l-85 -100l85 -102v-49zM181 121l-114 131v40l114 131v-51l-85 -100l85 -102v-49z" />
    <glyph glyph-name="guilsinglleft" unicode="&#x2039;" horiz-adv-x="259" 
d="M181 121l-114 131v40l114 131v-51l-85 -100l85 -102v-49z" />
    <glyph glyph-name="guilsinglright" unicode="&#x203a;" horiz-adv-x="259" 
d="M78 121v49l85 102l-85 100v51l114 -131v-40z" />
    <glyph glyph-name="endash" unicode="&#x2013;" horiz-adv-x="500" 
d="M0 253v38h500v-38h-500z" />
    <glyph glyph-name="dagger" unicode="&#x2020;" horiz-adv-x="556" 
d="M54 514h205v200h38v-200h205v-33h-205v-627h-38v627h-205v33z" />
    <glyph glyph-name="daggerdbl" unicode="&#x2021;" horiz-adv-x="556" 
d="M259 714h38v-200h205v-33h-205v-394h205v-33h-205v-200h-38v200h-205v33h205v394h-205v33h205v200z" />
    <glyph glyph-name="periodcentered" unicode="&#xb7;" horiz-adv-x="278" 
d="M85 317c0 28 26 54 54 54s55 -25 55 -54s-26 -55 -55 -55s-54 27 -54 55z" />
    <glyph glyph-name="paragraph" unicode="&#xb6;" horiz-adv-x="600" 
d="M273 -146v470c-117 0 -207 89 -207 194c0 129 82 196 223 196h217v-860h-38v827h-157v-827h-38z" />
    <glyph glyph-name="bullet" unicode="&#x2022;" horiz-adv-x="500" 
d="M72 357c0 99 79 178 178 178s179 -79 179 -178s-80 -179 -179 -179s-178 80 -178 179z" />
    <glyph glyph-name="quotesinglbase" unicode="&#x201a;" horiz-adv-x="204" 
d="M125 103v-103c0 -53 -15 -107 -64 -126v33c29 13 34 66 34 93h-21v103h51z" />
    <glyph glyph-name="quotedblbase" unicode="&#x201e;" horiz-adv-x="315" 
d="M125 103v-103c0 -53 -15 -107 -64 -126v33c29 13 34 66 34 93h-21v103h51zM251 103v-103c0 -53 -15 -107 -64 -126v33c29 13 34 66 34 93h-21v103h51z" />
    <glyph glyph-name="quotedblright" unicode="&#x201d;" horiz-adv-x="315" 
d="M125 714v-103c0 -53 -15 -107 -64 -126v33c29 13 34 66 34 93h-21v103h51zM251 714v-103c0 -53 -15 -107 -64 -126v33c29 13 34 66 34 93h-21v103h51z" />
    <glyph glyph-name="guillemotright" unicode="&#xbb;" horiz-adv-x="389" 
d="M208 121v49l85 102l-85 100v51l114 -131v-40zM80 121v49l85 102l-85 100v51l114 -131v-40z" />
    <glyph glyph-name="ellipsis" unicode="&#x2026;" horiz-adv-x="1000" 
d="M807 0v103h51v-103h-51zM474 0v103h51v-103h-51zM141 0v103h51v-103h-51z" />
    <glyph glyph-name="perthousand" unicode="&#x2030;" horiz-adv-x="1074" 
d="M192 669c-76 0 -114 -57 -114 -134s32 -138 114 -138c75 0 114 60 114 138c0 73 -40 134 -114 134zM193 702c96 0 151 -71 151 -167c0 -99 -54 -171 -151 -171c-103 0 -153 70 -153 171c0 96 61 167 153 167zM882 21c75 0 114 60 114 137c0 72 -40 135 -114 135
c-76 0 -114 -58 -114 -135s32 -137 114 -137zM882 -12c-103 0 -152 69 -152 170c0 95 60 168 152 168c95 0 152 -73 152 -168c0 -100 -55 -170 -152 -170zM525 21c75 0 115 60 115 137c0 72 -40 135 -115 135c-76 0 -113 -58 -113 -135s30 -137 113 -137zM527 -12
c-103 0 -153 69 -153 170c0 95 61 168 153 168c96 0 151 -73 151 -168c0 -100 -54 -170 -151 -170zM105 -24l465 738h40l-465 -738h-40z" />
    <glyph glyph-name="questiondown" unicode="&#xbf;" 
d="M287 535v-103h-51v103h51zM437 42h38c0 -142 -78 -238 -222 -238c-107 0 -196 58 -196 179c0 86 44 125 89 170c45 40 98 83 98 201h38c0 -106 -40 -159 -88 -205c-49 -46 -99 -96 -99 -166c0 -99 78 -141 161 -141c120 0 181 85 181 200z" />
    <glyph glyph-name="grave" unicode="`" horiz-adv-x="167" 
d="M141 590h-37l-134 140h51z" />
    <glyph glyph-name="acute" unicode="&#xb4;" horiz-adv-x="167" 
d="M26 590l120 140h51l-134 -140h-37z" />
    <glyph glyph-name="circumflex" unicode="&#x2c6;" horiz-adv-x="167" 
d="M63 730h40l116 -140h-38l-98 115l-97 -115h-38z" />
    <glyph glyph-name="tilde" unicode="&#x2dc;" horiz-adv-x="167" 
d="M-32 609h-29c3 44 31 90 77 90c45 3 96 -55 138 -57c28 0 42 30 45 57h29c-5 -44 -25 -90 -76 -90c-23 0 -48 16 -69 29s-35 20 -43 23c-7 3 -16 5 -25 5c-27 0 -42 -26 -47 -57z" />
    <glyph glyph-name="macron" unicode="&#xaf;" horiz-adv-x="167" 
d="M205 638h-242v33h242v-33z" />
    <glyph glyph-name="breve" unicode="&#x2d8;" horiz-adv-x="167" 
d="M186 720h33c-8 -65 -64 -120 -131 -120c-76 0 -131 44 -140 120h33c17 -70 66 -87 106 -87c52 0 90 35 99 87z" />
    <glyph glyph-name="dotaccent" unicode="&#x2d9;" horiz-adv-x="167" 
d="M105 603h-44v103h44v-103z" />
    <glyph glyph-name="dieresis" unicode="&#xa8;" horiz-adv-x="167" 
d="M184 603h-44v103h44v-103zM26 603h-44v103h44v-103z" />
    <glyph glyph-name="ring" unicode="&#x2da;" horiz-adv-x="167" 
d="M11 670c0 -40 32 -72 72 -72s72 32 72 72s-32 72 -72 72s-72 -32 -72 -72zM-16 670c0 56 43 99 99 99s99 -43 99 -99s-43 -99 -99 -99s-99 43 -99 99z" />
    <glyph glyph-name="cedilla" unicode="&#xb8;" horiz-adv-x="167" 
d="M83 0h34l-48 -56l2 -2c9 4 21 8 37 8c39 1 74 -22 74 -69s-31 -77 -98 -77c-43 0 -75 14 -92 25l11 24c23 -11 45 -22 80 -22c32 0 61 14 61 50c0 29 -28 43 -48 43c-21 0 -38 -5 -53 -12l-16 13z" />
    <glyph glyph-name="hungarumlaut" unicode="&#x2dd;" horiz-adv-x="167" 
d="M139 591h-37l120 140h51zM-19 591h-37l120 140h51z" />
    <glyph glyph-name="ogonek" unicode="&#x2db;" horiz-adv-x="167" 
d="M108 0h24c-66 -58 -82 -90 -82 -121c0 -27 21 -42 42 -42c27 0 40 8 59 35l23 -8c-16 -37 -43 -60 -86 -60c-23 0 -82 5 -82 68c0 31 17 71 102 128z" />
    <glyph glyph-name="caron" unicode="&#x2c7;" horiz-adv-x="167" 
d="M103 590h-40l-115 140h38l97 -115l98 115h38z" />
    <glyph glyph-name="emdash" unicode="&#x2014;" horiz-adv-x="1000" 
d="M130 253v38h740v-38h-740z" />
    <glyph glyph-name="AE" unicode="&#xc6;" horiz-adv-x="870" 
d="M431 292v384h-47l-201 -384h248zM-9 0l373 714h490v-38h-379v-286h350v-38h-350v-314h380v-38h-424v254h-268l-132 -254h-40z" />
    <glyph glyph-name="ordfeminine" unicode="&#xaa;" horiz-adv-x="310" 
d="M61 596h-32c8 71 52 106 132 106c62 0 121 -17 121 -85v-178c0 -19 -1 -37 18 -37h7c3 0 7 1 11 2v-27c-7 -1 -13 -2 -20 -2c-39 0 -45 20 -45 45v14h-2c-12 -36 -56 -68 -123 -68s-115 21 -115 96c0 77 67 90 123 95c109 8 115 14 115 65c0 35 -38 53 -93 53
s-93 -28 -97 -79zM250 498v56c-19 -21 -73 -19 -117 -24c-56 -7 -88 -25 -88 -68c0 -39 29 -69 80 -69c113 0 125 88 125 105z" />
    <glyph glyph-name="Lslash" unicode="&#x141;" horiz-adv-x="500" 
d="M63 714h44v-383l235 143v-36l-235 -142v-258h405v-38h-449v269l-85 -53v38l85 51v409z" />
    <glyph glyph-name="Oslash" unicode="&#xd8;" horiz-adv-x="741" 
d="M34 16l79 86c-53 67 -82 155 -82 255c0 209 126 374 340 374c96 0 175 -34 232 -91l68 74l26 -24l-70 -76c55 -67 83 -156 83 -257c0 -209 -126 -374 -339 -374c-99 0 -178 33 -235 93l-76 -84zM143 134l432 475c-51 52 -119 84 -204 84c-187 0 -296 -153 -296 -336
c0 -85 23 -163 68 -223zM598 582l-433 -474c51 -55 119 -87 206 -87c186 0 295 153 295 336c0 87 -24 165 -68 225z" />
    <glyph glyph-name="OE" unicode="&#x152;" horiz-adv-x="1056" 
d="M617 676v-286h378v-38h-378v-314h424v-38h-468v66h-2c-33 -43 -106 -83 -211 -83c-212 0 -329 163 -329 371c0 203 120 377 337 377c75 0 154 -28 205 -83v66h466v-38h-422zM573 127v451c0 27 -36 58 -57 71c-43 29 -91 44 -144 44c-195 0 -297 -158 -297 -339
s92 -333 288 -333c43 0 87 6 126 27c27 13 84 49 84 79z" />
    <glyph glyph-name="ordmasculine" unicode="&#xba;" horiz-adv-x="334" 
d="M167 393c87 0 126 66 126 141s-39 141 -126 141s-126 -66 -126 -141s39 -141 126 -141zM167 366c-101 0 -158 71 -158 168c0 95 57 168 158 168s158 -73 158 -168c0 -97 -57 -168 -158 -168z" />
    <glyph glyph-name="ae" unicode="&#xe6;" horiz-adv-x="889" 
d="M856 252h-411c-8 -125 56 -231 188 -231c97 0 164 53 179 150h38c-19 -115 -100 -183 -217 -183c-103 0 -182 50 -206 149h-2c-33 -92 -110 -149 -209 -149c-97 0 -184 42 -184 143c0 124 108 149 187 152c88 11 195 -9 187 90c0 83 -49 120 -150 120
c-92 0 -157 -41 -164 -140h-38c8 119 87 173 202 173c92 0 172 -28 180 -131h2c32 89 102 131 195 131c157 0 236 -128 223 -274zM406 201v88h-2c-17 -30 -103 -28 -189 -36c-78 -5 -145 -34 -145 -122c0 -79 74 -110 146 -110c99 0 187 79 190 180zM444 285h374
c3 111 -69 208 -185 208c-124 0 -181 -97 -189 -208z" />
    <glyph glyph-name="dotlessi" unicode="&#x131;" horiz-adv-x="168" 
d="M103 0h-38v514h38v-514z" />
    <glyph glyph-name="lslash" unicode="&#x142;" horiz-adv-x="168" 
d="M65 334v380h38v-350l65 51v-33l-65 -51v-331h-38v301l-65 -51v33z" />
    <glyph glyph-name="oslash" unicode="&#xf8;" horiz-adv-x="537" 
d="M513 490l-58 -62c32 -47 49 -106 49 -171c0 -147 -84 -269 -236 -269c-71 0 -126 26 -165 69l-54 -57l-24 23l57 61c-33 47 -50 106 -50 173c0 146 84 269 236 269c72 0 127 -27 166 -71l55 58zM428 400l-299 -316c33 -39 79 -63 139 -63c128 0 198 113 198 236
c0 52 -11 102 -38 143zM109 112l299 316c-31 39 -79 65 -140 65c-128 0 -198 -113 -198 -236c0 -53 12 -105 39 -145z" />
    <glyph glyph-name="oe" unicode="&#x153;" horiz-adv-x="889" 
d="M464 285h355c0 108 -58 208 -174 208c-123 0 -184 -101 -181 -208zM857 252h-393c-8 -118 46 -231 181 -231c95 0 149 60 170 148h38c-24 -109 -92 -181 -208 -181c-108 0 -181 55 -200 151h-2c-27 -99 -88 -151 -192 -151c-162 0 -219 127 -219 262
c0 147 67 276 222 276c100 0 169 -56 190 -152h2c27 101 94 152 199 152c155 0 220 -133 212 -274zM252 21c140 0 174 126 174 229c0 125 -42 243 -173 243c-140 0 -183 -131 -183 -243c0 -120 54 -229 182 -229z" />
    <glyph glyph-name="germandbls" unicode="&#xdf;" horiz-adv-x="500" 
d="M207 379v33c96 0 183 41 183 148c0 88 -68 133 -150 133c-101 0 -144 -60 -144 -156v-537h-38v537c0 121 58 189 182 189c105 0 188 -54 188 -166c0 -83 -36 -138 -119 -157v-2c104 -12 154 -83 154 -187c0 -195 -141 -214 -201 -214h-55v33h38c58 0 180 16 180 181
c0 132 -95 165 -218 165z" />
    <glyph glyph-name="onesuperior" unicode="&#xb9;" horiz-adv-x="333" 
d="M208 693v-418h-32v371c-31 -31 -70 -49 -117 -53v27c49 7 93 34 120 73h29z" />
    <glyph glyph-name="logicalnot" unicode="&#xac;" horiz-adv-x="600" 
d="M514 108v223h-466v38h504v-261h-38z" />
    <glyph glyph-name="mu" unicode="&#xb5;" 
d="M463 514v-514h-38v110h-2c-27 -77 -103 -122 -184 -122c-55 0 -110 13 -143 56h-2v-228h-38v698h38v-325c0 -52 6 -168 146 -168c116 0 185 90 185 215v278h38z" />
    <glyph glyph-name="trademark" unicode="&#x2122;" horiz-adv-x="990" 
d="M542 714l152 -346l152 346h59v-412h-32v379h-3l-167 -379h-18l-167 379h-3v-379h-32v412h59zM404 714v-33h-143v-379h-32v379h-144v33h319z" />
    <glyph glyph-name="Eth" unicode="&#xd0;" horiz-adv-x="667" 
d="M107 396h264v-33h-264v-325h192c133 0 284 73 284 320c0 292 -187 318 -293 318h-183v-280zM63 396v318h234c256 0 330 -175 330 -356c0 -203 -103 -358 -332 -358h-232v363h-68v33h68z" />
    <glyph glyph-name="onehalf" unicode="&#xbd;" horiz-adv-x="834" 
d="M517 27h266v-27h-300c5 164 265 178 265 310c0 44 -34 90 -111 90c-80 0 -110 -48 -114 -124h-32c5 90 42 151 146 151c80 0 143 -37 143 -118c0 -67 -62 -114 -126 -154c-65 -40 -119 -67 -137 -128zM213 693v-418h-32v371c-31 -31 -70 -49 -117 -53v27
c49 7 93 34 120 73h29zM121 -24l465 738h40l-465 -738h-40z" />
    <glyph glyph-name="plusminus" unicode="&#xb1;" horiz-adv-x="600" 
d="M48 0v38h504v-38h-504zM281 315v189h38v-189h233v-38h-233v-189h-38v189h-233v38h233z" />
    <glyph glyph-name="Thorn" unicode="&#xde;" horiz-adv-x="593" 
d="M107 556v-320h251c129 0 173 85 173 160c0 53 -24 160 -167 160h-257zM63 0v714h44v-120h260c81 0 208 -28 208 -199c0 -127 -81 -197 -224 -197h-244v-198h-44z" />
    <glyph glyph-name="onequarter" unicode="&#xbc;" horiz-adv-x="834" 
d="M641 131v250h-2l-177 -250h179zM626 414h47v-283h71v-27h-71v-104h-32v104h-215v27zM243 693v-418h-32v371c-31 -31 -70 -49 -117 -53v27c49 7 93 34 120 73h29zM151 -24l465 738h40l-465 -738h-40z" />
    <glyph glyph-name="divide" unicode="&#xf7;" horiz-adv-x="600" 
d="M250 51c0 29 23 52 51 52s52 -23 52 -52c0 -28 -24 -51 -52 -51s-51 23 -51 51zM250 452c0 29 23 52 51 52s52 -23 52 -52c0 -28 -24 -51 -52 -51s-51 23 -51 51zM552 233h-504v38h504v-38z" />
    <glyph glyph-name="brokenbar" unicode="&#xa6;" horiz-adv-x="222" 
d="M92 411v250h38v-250h-38zM92 -89v250h38v-250h-38z" />
    <glyph glyph-name="degree" unicode="&#xb0;" horiz-adv-x="400" 
d="M200 416c-80 0 -143 63 -143 143s63 143 143 143s143 -63 143 -143s-63 -143 -143 -143zM200 669c-60 0 -105 -51 -105 -110c0 -61 45 -110 105 -110s105 49 105 110c0 59 -45 110 -105 110z" />
    <glyph glyph-name="thorn" unicode="&#xfe;" horiz-adv-x="556" 
d="M65 -184v898h38v-318h2c16 52 74 130 187 130c157 0 231 -126 231 -270c0 -156 -74 -268 -231 -268c-85 0 -156 35 -187 119h-2v-291h-38zM292 21c133 0 193 108 193 235c0 117 -55 237 -193 237c-137 0 -188 -115 -188 -237c0 -123 43 -235 188 -235z" />
    <glyph glyph-name="threequarters" unicode="&#xbe;" horiz-adv-x="834" 
d="M671 131v250h-2l-177 -250h179zM656 414h47v-283h71v-27h-71v-104h-32v104h-215v27zM198 -24l465 738h40l-465 -738h-40zM33 415h32c-3 -76 48 -122 129 -122c64 0 126 36 126 98c0 74 -75 95 -150 90v27c65 -3 140 15 140 85c0 56 -64 82 -116 82
c-77 0 -115 -48 -118 -116h-32c1 88 55 143 155 143c72 0 143 -30 143 -109c0 -49 -35 -88 -88 -95v-2c61 -7 98 -49 98 -105c0 -85 -69 -125 -153 -125c-109 0 -170 50 -166 149z" />
    <glyph glyph-name="twosuperior" unicode="&#xb2;" horiz-adv-x="333" 
d="M48 302h268v-27h-300c5 164 265 178 265 310c0 44 -34 90 -111 90c-80 0 -110 -48 -114 -124h-32c5 90 42 151 146 151c80 0 143 -37 143 -118c0 -67 -62 -114 -126 -154c-63 -40 -121 -68 -139 -128z" />
    <glyph glyph-name="registered" unicode="&#xae;" horiz-adv-x="800" 
d="M400 731c207 0 374 -167 374 -374s-167 -374 -374 -374s-374 167 -374 374s167 374 374 374zM401 698c-193 0 -337 -148 -337 -341c0 -189 146 -341 337 -341s335 154 335 342c0 191 -143 340 -335 340zM302 545v-172h94c67 0 140 8 140 84c0 68 -59 88 -112 88h-122z
M264 136v442h166c100 0 144 -42 144 -122c0 -72 -51 -108 -114 -117l132 -203h-42l-133 204h-115v-204h-38z" />
    <glyph glyph-name="minus" unicode="&#x2212;" horiz-adv-x="600" 
d="M552 233h-504v38h504v-38z" />
    <glyph glyph-name="eth" unicode="&#xf0;" horiz-adv-x="537" 
d="M146 582l108 60c-33 25 -70 49 -103 65l28 24c40 -21 76 -45 108 -71l115 64l20 -22l-109 -61c127 -101 191 -225 191 -392c0 -144 -78 -261 -235 -261c-161 0 -237 114 -237 261c0 139 85 257 237 257c60 0 115 -15 163 -74l2 2c-29 68 -87 135 -155 188l-112 -62z
M269 473c-130 0 -199 -108 -199 -224c0 -118 64 -228 199 -228c137 0 197 107 197 228c0 116 -66 224 -197 224z" />
    <glyph glyph-name="multiply" unicode="&#xd7;" horiz-adv-x="600" 
d="M79 58l194 194l-194 195l26 27l195 -195l194 195l27 -27l-194 -195l194 -194l-27 -27l-194 195l-195 -195z" />
    <glyph glyph-name="threesuperior" unicode="&#xb3;" horiz-adv-x="333" 
d="M18 415h32c-3 -76 48 -122 129 -122c64 0 126 36 126 98c0 74 -75 95 -150 90v27c65 -3 140 15 140 85c0 56 -64 82 -116 82c-77 0 -115 -48 -118 -116h-32c1 88 55 143 155 143c72 0 143 -30 143 -109c0 -49 -35 -88 -88 -95v-2c61 -7 98 -49 98 -105
c0 -85 -69 -125 -153 -125c-109 0 -170 50 -166 149z" />
    <glyph glyph-name="copyright" unicode="&#xa9;" horiz-adv-x="800" 
d="M400 731c207 0 374 -167 374 -374s-167 -374 -374 -374s-374 167 -374 374s167 374 374 374zM599 438h-38c-15 76 -75 122 -152 122c-117 0 -186 -85 -186 -201c0 -112 72 -206 188 -206c81 0 131 52 150 128h38c-13 -97 -91 -161 -188 -161c-137 0 -226 102 -226 238
c0 137 85 235 223 235c96 0 178 -55 191 -155zM401 698c-193 0 -337 -148 -337 -340c0 -190 146 -342 337 -342s335 154 335 342c0 191 -143 340 -335 340z" />
    <glyph glyph-name="Aacute" unicode="&#xc1;" horiz-adv-x="593" 
d="M140 267h314l-153 404h-2zM275 714h48l282 -714h-47l-90 229h-342l-91 -229h-47zM275 780l120 140h51l-134 -140h-37z" />
    <glyph glyph-name="Acircumflex" unicode="&#xc2;" horiz-adv-x="593" 
d="M140 267h314l-153 404h-2zM275 714h48l282 -714h-47l-90 229h-342l-91 -229h-47zM279 920h40l116 -140h-38l-98 115l-97 -115h-38z" />
    <glyph glyph-name="Adieresis" unicode="&#xc4;" horiz-adv-x="593" 
d="M140 267h314l-153 404h-2zM275 714h48l282 -714h-47l-90 229h-342l-91 -229h-47zM401 793h-44v103h44v-103zM243 793h-44v103h44v-103z" />
    <glyph glyph-name="Agrave" unicode="&#xc0;" horiz-adv-x="593" 
d="M140 267h314l-153 404h-2zM275 714h48l282 -714h-47l-90 229h-342l-91 -229h-47zM323 780h-37l-134 140h51z" />
    <glyph glyph-name="Aring" unicode="&#xc5;" horiz-adv-x="593" 
d="M140 267h314l-153 404h-2zM275 714h48l282 -714h-47l-90 229h-342l-91 -229h-47zM227 850c0 -40 32 -72 72 -72s72 32 72 72s-32 72 -72 72s-72 -32 -72 -72zM200 850c0 56 43 99 99 99s99 -43 99 -99s-43 -99 -99 -99s-99 43 -99 99z" />
    <glyph glyph-name="Atilde" unicode="&#xc3;" horiz-adv-x="593" 
d="M140 267h314l-153 404h-2zM275 714h48l282 -714h-47l-90 229h-342l-91 -229h-47zM185 799h-29c3 44 31 90 77 90c45 3 96 -55 138 -57c28 0 42 30 45 57h29c-5 -44 -25 -90 -76 -90c-23 0 -48 16 -69 29s-35 20 -43 23c-7 3 -16 5 -25 5c-27 0 -42 -26 -47 -57z" />
    <glyph glyph-name="Ccedilla" unicode="&#xc7;" horiz-adv-x="704" 
d="M663 501h-44c-19 120 -124 192 -243 192c-187 0 -296 -153 -296 -336s109 -336 296 -336c140 0 247 124 255 257h44c-16 -171 -142 -295 -299 -295h-1l-33 -39l2 -2c9 4 21 8 37 8c39 1 74 -22 74 -69s-31 -77 -98 -77c-43 0 -75 14 -92 25l11 24c23 -11 45 -22 80 -22
c32 0 61 14 61 50c0 29 -28 43 -48 43c-21 0 -38 -5 -53 -12l-16 13l44 59c-41 3 -78 13 -112 28c-125 58 -196 187 -196 345c0 209 126 374 340 374c252 0 287 -220 287 -230z" />
    <glyph glyph-name="Eacute" unicode="&#xc9;" horiz-adv-x="560" 
d="M107 38h441v-38h-485v714h480v-38h-436v-286h410v-38h-410v-314zM283 780l120 140h51l-134 -140h-37z" />
    <glyph glyph-name="Ecircumflex" unicode="&#xca;" horiz-adv-x="560" 
d="M107 38h441v-38h-485v714h480v-38h-436v-286h410v-38h-410v-314zM277 920h40l116 -140h-38l-98 115l-97 -115h-38z" />
    <glyph glyph-name="Edieresis" unicode="&#xcb;" horiz-adv-x="560" 
d="M107 38h441v-38h-485v714h480v-38h-436v-286h410v-38h-410v-314zM405 793h-44v103h44v-103zM247 793h-44v103h44v-103z" />
    <glyph glyph-name="Egrave" unicode="&#xc8;" horiz-adv-x="560" 
d="M107 38h441v-38h-485v714h480v-38h-436v-286h410v-38h-410v-314zM343 780h-37l-134 140h51z" />
    <glyph glyph-name="Iacute" unicode="&#xcd;" horiz-adv-x="170" 
d="M63 0v714h44v-714h-44zM64 780l120 140h51l-134 -140h-37z" />
    <glyph glyph-name="Icircumflex" unicode="&#xce;" horiz-adv-x="170" 
d="M63 0v714h44v-714h-44zM65 920h40l116 -140h-38l-98 115l-97 -115h-38z" />
    <glyph glyph-name="Idieresis" unicode="&#xcf;" horiz-adv-x="170" 
d="M63 0v714h44v-714h-44zM186 793h-44v103h44v-103zM28 793h-44v103h44v-103z" />
    <glyph glyph-name="Igrave" unicode="&#xcc;" horiz-adv-x="170" 
d="M63 0v714h44v-714h-44zM108 780h-37l-134 140h51z" />
    <glyph glyph-name="Ntilde" unicode="&#xd1;" horiz-adv-x="678" 
d="M63 0v714h55l451 -655h2v655h44v-714h-52l-454 660h-2v-660h-44zM235 799h-29c3 44 31 90 77 90c45 3 96 -55 138 -57c28 0 42 30 45 57h29c-5 -44 -25 -90 -76 -90c-23 0 -48 16 -69 29s-35 20 -43 23c-7 3 -16 5 -25 5c-27 0 -42 -26 -47 -57z" />
    <glyph glyph-name="Oacute" unicode="&#xd3;" horiz-adv-x="741" 
d="M75 357c0 -183 109 -336 296 -336c186 0 295 153 295 336s-109 336 -295 336c-187 0 -296 -153 -296 -336zM710 357c0 -209 -126 -374 -339 -374c-214 0 -340 165 -340 374s126 374 340 374c213 0 339 -165 339 -374zM337 780l120 140h51l-134 -140h-37z" />
    <glyph glyph-name="Ocircumflex" unicode="&#xd4;" horiz-adv-x="741" 
d="M75 357c0 -183 109 -336 296 -336c186 0 295 153 295 336s-109 336 -295 336c-187 0 -296 -153 -296 -336zM710 357c0 -209 -126 -374 -339 -374c-214 0 -340 165 -340 374s126 374 340 374c213 0 339 -165 339 -374zM352 920h40l116 -140h-38l-98 115l-97 -115h-38z" />
    <glyph glyph-name="Odieresis" unicode="&#xd6;" horiz-adv-x="741" 
d="M75 357c0 -183 109 -336 296 -336c186 0 295 153 295 336s-109 336 -295 336c-187 0 -296 -153 -296 -336zM710 357c0 -209 -126 -374 -339 -374c-214 0 -340 165 -340 374s126 374 340 374c213 0 339 -165 339 -374zM474 793h-44v103h44v-103zM316 793h-44v103h44v-103z
" />
    <glyph glyph-name="Ograve" unicode="&#xd2;" horiz-adv-x="741" 
d="M75 357c0 -183 109 -336 296 -336c186 0 295 153 295 336s-109 336 -295 336c-187 0 -296 -153 -296 -336zM710 357c0 -209 -126 -374 -339 -374c-214 0 -340 165 -340 374s126 374 340 374c213 0 339 -165 339 -374zM401 780h-37l-134 140h51z" />
    <glyph glyph-name="Otilde" unicode="&#xd5;" horiz-adv-x="741" 
d="M75 357c0 -183 109 -336 296 -336c186 0 295 153 295 336s-109 336 -295 336c-187 0 -296 -153 -296 -336zM710 357c0 -209 -126 -374 -339 -374c-214 0 -340 165 -340 374s126 374 340 374c213 0 339 -165 339 -374zM256 799h-29c3 44 31 90 77 90c45 3 96 -55 138 -57
c28 0 42 30 45 57h29c-5 -44 -25 -90 -76 -90c-23 0 -48 16 -69 29s-35 20 -43 23c-7 3 -16 5 -25 5c-27 0 -42 -26 -47 -57z" />
    <glyph glyph-name="Scaron" unicode="&#x160;" horiz-adv-x="630" 
d="M573 510h-44c-5 122 -97 183 -229 183c-81 0 -196 -34 -196 -152c0 -115 122 -135 243 -159c122 -24 244 -58 244 -198c0 -148 -142 -201 -251 -201c-167 0 -304 69 -301 253h44c-8 -156 115 -215 257 -215c85 0 207 39 207 163c0 120 -122 143 -244 167
c-121 24 -243 55 -243 190c0 137 127 190 240 190c149 0 265 -64 273 -221zM339 780h-40l-115 140h38l97 -115l98 115h38z" />
    <glyph glyph-name="Uacute" unicode="&#xda;" horiz-adv-x="672" 
d="M63 714h44v-428c0 -85 17 -265 224 -265c175 0 234 102 234 265v428h44v-428c0 -170 -65 -303 -278 -303c-254 0 -268 208 -268 303v428zM292 780l120 140h51l-134 -140h-37z" />
    <glyph glyph-name="Ucircumflex" unicode="&#xdb;" horiz-adv-x="672" 
d="M63 714h44v-428c0 -85 17 -265 224 -265c175 0 234 102 234 265v428h44v-428c0 -170 -65 -303 -278 -303c-254 0 -268 208 -268 303v428zM314 920h40l116 -140h-38l-98 115l-97 -115h-38z" />
    <glyph glyph-name="Udieresis" unicode="&#xdc;" horiz-adv-x="672" 
d="M63 714h44v-428c0 -85 17 -265 224 -265c175 0 234 102 234 265v428h44v-428c0 -170 -65 -303 -278 -303c-254 0 -268 208 -268 303v428zM440 793h-44v103h44v-103zM282 793h-44v103h44v-103z" />
    <glyph glyph-name="Ugrave" unicode="&#xd9;" horiz-adv-x="672" 
d="M63 714h44v-428c0 -85 17 -265 224 -265c175 0 234 102 234 265v428h44v-428c0 -170 -65 -303 -278 -303c-254 0 -268 208 -268 303v428zM368 780h-37l-134 140h51z" />
    <glyph glyph-name="Yacute" unicode="&#xdd;" horiz-adv-x="574" 
d="M287 336l259 378h49l-287 -415v-299h-44v299l-285 415h50zM264 780l120 140h51l-134 -140h-37z" />
    <glyph glyph-name="Ydieresis" unicode="&#x178;" horiz-adv-x="574" 
d="M287 336l259 378h49l-287 -415v-299h-44v299l-285 415h50zM388 793h-44v103h44v-103zM230 793h-44v103h44v-103z" />
    <glyph glyph-name="Zcaron" unicode="&#x17d;" horiz-adv-x="537" 
d="M28 676v38h501v-38l-484 -638h493v-38h-539v38l482 638h-453zM287 780h-40l-115 140h38l97 -115l98 115h38z" />
    <glyph glyph-name="aacute" unicode="&#xe1;" horiz-adv-x="500" 
d="M435 392v-297c0 -29 -1 -62 34 -62c7 0 16 1 28 3v-32c-11 -3 -20 -4 -31 -4c-60 0 -69 33 -69 75v27h-2c-24 -61 -92 -114 -191 -114c-97 0 -172 37 -172 145c0 121 104 144 189 152c170 11 177 24 177 107c0 23 -26 101 -143 101c-92 0 -153 -48 -158 -137h-38
c5 113 75 170 196 170c90 0 180 -27 180 -134zM397 196v96c-29 -35 -112 -29 -186 -40c-91 -11 -141 -42 -141 -119c0 -63 44 -112 135 -112c173 0 192 148 192 175zM219 590l120 140h51l-134 -140h-37z" />
    <glyph glyph-name="acircumflex" unicode="&#xe2;" horiz-adv-x="500" 
d="M435 392v-297c0 -29 -1 -62 34 -62c7 0 16 1 28 3v-32c-11 -3 -20 -4 -31 -4c-60 0 -69 33 -69 75v27h-2c-24 -61 -92 -114 -191 -114c-97 0 -172 37 -172 145c0 121 104 144 189 152c170 11 177 24 177 107c0 23 -26 101 -143 101c-92 0 -153 -48 -158 -137h-38
c5 113 75 170 196 170c90 0 180 -27 180 -134zM397 196v96c-29 -35 -112 -29 -186 -40c-91 -11 -141 -42 -141 -119c0 -63 44 -112 135 -112c173 0 192 148 192 175zM236 730h40l116 -140h-38l-98 115l-97 -115h-38z" />
    <glyph glyph-name="adieresis" unicode="&#xe4;" horiz-adv-x="500" 
d="M435 392v-297c0 -29 -1 -62 34 -62c7 0 16 1 28 3v-32c-11 -3 -20 -4 -31 -4c-60 0 -69 33 -69 75v27h-2c-24 -61 -92 -114 -191 -114c-97 0 -172 37 -172 145c0 121 104 144 189 152c170 11 177 24 177 107c0 23 -26 101 -143 101c-92 0 -153 -48 -158 -137h-38
c5 113 75 170 196 170c90 0 180 -27 180 -134zM397 196v96c-29 -35 -112 -29 -186 -40c-91 -11 -141 -42 -141 -119c0 -63 44 -112 135 -112c173 0 192 148 192 175zM357 603h-44v103h44v-103zM199 603h-44v103h44v-103z" />
    <glyph glyph-name="agrave" unicode="&#xe0;" horiz-adv-x="500" 
d="M435 392v-297c0 -29 -1 -62 34 -62c7 0 16 1 28 3v-32c-11 -3 -20 -4 -31 -4c-60 0 -69 33 -69 75v27h-2c-24 -61 -92 -114 -191 -114c-97 0 -172 37 -172 145c0 121 104 144 189 152c170 11 177 24 177 107c0 23 -26 101 -143 101c-92 0 -153 -48 -158 -137h-38
c5 113 75 170 196 170c90 0 180 -27 180 -134zM397 196v96c-29 -35 -112 -29 -186 -40c-91 -11 -141 -42 -141 -119c0 -63 44 -112 135 -112c173 0 192 148 192 175zM286 590h-37l-134 140h51z" />
    <glyph glyph-name="aring" unicode="&#xe5;" horiz-adv-x="500" 
d="M435 392v-297c0 -29 -1 -62 34 -62c7 0 16 1 28 3v-32c-11 -3 -20 -4 -31 -4c-60 0 -69 33 -69 75v27h-2c-24 -61 -92 -114 -191 -114c-97 0 -172 37 -172 145c0 121 104 144 189 152c170 11 177 24 177 107c0 23 -26 101 -143 101c-92 0 -153 -48 -158 -137h-38
c5 113 75 170 196 170c90 0 180 -27 180 -134zM397 196v96c-29 -35 -112 -29 -186 -40c-91 -11 -141 -42 -141 -119c0 -63 44 -112 135 -112c173 0 192 148 192 175zM184 670c0 -40 32 -72 72 -72s72 32 72 72s-32 72 -72 72s-72 -32 -72 -72zM157 670c0 56 43 99 99 99
s99 -43 99 -99s-43 -99 -99 -99s-99 43 -99 99z" />
    <glyph glyph-name="atilde" unicode="&#xe3;" horiz-adv-x="500" 
d="M435 392v-297c0 -29 -1 -62 34 -62c7 0 16 1 28 3v-32c-11 -3 -20 -4 -31 -4c-60 0 -69 33 -69 75v27h-2c-24 -61 -92 -114 -191 -114c-97 0 -172 37 -172 145c0 121 104 144 189 152c170 11 177 24 177 107c0 23 -26 101 -143 101c-92 0 -153 -48 -158 -137h-38
c5 113 75 170 196 170c90 0 180 -27 180 -134zM397 196v96c-29 -35 -112 -29 -186 -40c-91 -11 -141 -42 -141 -119c0 -63 44 -112 135 -112c173 0 192 148 192 175zM141 609h-29c3 44 31 90 77 90c45 3 96 -55 138 -57c28 0 42 30 45 57h29c-5 -44 -25 -90 -76 -90
c-23 0 -48 16 -69 29s-35 20 -43 23c-7 3 -16 5 -25 5c-27 0 -42 -26 -47 -57z" />
    <glyph glyph-name="ccedilla" unicode="&#xe7;" 
d="M481 355h-38c-8 91 -81 138 -174 138c-128 0 -198 -114 -198 -231c0 -139 65 -241 198 -241c96 0 166 67 179 160h38c-12 -92 -67 -155 -139 -180c-20 -7 -41 -11 -63 -12l-38 -45l2 -2c9 4 21 8 37 8c39 1 74 -22 74 -69s-31 -77 -98 -77c-43 0 -75 14 -92 25l11 24
c23 -11 45 -22 80 -22c32 0 61 14 61 50c0 29 -28 43 -48 43c-21 0 -38 -5 -53 -12l-16 13l47 64c-35 1 -65 8 -90 21c-88 46 -128 143 -128 252c0 144 84 264 236 264c111 0 201 -55 212 -171z" />
    <glyph glyph-name="eacute" unicode="&#xe9;" 
d="M71 285h377c-3 108 -71 208 -188 208c-114 0 -181 -106 -189 -208zM486 252h-415c-3 -121 62 -231 189 -231c97 0 165 57 184 153h38c-20 -121 -99 -186 -222 -186c-149 0 -230 118 -227 260c-3 141 72 278 227 278c160 0 234 -126 226 -274zM238 590l120 140h51
l-134 -140h-37z" />
    <glyph glyph-name="ecircumflex" unicode="&#xea;" 
d="M71 285h377c-3 108 -71 208 -188 208c-114 0 -181 -106 -189 -208zM486 252h-415c-3 -121 62 -231 189 -231c97 0 165 57 184 153h38c-20 -121 -99 -186 -222 -186c-149 0 -230 118 -227 260c-3 141 72 278 227 278c160 0 234 -126 226 -274zM239 730h40l116 -140h-38
l-98 115l-97 -115h-38z" />
    <glyph glyph-name="edieresis" unicode="&#xeb;" 
d="M71 285h377c-3 108 -71 208 -188 208c-114 0 -181 -106 -189 -208zM486 252h-415c-3 -121 62 -231 189 -231c97 0 165 57 184 153h38c-20 -121 -99 -186 -222 -186c-149 0 -230 118 -227 260c-3 141 72 278 227 278c160 0 234 -126 226 -274zM360 603h-44v103h44v-103z
M202 603h-44v103h44v-103z" />
    <glyph glyph-name="egrave" unicode="&#xe8;" 
d="M71 285h377c-3 108 -71 208 -188 208c-114 0 -181 -106 -189 -208zM486 252h-415c-3 -121 62 -231 189 -231c97 0 165 57 184 153h38c-20 -121 -99 -186 -222 -186c-149 0 -230 118 -227 260c-3 141 72 278 227 278c160 0 234 -126 226 -274zM291 590h-37l-134 140h51z
" />
    <glyph glyph-name="iacute" unicode="&#xed;" horiz-adv-x="168" 
d="M103 0h-38v514h38v-514zM64 590l120 140h51l-134 -140h-37z" />
    <glyph glyph-name="icircumflex" unicode="&#xee;" horiz-adv-x="168" 
d="M103 0h-38v514h38v-514zM64 730h40l116 -140h-38l-98 115l-97 -115h-38z" />
    <glyph glyph-name="idieresis" unicode="&#xef;" horiz-adv-x="168" 
d="M103 0h-38v514h38v-514zM185 603h-44v103h44v-103zM27 603h-44v103h44v-103z" />
    <glyph glyph-name="igrave" unicode="&#xec;" horiz-adv-x="168" 
d="M103 0h-38v514h38v-514zM104 590h-37l-134 140h51z" />
    <glyph glyph-name="ntilde" unicode="&#xf1;" 
d="M56 0v514h38v-110h2c27 77 103 122 184 122c181 0 183 -145 183 -208v-318h-38v325c0 52 -6 168 -146 168c-116 0 -185 -90 -185 -215v-278h-38zM147 609h-29c3 44 31 90 77 90c45 3 96 -55 138 -57c28 0 42 30 45 57h29c-5 -44 -25 -90 -76 -90c-23 0 -48 16 -69 29
s-35 20 -43 23c-7 3 -16 5 -25 5c-27 0 -42 -26 -47 -57z" />
    <glyph glyph-name="oacute" unicode="&#xf3;" horiz-adv-x="537" 
d="M70 257c0 -123 70 -236 198 -236s198 113 198 236s-70 236 -198 236s-198 -113 -198 -236zM32 257c0 146 84 269 236 269s236 -123 236 -269c0 -147 -84 -269 -236 -269s-236 122 -236 269zM245 590l120 140h51l-134 -140h-37z" />
    <glyph glyph-name="ocircumflex" unicode="&#xf4;" horiz-adv-x="537" 
d="M70 257c0 -123 70 -236 198 -236s198 113 198 236s-70 236 -198 236s-198 -113 -198 -236zM32 257c0 146 84 269 236 269s236 -123 236 -269c0 -147 -84 -269 -236 -269s-236 122 -236 269zM248 730h40l116 -140h-38l-98 115l-97 -115h-38z" />
    <glyph glyph-name="odieresis" unicode="&#xf6;" horiz-adv-x="537" 
d="M70 257c0 -123 70 -236 198 -236s198 113 198 236s-70 236 -198 236s-198 -113 -198 -236zM32 257c0 146 84 269 236 269s236 -123 236 -269c0 -147 -84 -269 -236 -269s-236 122 -236 269zM369 603h-44v103h44v-103zM211 603h-44v103h44v-103z" />
    <glyph glyph-name="ograve" unicode="&#xf2;" horiz-adv-x="537" 
d="M70 257c0 -123 70 -236 198 -236s198 113 198 236s-70 236 -198 236s-198 -113 -198 -236zM32 257c0 146 84 269 236 269s236 -123 236 -269c0 -147 -84 -269 -236 -269s-236 122 -236 269zM303 590h-37l-134 140h51z" />
    <glyph glyph-name="otilde" unicode="&#xf5;" horiz-adv-x="537" 
d="M70 257c0 -123 70 -236 198 -236s198 113 198 236s-70 236 -198 236s-198 -113 -198 -236zM32 257c0 146 84 269 236 269s236 -123 236 -269c0 -147 -84 -269 -236 -269s-236 122 -236 269zM153 609h-29c3 44 31 90 77 90c45 3 96 -55 138 -57c28 0 42 30 45 57h29
c-5 -44 -25 -90 -76 -90c-23 0 -48 16 -69 29s-35 20 -43 23c-7 3 -16 5 -25 5c-27 0 -42 -26 -47 -57z" />
    <glyph glyph-name="scaron" unicode="&#x161;" horiz-adv-x="481" 
d="M36 171h38c5 -95 78 -150 170 -150c67 0 163 20 163 109c0 174 -353 54 -353 264c0 101 99 132 186 132c108 0 190 -47 190 -164h-38c0 93 -66 131 -152 131c-69 0 -148 -26 -148 -99c0 -83 88 -94 171 -113c102 -19 182 -44 182 -151c0 -111 -111 -142 -201 -142
c-117 0 -205 63 -208 183zM266 590h-40l-115 140h38l97 -115l98 115h38z" />
    <glyph glyph-name="uacute" unicode="&#xfa;" 
d="M463 514v-514h-38v110h-2c-27 -77 -103 -122 -184 -122c-181 0 -183 145 -183 208v318h38v-325c0 -52 6 -168 146 -168c116 0 185 90 185 215v278h38zM233 590l120 140h51l-134 -140h-37z" />
    <glyph glyph-name="ucircumflex" unicode="&#xfb;" 
d="M463 514v-514h-38v110h-2c-27 -77 -103 -122 -184 -122c-181 0 -183 145 -183 208v318h38v-325c0 -52 6 -168 146 -168c116 0 185 90 185 215v278h38zM234 730h40l116 -140h-38l-98 115l-97 -115h-38z" />
    <glyph glyph-name="udieresis" unicode="&#xfc;" 
d="M463 514v-514h-38v110h-2c-27 -77 -103 -122 -184 -122c-181 0 -183 145 -183 208v318h38v-325c0 -52 6 -168 146 -168c116 0 185 90 185 215v278h38zM356 603h-44v103h44v-103zM198 603h-44v103h44v-103z" />
    <glyph glyph-name="ugrave" unicode="&#xf9;" 
d="M463 514v-514h-38v110h-2c-27 -77 -103 -122 -184 -122c-181 0 -183 145 -183 208v318h38v-325c0 -52 6 -168 146 -168c116 0 185 90 185 215v278h38zM297 590h-37l-134 140h51z" />
    <glyph glyph-name="yacute" unicode="&#xfd;" horiz-adv-x="444" 
d="M209 3l-215 511h45l191 -469l176 469h43l-220 -569c-21 -51 -37 -89 -60 -106c-27 -21 -61 -23 -120 -23v33c55 0 80 6 107 33c15 15 29 53 53 121zM207 590l120 140h51l-134 -140h-37z" />
    <glyph glyph-name="ydieresis" unicode="&#xff;" horiz-adv-x="444" 
d="M209 3l-215 511h45l191 -469l176 469h43l-220 -569c-21 -51 -37 -89 -60 -106c-27 -21 -61 -23 -120 -23v33c55 0 80 6 107 33c15 15 29 53 53 121zM330 603h-44v103h44v-103zM172 603h-44v103h44v-103z" />
    <glyph glyph-name="zcaron" unicode="&#x17e;" horiz-adv-x="426" 
d="M55 33h362v-33h-408v36l345 445h-318v33h365v-36zM231 590h-40l-115 140h38l97 -115l98 115h38z" />
    <glyph glyph-name="Euro" unicode="&#x20ac;" horiz-adv-x="556" 
d="M530 595l-21 -38c-13 44 -41 70 -64 85c-37 24 -76 27 -108 27c-28 0 -96 -1 -149 -56c-45 -45 -67 -124 -72 -183h332l-15 -33h-320c-1 -17 -2 -34 -2 -50s1 -31 2 -46h283l-15 -33h-264c5 -52 22 -113 54 -160c54 -80 125 -87 170 -87c31 0 65 5 96 17
c27 11 57 29 85 61v-46c-19 -17 -40 -32 -69 -43c-35 -15 -78 -22 -117 -22c-85 0 -153 35 -197 98c-36 51 -57 121 -62 182h-65l15 33h48c-3 34 -3 66 0 96h-63l15 33h50c5 72 33 162 94 215s129 57 166 57c41 0 87 -5 127 -30c24 -15 50 -38 66 -77z" />
    <glyph glyph-name="notequal" unicode="&#x2260;" horiz-adv-x="593" 
d="M541 133h-286l-75 -141l-29 15l67 126h-166v33h184l80 150h-264v33h282l76 143l29 -15l-68 -128h170v-33h-188l-81 -150h269v-33z" />
    <glyph glyph-name="infinity" unicode="&#x221e;" horiz-adv-x="722" 
d="M338 243c-45 37 -107 100 -170 100c-56 0 -88 -46 -88 -98c0 -57 33 -98 93 -98c64 0 122 55 165 96zM642 245c0 56 -34 98 -91 98c-59 0 -125 -63 -168 -100c45 -40 102 -97 166 -97c60 0 93 40 93 99zM675 246c0 -76 -47 -133 -126 -133c-77 0 -135 61 -188 109
c-56 -48 -109 -108 -188 -108c-76 0 -126 55 -126 130c0 72 49 132 123 132c75 0 138 -66 191 -111c51 45 116 111 188 111c76 0 126 -55 126 -130z" />
    <glyph glyph-name="lessequal" unicode="&#x2264;" horiz-adv-x="593" 
d="M541 -14h-489v33h489v-33zM541 61l-489 199v36l489 200v-37l-445 -181l445 -180v-37z" />
    <glyph glyph-name="greaterequal" unicode="&#x2265;" horiz-adv-x="593" 
d="M541 -14h-489v33h489v-33zM541 260l-489 -199v37l446 180l-446 181v37l489 -200v-36z" />
    <glyph glyph-name="partialdiff" unicode="&#x2202;" horiz-adv-x="463" 
d="M384 284c-41 56 -98 105 -171 105c-100 0 -150 -90 -150 -180c0 -85 50 -190 148 -190c128 0 165 166 173 265zM424 369c0 -137 -30 -381 -214 -381c-117 0 -183 116 -183 222c0 111 65 211 185 211c72 0 133 -40 176 -97c0 20 1 41 1 61c0 118 -39 303 -189 303
c-47 0 -79 -18 -115 -45l-20 26c40 32 82 52 134 52c181 0 225 -211 225 -352z" />
    <glyph glyph-name="summation" unicode="&#x2211;" horiz-adv-x="593" 
d="M558 -214h-523v32l338 471l-324 464v33h497v-35h-451l322 -462l-338 -468h479v-35z" />
    <glyph glyph-name="product" unicode="&#x220f;" horiz-adv-x="704" 
d="M621 -214h-36v965h-466v-965h-36v1000h538v-1000z" />
    <glyph glyph-name="pi" unicode="&#x3c0;" horiz-adv-x="556" 
d="M525 41v-31c-17 -8 -32 -15 -51 -15c-67 0 -66 52 -66 103v334h-286v-432h-36v432h-70v32h504v-32h-76v-337v-23c0 -24 6 -44 38 -44c15 0 29 4 43 13z" />
    <glyph glyph-name="integral" unicode="&#x222b;" horiz-adv-x="534" 
d="M374 750c0 -16 -12 -26 -27 -26c-30 0 -28 31 -43 31c-41 0 -43 -131 -43 -191v-24l1 -476c0 -75 16 -277 -102 -277c-21 0 -41 11 -41 34c0 13 13 25 26 25c18 0 26 -26 40 -26c37 0 41 126 41 181v23v491c0 73 -19 271 99 271c23 0 49 -9 49 -36z" />
    <glyph glyph-name="Omega" unicode="&#x2126;" horiz-adv-x="731" 
d="M671 0h-230v166c127 21 194 125 194 249c0 153 -120 272 -273 272c-152 0 -271 -121 -271 -272c0 -120 69 -233 195 -249v-166h-232v33h200v105c-129 35 -199 147 -199 278c0 172 137 305 308 305s308 -133 308 -304c0 -134 -67 -239 -198 -279v-105h198v-33z" />
    <glyph glyph-name="radical" unicode="&#x221a;" horiz-adv-x="463" 
d="M467 782l-215 -999h-32l-178 366l-44 -21l-13 27l73 36l173 -359l203 950h33z" />
    <glyph glyph-name="approxequal" unicode="&#x2248;" horiz-adv-x="593" 
d="M520 220h27c-13 -59 -47 -116 -115 -116c-82 0 -210 76 -283 76c-47 0 -80 -40 -88 -83h-29c13 59 47 116 116 116c83 0 209 -76 282 -76c48 0 79 40 90 83zM520 383h27c-14 -60 -47 -115 -115 -115c-85 0 -209 76 -283 76c-47 0 -79 -41 -88 -84h-29
c13 59 47 116 116 116c83 0 202 -75 282 -75c48 0 79 39 90 82z" />
    <glyph glyph-name="Delta" unicode="&#x2206;" horiz-adv-x="639" 
d="M572 35l-255 632l-252 -632h507zM626 0h-612l287 712h34z" />
    <glyph glyph-name="lozenge" unicode="&#x25ca;" horiz-adv-x="593" 
d="M444 356l-148 346l-148 -346l148 -346zM481 356l-170 -391h-30l-169 391l169 391h30z" />
    <glyph glyph-name="commaaccent.alt" horiz-adv-x="278" 
d="M165 767v-20c-17 -4 -28 -13 -31 -33h25v-93h-57v80c0 41 22 63 63 66z" />
    <glyph glyph-name="commaaccent" unicode="&#xf004;" horiz-adv-x="278" 
d="M113 -196v20c17 4 28 13 31 33h-25v93h57v-80c0 -41 -22 -63 -63 -66z" />
    <glyph glyph-name="commaaccent" unicode="&#xf6c3;" horiz-adv-x="278" 
d="M113 -196v20c17 4 28 13 31 33h-25v93h57v-80c0 -41 -22 -63 -63 -66z" />
    <glyph glyph-name="caron.alt" horiz-adv-x="167" 
d="M31 574l65 140h51l-87 -140h-29z" />
    <glyph glyph-name="Amacron" unicode="&#x100;" horiz-adv-x="593" 
d="M140 267h314l-153 404h-2zM275 714h48l282 -714h-47l-90 229h-342l-91 -229h-47zM420 828h-242v33h242v-33z" />
    <glyph glyph-name="Abreve" unicode="&#x102;" horiz-adv-x="593" 
d="M140 267h314l-153 404h-2zM275 714h48l282 -714h-47l-90 229h-342l-91 -229h-47zM402 910h33c-8 -65 -64 -120 -131 -120c-76 0 -131 44 -140 120h33c17 -70 66 -87 106 -87c52 0 90 35 99 87z" />
    <glyph glyph-name="Aogonek" unicode="&#x104;" horiz-adv-x="593" 
d="M605 0h-23c-66 -58 -82 -90 -82 -121c0 -27 21 -42 42 -42c27 0 40 8 59 35l23 -8c-16 -37 -43 -60 -86 -60c-23 0 -82 5 -82 68c0 31 17 71 102 128l-90 229h-342l-91 -229h-47l287 714h48zM140 267h314l-153 404h-2z" />
    <glyph glyph-name="Cacute" unicode="&#x106;" horiz-adv-x="704" 
d="M663 501h-44c-19 120 -124 192 -243 192c-187 0 -296 -153 -296 -336s109 -336 296 -336c140 0 247 124 255 257h44c-16 -171 -142 -295 -299 -295c-214 0 -340 165 -340 374s126 374 340 374c252 0 287 -220 287 -230zM352 780l120 140h51l-134 -140h-37z" />
    <glyph glyph-name="Ccircumflex" unicode="&#x108;" horiz-adv-x="704" 
d="M663 501h-44c-19 120 -124 192 -243 192c-187 0 -296 -153 -296 -336s109 -336 296 -336c140 0 247 124 255 257h44c-16 -171 -142 -295 -299 -295c-214 0 -340 165 -340 374s126 374 340 374c252 0 287 -220 287 -230zM350 920h40l116 -140h-38l-98 115l-97 -115h-38z
" />
    <glyph glyph-name="Ccaron" unicode="&#x10c;" horiz-adv-x="704" 
d="M663 501h-44c-19 120 -124 192 -243 192c-187 0 -296 -153 -296 -336s109 -336 296 -336c140 0 247 124 255 257h44c-16 -171 -142 -295 -299 -295c-214 0 -340 165 -340 374s126 374 340 374c252 0 287 -220 287 -230zM390 780h-40l-115 140h38l97 -115l98 115h38z" />
    <glyph glyph-name="Cdotaccent" unicode="&#x10a;" horiz-adv-x="704" 
d="M663 501h-44c-19 120 -124 192 -243 192c-187 0 -296 -153 -296 -336s109 -336 296 -336c140 0 247 124 255 257h44c-16 -171 -142 -295 -299 -295c-214 0 -340 165 -340 374s126 374 340 374c252 0 287 -220 287 -230zM396 793h-44v103h44v-103z" />
    <glyph glyph-name="Dcaron" unicode="&#x10e;" horiz-adv-x="667" 
d="M63 0v714h234c256 0 330 -175 330 -356c0 -203 -103 -358 -332 -358h-232zM107 676v-638h192c133 0 284 73 284 320c0 292 -187 318 -293 318h-183zM310 780h-40l-115 140h38l97 -115l98 115h38z" />
    <glyph glyph-name="Ecaron" unicode="&#x11a;" horiz-adv-x="560" 
d="M107 38h441v-38h-485v714h480v-38h-436v-286h410v-38h-410v-314zM319 780h-40l-115 140h38l97 -115l98 115h38z" />
    <glyph glyph-name="Emacron" unicode="&#x112;" horiz-adv-x="560" 
d="M107 38h441v-38h-485v714h480v-38h-436v-286h410v-38h-410v-314zM425 828h-242v33h242v-33z" />
    <glyph glyph-name="Ebreve" unicode="&#x114;" horiz-adv-x="560" 
d="M107 38h441v-38h-485v714h480v-38h-436v-286h410v-38h-410v-314zM401 910h33c-8 -65 -64 -120 -131 -120c-76 0 -131 44 -140 120h33c17 -70 66 -87 106 -87c52 0 90 35 99 87z" />
    <glyph glyph-name="Edotaccent" unicode="&#x116;" horiz-adv-x="560" 
d="M107 38h441v-38h-485v714h480v-38h-436v-286h410v-38h-410v-314zM326 793h-44v103h44v-103z" />
    <glyph glyph-name="Eogonek" unicode="&#x118;" horiz-adv-x="560" 
d="M548 0h-41c-66 -58 -82 -90 -82 -121c0 -27 21 -42 42 -42c27 0 40 8 59 35l23 -8c-16 -37 -43 -60 -86 -60c-23 0 -82 5 -82 68c0 31 17 71 102 128h-420v714h480v-38h-436v-286h410v-38h-410v-314h441v-38z" />
    <glyph glyph-name="Gcircumflex" unicode="&#x11c;" horiz-adv-x="741" 
d="M382 350h301v-350h-38v152h-2c-35 -104 -144 -169 -270 -169c-216 0 -336 165 -336 370c0 203 122 378 337 378c147 0 273 -89 297 -238h-42c-33 124 -123 200 -254 200c-192 0 -294 -161 -294 -340c0 -181 98 -332 294 -332c170 0 278 116 270 291h-263v38zM359 920h40
l116 -140h-38l-98 115l-97 -115h-38z" />
    <glyph glyph-name="Gbreve" unicode="&#x11e;" horiz-adv-x="741" 
d="M382 350h301v-350h-38v152h-2c-35 -104 -144 -169 -270 -169c-216 0 -336 165 -336 370c0 203 122 378 337 378c147 0 273 -89 297 -238h-42c-33 124 -123 200 -254 200c-192 0 -294 -161 -294 -340c0 -181 98 -332 294 -332c170 0 278 116 270 291h-263v38zM477 910h33
c-8 -65 -64 -120 -131 -120c-76 0 -131 44 -140 120h33c17 -70 66 -87 106 -87c52 0 90 35 99 87z" />
    <glyph glyph-name="Gdotaccent" unicode="&#x120;" horiz-adv-x="741" 
d="M382 350h301v-350h-38v152h-2c-35 -104 -144 -169 -270 -169c-216 0 -336 165 -336 370c0 203 122 378 337 378c147 0 273 -89 297 -238h-42c-33 124 -123 200 -254 200c-192 0 -294 -161 -294 -340c0 -181 98 -332 294 -332c170 0 278 116 270 291h-263v38zM391 793h-44
v103h44v-103z" />
    <glyph glyph-name="Gcommaaccent" unicode="&#x122;" horiz-adv-x="741" 
d="M382 350h301v-350h-38v152h-2c-35 -104 -144 -169 -270 -169c-216 0 -336 165 -336 370c0 203 122 378 337 378c147 0 273 -89 297 -238h-42c-33 124 -123 200 -254 200c-192 0 -294 -161 -294 -340c0 -181 98 -332 294 -332c170 0 278 116 270 291h-263v38zM335 -196v20
c17 4 28 13 31 33h-25v93h57v-80c0 -41 -22 -63 -63 -66z" />
    <glyph glyph-name="Hcircumflex" unicode="&#x124;" horiz-adv-x="670" 
d="M563 352h-456v-352h-44v714h44v-324h456v324h44v-714h-44v352zM316 920h40l116 -140h-38l-98 115l-97 -115h-38z" />
    <glyph glyph-name="Hbar" unicode="&#x126;" horiz-adv-x="670" 
d="M563 352h-456v-352h-44v714h44v-200h456v200h44v-714h-44v352zM563 481h-456v-91h456v91z" />
    <glyph glyph-name="Itilde" unicode="&#x128;" horiz-adv-x="170" 
d="M63 0v714h44v-714h-44zM-30 799h-29c3 44 31 90 77 90c45 3 96 -55 138 -57c28 0 42 30 45 57h29c-5 -44 -25 -90 -76 -90c-23 0 -48 16 -69 29s-35 20 -43 23c-7 3 -16 5 -25 5c-27 0 -42 -26 -47 -57z" />
    <glyph glyph-name="Imacron" unicode="&#x12a;" horiz-adv-x="170" 
d="M63 0v714h44v-714h-44zM206 828h-242v33h242v-33z" />
    <glyph glyph-name="Idotaccent" unicode="&#x130;" horiz-adv-x="170" 
d="M63 0v714h44v-714h-44zM107 793h-44v103h44v-103z" />
    <glyph glyph-name="Iogonek" unicode="&#x12e;" horiz-adv-x="170" 
d="M107 714v-714c-60 -58 -74 -90 -74 -121c0 -27 18 -42 38 -42c24 0 36 8 53 35l21 -8c-15 -37 -39 -60 -78 -60c-20 0 -74 5 -74 68c0 30 16 71 92 128h-22v714h44z" />
    <glyph glyph-name="Jcircumflex" unicode="&#x134;" horiz-adv-x="481" 
d="M20 227h44c-8 -106 13 -206 153 -206c164 0 157 117 157 216v477h44v-492c0 -84 3 -239 -196 -239c-193 0 -202 137 -202 244zM372 920h40l116 -140h-38l-98 115l-97 -115h-38z" />
    <glyph glyph-name="Kcommaaccent" unicode="&#x136;" horiz-adv-x="613" 
d="M63 0v714h44v-411l449 411h57l-326 -297l346 -417h-55l-323 387l-148 -135v-252h-44zM291 -196v20c17 4 28 13 31 33h-25v93h57v-80c0 -41 -22 -63 -63 -66z" />
    <glyph glyph-name="Lacute" unicode="&#x139;" horiz-adv-x="500" 
d="M63 0v714h44v-676h405v-38h-449zM65 780l120 140h51l-134 -140h-37z" />
    <glyph glyph-name="Lcaron" unicode="&#x13d;" horiz-adv-x="500" 
d="M63 0v714h44v-676h405v-38h-449zM211 574l65 140h51l-87 -140h-29z" />
    <glyph glyph-name="Lcommaaccent" unicode="&#x13b;" horiz-adv-x="500" 
d="M63 0v714h44v-676h405v-38h-449zM239 -196v20c17 4 28 13 31 33h-25v93h57v-80c0 -41 -22 -63 -63 -66z" />
    <glyph glyph-name="Ldot" unicode="&#x13f;" horiz-adv-x="500" 
d="M63 0v714h44v-676h405v-38h-449zM308 411h-44v103h44v-103z" />
    <glyph glyph-name="Nacute" unicode="&#x143;" horiz-adv-x="678" 
d="M63 0v714h55l451 -655h2v655h44v-714h-52l-454 660h-2v-660h-44zM316 780l120 140h51l-134 -140h-37z" />
    <glyph glyph-name="Ncaron" unicode="&#x147;" horiz-adv-x="678" 
d="M63 0v714h55l451 -655h2v655h44v-714h-52l-454 660h-2v-660h-44zM356 780h-40l-115 140h38l97 -115l98 115h38z" />
    <glyph glyph-name="Ncommaaccent" unicode="&#x145;" horiz-adv-x="678" 
d="M63 0v714h55l451 -655h2v655h44v-714h-52l-454 660h-2v-660h-44zM300 -196v20c17 4 28 13 31 33h-25v93h57v-80c0 -41 -22 -63 -63 -66z" />
    <glyph glyph-name="Omacron" unicode="&#x14c;" horiz-adv-x="741" 
d="M75 357c0 -183 109 -336 296 -336c186 0 295 153 295 336s-109 336 -295 336c-187 0 -296 -153 -296 -336zM710 357c0 -209 -126 -374 -339 -374c-214 0 -340 165 -340 374s126 374 340 374c213 0 339 -165 339 -374zM493 828h-242v33h242v-33z" />
    <glyph glyph-name="Obreve" unicode="&#x14e;" horiz-adv-x="741" 
d="M75 357c0 -183 109 -336 296 -336c186 0 295 153 295 336s-109 336 -295 336c-187 0 -296 -153 -296 -336zM710 357c0 -209 -126 -374 -339 -374c-214 0 -340 165 -340 374s126 374 340 374c213 0 339 -165 339 -374zM472 910h33c-8 -65 -64 -120 -131 -120
c-76 0 -131 44 -140 120h33c17 -70 66 -87 106 -87c52 0 90 35 99 87z" />
    <glyph glyph-name="Ohungarumlaut" unicode="&#x150;" horiz-adv-x="741" 
d="M75 357c0 -183 109 -336 296 -336c186 0 295 153 295 336s-109 336 -295 336c-187 0 -296 -153 -296 -336zM710 357c0 -209 -126 -374 -339 -374c-214 0 -340 165 -340 374s126 374 340 374c213 0 339 -165 339 -374zM468 781h-37l120 140h51zM310 781h-37l120 140h51z
" />
    <glyph glyph-name="Racute" unicode="&#x154;" horiz-adv-x="630" 
d="M63 0v714h298c125 0 226 -46 226 -184c0 -96 -57 -167 -153 -183v-2c131 -16 142 -115 142 -209c0 -55 -1 -109 21 -136h-49c-55 99 65 325 -187 325h-254v-325h-44zM107 363h254c104 0 182 49 182 164c0 108 -86 149 -182 149h-254v-313zM270 780l120 140h51l-134 -140
h-37z" />
    <glyph glyph-name="Rcaron" unicode="&#x158;" horiz-adv-x="630" 
d="M63 0v714h298c125 0 226 -46 226 -184c0 -96 -57 -167 -153 -183v-2c131 -16 142 -115 142 -209c0 -55 -1 -109 21 -136h-49c-55 99 65 325 -187 325h-254v-325h-44zM107 363h254c104 0 182 49 182 164c0 108 -86 149 -182 149h-254v-313zM313 780h-40l-115 140h38
l97 -115l98 115h38z" />
    <glyph glyph-name="Rcommaaccent" unicode="&#x156;" horiz-adv-x="630" 
d="M63 0v714h298c125 0 226 -46 226 -184c0 -96 -57 -167 -153 -183v-2c131 -16 142 -115 142 -209c0 -55 -1 -109 21 -136h-49c-55 99 65 325 -187 325h-254v-325h-44zM107 363h254c104 0 182 49 182 164c0 108 -86 149 -182 149h-254v-313zM286 -196v20c17 4 28 13 31 33
h-25v93h57v-80c0 -41 -22 -63 -63 -66z" />
    <glyph glyph-name="Sacute" unicode="&#x15a;" horiz-adv-x="630" 
d="M573 510h-44c-5 122 -97 183 -229 183c-81 0 -196 -34 -196 -152c0 -115 122 -135 243 -159c122 -24 244 -58 244 -198c0 -148 -142 -201 -251 -201c-167 0 -304 69 -301 253h44c-8 -156 115 -215 257 -215c85 0 207 39 207 163c0 120 -122 143 -244 167
c-121 24 -243 55 -243 190c0 137 127 190 240 190c149 0 265 -64 273 -221zM292 780l120 140h51l-134 -140h-37z" />
    <glyph glyph-name="Scircumflex" unicode="&#x15c;" horiz-adv-x="630" 
d="M573 510h-44c-5 122 -97 183 -229 183c-81 0 -196 -34 -196 -152c0 -115 122 -135 243 -159c122 -24 244 -58 244 -198c0 -148 -142 -201 -251 -201c-167 0 -304 69 -301 253h44c-8 -156 115 -215 257 -215c85 0 207 39 207 163c0 120 -122 143 -244 167
c-121 24 -243 55 -243 190c0 137 127 190 240 190c149 0 265 -64 273 -221zM297 920h40l116 -140h-38l-98 115l-97 -115h-38z" />
    <glyph glyph-name="Scedilla" unicode="&#x15e;" horiz-adv-x="630" 
d="M573 510h-44c-5 122 -97 183 -229 183c-81 0 -196 -34 -196 -152c0 -115 122 -135 243 -159c122 -24 244 -58 244 -198c0 -148 -142 -201 -251 -201c-9 0 -17 0 -25 1l-33 -40l2 -2c9 4 21 8 37 8c39 1 74 -22 74 -69s-31 -77 -98 -77c-43 0 -75 14 -92 25l11 24
c23 -11 45 -22 80 -22c32 0 61 14 61 50c0 29 -28 43 -48 43c-21 0 -38 -5 -53 -12l-16 13l45 61c-22 2 -43 6 -63 11c-108 26 -185 103 -183 239h44c-8 -156 115 -215 257 -215c85 0 207 39 207 163c0 120 -122 143 -244 167c-121 24 -243 55 -243 190
c0 137 127 190 240 190c149 0 265 -64 273 -221z" />
    <glyph glyph-name="Scedilla" unicode="&#xf6c1;" horiz-adv-x="630" 
d="M573 510h-44c-5 122 -97 183 -229 183c-81 0 -196 -34 -196 -152c0 -115 122 -135 243 -159c122 -24 244 -58 244 -198c0 -148 -142 -201 -251 -201c-9 0 -17 0 -25 1l-33 -40l2 -2c9 4 21 8 37 8c39 1 74 -22 74 -69s-31 -77 -98 -77c-43 0 -75 14 -92 25l11 24
c23 -11 45 -22 80 -22c32 0 61 14 61 50c0 29 -28 43 -48 43c-21 0 -38 -5 -53 -12l-16 13l45 61c-22 2 -43 6 -63 11c-108 26 -185 103 -183 239h44c-8 -156 115 -215 257 -215c85 0 207 39 207 163c0 120 -122 143 -244 167c-121 24 -243 55 -243 190
c0 137 127 190 240 190c149 0 265 -64 273 -221z" />
    <glyph glyph-name="Scommaaccent" unicode="&#x218;" horiz-adv-x="630" 
d="M573 510h-44c-5 122 -97 183 -229 183c-81 0 -196 -34 -196 -152c0 -115 122 -135 243 -159c122 -24 244 -58 244 -198c0 -148 -142 -201 -251 -201c-167 0 -304 69 -301 253h44c-8 -156 115 -215 257 -215c85 0 207 39 207 163c0 120 -122 143 -244 167
c-121 24 -243 55 -243 190c0 137 127 190 240 190c149 0 265 -64 273 -221zM293 -196v20c17 4 28 13 31 33h-25v93h57v-80c0 -41 -22 -63 -63 -66z" />
    <glyph glyph-name="Tcaron" unicode="&#x164;" 
d="M237 676h-251v38h547v-38h-252v-676h-44v676zM279 780h-40l-115 140h38l97 -115l98 115h38z" />
    <glyph glyph-name="Tcommaaccent" unicode="&#x162;" 
d="M237 676h-251v38h547v-38h-252v-676h-44v676zM228 -196v20c17 4 28 13 31 33h-25v93h57v-80c0 -41 -22 -63 -63 -66z" />
    <glyph glyph-name="Tbar" unicode="&#x166;" 
d="M237 676h-251v38h547v-38h-252v-192h159v-33h-159v-451h-44v451h-159v33h159v192z" />
    <glyph glyph-name="Utilde" unicode="&#x168;" horiz-adv-x="672" 
d="M63 714h44v-428c0 -85 17 -265 224 -265c175 0 234 102 234 265v428h44v-428c0 -170 -65 -303 -278 -303c-254 0 -268 208 -268 303v428zM223 799h-29c3 44 31 90 77 90c45 3 96 -55 138 -57c28 0 42 30 45 57h29c-5 -44 -25 -90 -76 -90c-23 0 -48 16 -69 29
s-35 20 -43 23c-7 3 -16 5 -25 5c-27 0 -42 -26 -47 -57z" />
    <glyph glyph-name="Umacron" unicode="&#x16a;" horiz-adv-x="672" 
d="M63 714h44v-428c0 -85 17 -265 224 -265c175 0 234 102 234 265v428h44v-428c0 -170 -65 -303 -278 -303c-254 0 -268 208 -268 303v428zM457 828h-242v33h242v-33z" />
    <glyph glyph-name="Ubreve" unicode="&#x16c;" horiz-adv-x="672" 
d="M63 714h44v-428c0 -85 17 -265 224 -265c175 0 234 102 234 265v428h44v-428c0 -170 -65 -303 -278 -303c-254 0 -268 208 -268 303v428zM437 910h33c-8 -65 -64 -120 -131 -120c-76 0 -131 44 -140 120h33c17 -70 66 -87 106 -87c52 0 90 35 99 87z" />
    <glyph glyph-name="Uring" unicode="&#x16e;" horiz-adv-x="672" 
d="M63 714h44v-428c0 -85 17 -265 224 -265c175 0 234 102 234 265v428h44v-428c0 -170 -65 -303 -278 -303c-254 0 -268 208 -268 303v428zM259 850c0 -40 32 -72 72 -72s72 32 72 72s-32 72 -72 72s-72 -32 -72 -72zM232 850c0 56 43 99 99 99s99 -43 99 -99
s-43 -99 -99 -99s-99 43 -99 99z" />
    <glyph glyph-name="Uhungarumlaut" unicode="&#x170;" horiz-adv-x="672" 
d="M63 714h44v-428c0 -85 17 -265 224 -265c175 0 234 102 234 265v428h44v-428c0 -170 -65 -303 -278 -303c-254 0 -268 208 -268 303v428zM423 781h-37l120 140h51zM265 781h-37l120 140h51z" />
    <glyph glyph-name="Uogonek" unicode="&#x172;" horiz-adv-x="672" 
d="M63 714h44v-428c0 -85 17 -265 224 -265c175 0 234 102 234 265v428h44v-428c0 -129 -36 -232 -145 -280c-29 -12 -63 -19 -104 -22c-8 -9 -15 -16 -22 -23c-30 -36 -41 -57 -41 -82c0 -27 21 -42 42 -42c27 0 40 8 59 35l23 -8c-16 -37 -43 -60 -86 -60
c-23 0 -82 5 -82 68c0 22 8 51 50 89c8 7 17 15 28 22c-254 0 -268 208 -268 303v428z" />
    <glyph glyph-name="Wcircumflex" unicode="&#x174;" horiz-adv-x="889" 
d="M200 0l-206 714h45l186 -667h2l189 667h55l192 -667h2l183 667h47l-205 -714h-50l-196 676h-2l-193 -676h-49zM423 920h40l116 -140h-38l-98 115l-97 -115h-38z" />
    <glyph glyph-name="Ycircumflex" unicode="&#x176;" horiz-adv-x="574" 
d="M287 336l259 378h49l-287 -415v-299h-44v299l-285 415h50zM268 920h40l116 -140h-38l-98 115l-97 -115h-38z" />
    <glyph glyph-name="Zacute" unicode="&#x179;" horiz-adv-x="537" 
d="M28 676v38h501v-38l-484 -638h493v-38h-539v38l482 638h-453zM248 780l120 140h51l-134 -140h-37z" />
    <glyph glyph-name="Zdotaccent" unicode="&#x17b;" horiz-adv-x="537" 
d="M28 676v38h501v-38l-484 -638h493v-38h-539v38l482 638h-453zM295 793h-44v103h44v-103z" />
    <glyph glyph-name="amacron" unicode="&#x101;" horiz-adv-x="500" 
d="M435 392v-297c0 -29 -1 -62 34 -62c7 0 16 1 28 3v-32c-11 -3 -20 -4 -31 -4c-60 0 -69 33 -69 75v27h-2c-24 -61 -92 -114 -191 -114c-97 0 -172 37 -172 145c0 121 104 144 189 152c170 11 177 24 177 107c0 23 -26 101 -143 101c-92 0 -153 -48 -158 -137h-38
c5 113 75 170 196 170c90 0 180 -27 180 -134zM397 196v96c-29 -35 -112 -29 -186 -40c-91 -11 -141 -42 -141 -119c0 -63 44 -112 135 -112c173 0 192 148 192 175zM381 638h-242v33h242v-33z" />
    <glyph glyph-name="abreve" unicode="&#x103;" horiz-adv-x="500" 
d="M435 392v-297c0 -29 -1 -62 34 -62c7 0 16 1 28 3v-32c-11 -3 -20 -4 -31 -4c-60 0 -69 33 -69 75v27h-2c-24 -61 -92 -114 -191 -114c-97 0 -172 37 -172 145c0 121 104 144 189 152c170 11 177 24 177 107c0 23 -26 101 -143 101c-92 0 -153 -48 -158 -137h-38
c5 113 75 170 196 170c90 0 180 -27 180 -134zM397 196v96c-29 -35 -112 -29 -186 -40c-91 -11 -141 -42 -141 -119c0 -63 44 -112 135 -112c173 0 192 148 192 175zM352 720h33c-8 -65 -64 -120 -131 -120c-76 0 -131 44 -140 120h33c17 -70 66 -87 106 -87
c52 0 90 35 99 87z" />
    <glyph glyph-name="aogonek" unicode="&#x105;" horiz-adv-x="500" 
d="M435 392v-297c0 -29 -1 -62 34 -62c7 0 16 1 28 3v-32c-11 -3 -20 -4 -31 -4h-10c-66 -58 -82 -90 -82 -121c0 -27 21 -42 42 -42c27 0 40 8 59 35l23 -8c-16 -37 -43 -60 -86 -60c-23 0 -82 5 -82 68c0 22 8 51 50 89c13 11 32 25 56 42c-3 1 -5 2 -7 3
c-26 12 -32 37 -32 69v27h-2c-24 -61 -92 -114 -191 -114c-97 0 -172 37 -172 145c0 121 104 144 189 152c170 11 177 24 177 107c0 23 -26 101 -143 101c-92 0 -153 -48 -158 -137h-38c5 113 75 170 196 170c90 0 180 -27 180 -134zM397 196v96c-29 -35 -112 -29 -186 -40
c-91 -11 -141 -42 -141 -119c0 -63 44 -112 135 -112c173 0 192 148 192 175z" />
    <glyph glyph-name="cacute" unicode="&#x107;" 
d="M481 355h-38c-8 91 -81 138 -174 138c-128 0 -198 -114 -198 -231c0 -139 65 -241 198 -241c96 0 166 67 179 160h38c-16 -123 -107 -193 -217 -193c-167 0 -236 130 -236 274s84 264 236 264c111 0 201 -55 212 -171zM245 590l120 140h51l-134 -140h-37z" />
    <glyph glyph-name="ccircumflex" unicode="&#x109;" 
d="M481 355h-38c-8 91 -81 138 -174 138c-128 0 -198 -114 -198 -231c0 -139 65 -241 198 -241c96 0 166 67 179 160h38c-16 -123 -107 -193 -217 -193c-167 0 -236 130 -236 274s84 264 236 264c111 0 201 -55 212 -171zM250 730h40l116 -140h-38l-98 115l-97 -115h-38z
" />
    <glyph glyph-name="ccaron" unicode="&#x10d;" 
d="M481 355h-38c-8 91 -81 138 -174 138c-128 0 -198 -114 -198 -231c0 -139 65 -241 198 -241c96 0 166 67 179 160h38c-16 -123 -107 -193 -217 -193c-167 0 -236 130 -236 274s84 264 236 264c111 0 201 -55 212 -171zM284 590h-40l-115 140h38l97 -115l98 115h38z" />
    <glyph glyph-name="cdotaccent" unicode="&#x10b;" 
d="M481 355h-38c-8 91 -81 138 -174 138c-128 0 -198 -114 -198 -231c0 -139 65 -241 198 -241c96 0 166 67 179 160h38c-16 -123 -107 -193 -217 -193c-167 0 -236 130 -236 274s84 264 236 264c111 0 201 -55 212 -171zM290 603h-44v103h44v-103z" />
    <glyph glyph-name="dcaron" unicode="&#x10f;" horiz-adv-x="615" 
d="M453 0v110h-2c-43 -81 -105 -122 -197 -122c-155 0 -222 127 -222 268c0 152 74 270 229 270c84 0 163 -46 190 -127h2v315h38v-714h-38zM262 21c130 0 190 117 190 235c0 120 -59 237 -191 237c-136 0 -191 -113 -191 -237c0 -121 60 -235 192 -235zM545 574l65 140h51
l-87 -140h-29z" />
    <glyph glyph-name="dcroat" unicode="&#x111;" horiz-adv-x="566" 
d="M453 0v110h-2c-43 -81 -105 -122 -197 -122c-155 0 -222 127 -222 268c0 152 74 270 229 270c84 0 163 -46 190 -127h2v204h-149v33h149v78h38v-78h75v-33h-75v-603h-38zM262 21c130 0 190 117 190 235c0 120 -59 237 -191 237c-136 0 -191 -113 -191 -237
c0 -121 60 -235 192 -235z" />
    <glyph glyph-name="ecaron" unicode="&#x11b;" 
d="M71 285h377c-3 108 -71 208 -188 208c-114 0 -181 -106 -189 -208zM486 252h-415c-3 -121 62 -231 189 -231c97 0 165 57 184 153h38c-20 -121 -99 -186 -222 -186c-149 0 -230 118 -227 260c-3 141 72 278 227 278c160 0 234 -126 226 -274zM281 590h-40l-115 140h38
l97 -115l98 115h38z" />
    <glyph glyph-name="emacron" unicode="&#x113;" 
d="M71 285h377c-3 108 -71 208 -188 208c-114 0 -181 -106 -189 -208zM486 252h-415c-3 -121 62 -231 189 -231c97 0 165 57 184 153h38c-20 -121 -99 -186 -222 -186c-149 0 -230 118 -227 260c-3 141 72 278 227 278c160 0 234 -126 226 -274zM387 638h-242v33h242v-33z
" />
    <glyph glyph-name="ebreve" unicode="&#x115;" 
d="M71 285h377c-3 108 -71 208 -188 208c-114 0 -181 -106 -189 -208zM486 252h-415c-3 -121 62 -231 189 -231c97 0 165 57 184 153h38c-20 -121 -99 -186 -222 -186c-149 0 -230 118 -227 260c-3 141 72 278 227 278c160 0 234 -126 226 -274zM371 720h33
c-8 -65 -64 -120 -131 -120c-76 0 -131 44 -140 120h33c17 -70 66 -87 106 -87c52 0 90 35 99 87z" />
    <glyph glyph-name="edotaccent" unicode="&#x117;" 
d="M71 285h377c-3 108 -71 208 -188 208c-114 0 -181 -106 -189 -208zM486 252h-415c-3 -121 62 -231 189 -231c97 0 165 57 184 153h38c-20 -121 -99 -186 -222 -186c-149 0 -230 118 -227 260c-3 141 72 278 227 278c160 0 234 -126 226 -274zM283 603h-44v103h44v-103z
" />
    <glyph glyph-name="eogonek" unicode="&#x119;" 
d="M486 252h-415c-3 -121 62 -231 189 -231c97 0 165 57 184 153h38c-10 -61 -34 -107 -73 -139c-32 -26 -72 -41 -121 -46c-11 -10 -20 -19 -28 -28c-30 -36 -41 -57 -41 -82c0 -27 21 -42 42 -42c27 0 40 8 59 35l23 -8c-16 -37 -43 -60 -86 -60c-23 0 -82 5 -82 68
c0 22 8 51 50 89c10 9 21 18 34 27c-148 0 -229 118 -226 260c-3 141 72 278 227 278c160 0 234 -126 226 -274zM71 285h377c-3 108 -71 208 -188 208c-114 0 -181 -106 -189 -208z" />
    <glyph glyph-name="gcircumflex" unicode="&#x11d;" horiz-adv-x="537" 
d="M443 514h38v-487c0 -40 0 -231 -222 -223c-109 0 -196 41 -201 160h38c8 -91 80 -127 164 -127c180 0 183 147 183 181v118h-2c-36 -76 -98 -117 -186 -117c-151 0 -222 111 -222 254c0 136 78 253 222 253c81 0 157 -43 186 -119h2v107zM255 493
c-124 0 -184 -111 -184 -220c0 -121 63 -221 184 -221c125 0 187 105 187 221s-62 220 -187 220zM256 730h40l116 -140h-38l-98 115l-97 -115h-38z" />
    <glyph glyph-name="gbreve" unicode="&#x11f;" horiz-adv-x="537" 
d="M443 514h38v-487c0 -40 0 -231 -222 -223c-109 0 -196 41 -201 160h38c8 -91 80 -127 164 -127c180 0 183 147 183 181v118h-2c-36 -76 -98 -117 -186 -117c-151 0 -222 111 -222 254c0 136 78 253 222 253c81 0 157 -43 186 -119h2v107zM255 493
c-124 0 -184 -111 -184 -220c0 -121 63 -221 184 -221c125 0 187 105 187 221s-62 220 -187 220zM370 720h33c-8 -65 -64 -120 -131 -120c-76 0 -131 44 -140 120h33c17 -70 66 -87 106 -87c52 0 90 35 99 87z" />
    <glyph glyph-name="gdotaccent" unicode="&#x121;" horiz-adv-x="537" 
d="M443 514h38v-487c0 -40 0 -231 -222 -223c-109 0 -196 41 -201 160h38c8 -91 80 -127 164 -127c180 0 183 147 183 181v118h-2c-36 -76 -98 -117 -186 -117c-151 0 -222 111 -222 254c0 136 78 253 222 253c81 0 157 -43 186 -119h2v107zM255 493
c-124 0 -184 -111 -184 -220c0 -121 63 -221 184 -221c125 0 187 105 187 221s-62 220 -187 220zM292 603h-44v103h44v-103z" />
    <glyph glyph-name="gcommaaccent" unicode="&#x123;" horiz-adv-x="537" 
d="M443 514h38v-487c0 -40 0 -231 -222 -223c-109 0 -196 41 -201 160h38c8 -91 80 -127 164 -127c180 0 183 147 183 181v118h-2c-36 -76 -98 -117 -186 -117c-151 0 -222 111 -222 254c0 136 78 253 222 253c81 0 157 -43 186 -119h2v107zM255 493
c-124 0 -184 -111 -184 -220c0 -121 63 -221 184 -221c125 0 187 105 187 221s-62 220 -187 220zM299 767v-20c-17 -4 -28 -13 -31 -33h25v-93h-57v80c0 41 22 63 63 66z" />
    <glyph glyph-name="hcircumflex" unicode="&#x125;" 
d="M56 714h38v-310h2c27 77 103 122 184 122c181 0 183 -145 183 -208v-318h-38v325c0 52 -6 168 -146 168c-116 0 -185 -90 -185 -215v-278h-38v714zM235 920h40l116 -140h-38l-98 115l-97 -115h-38z" />
    <glyph glyph-name="hbar" unicode="&#x127;" horiz-adv-x="524" 
d="M61 714h38v-78h151v-33h-151v-199h2c27 77 103 122 184 122c181 0 183 -145 183 -208v-318h-38v325c0 52 -6 168 -146 168c-116 0 -185 -90 -185 -215v-278h-38v603h-73v33h73v78z" />
    <glyph glyph-name="itilde" unicode="&#x129;" horiz-adv-x="168" 
d="M103 0h-38v514h38v-514zM-31 609h-29c3 44 31 90 77 90c45 3 96 -55 138 -57c28 0 42 30 45 57h29c-5 -44 -25 -90 -76 -90c-23 0 -48 16 -69 29s-35 20 -43 23c-7 3 -16 5 -25 5c-27 0 -42 -26 -47 -57z" />
    <glyph glyph-name="imacron" unicode="&#x12b;" horiz-adv-x="168" 
d="M103 0h-38v514h38v-514zM206 638h-242v33h242v-33z" />
    <glyph glyph-name="iogonek" unicode="&#x12f;" horiz-adv-x="168" 
d="M103 514v-514c-60 -58 -74 -90 -74 -121c0 -27 18 -42 38 -42c24 0 36 8 53 35l21 -8c-15 -37 -39 -60 -78 -60c-20 0 -74 5 -74 68c0 30 16 71 92 128h-16v514h38zM103 611h-38v103h38v-103z" />
    <glyph glyph-name="dotlessj" unicode="&#xf6be;" horiz-adv-x="168" 
d="M65 514h38v-569c0 -69 -17 -129 -105 -129h-16c-5 0 -11 0 -16 1v33c7 -1 14 -2 25 -2c53 0 74 22 74 100v566z" />
    <glyph glyph-name="dotlessj" unicode="&#xfb0f;" horiz-adv-x="168" 
d="M65 514h38v-569c0 -69 -17 -129 -105 -129h-16c-5 0 -11 0 -16 1v33c7 -1 14 -2 25 -2c53 0 74 22 74 100v566z" />
    <glyph glyph-name="jcircumflex" unicode="&#x135;" horiz-adv-x="168" 
d="M65 514h38v-569c0 -69 -17 -129 -105 -129h-16c-5 0 -11 0 -16 1v33c7 -1 14 -2 25 -2c53 0 74 22 74 100v566zM60 730h40l116 -140h-38l-98 115l-97 -115h-38z" />
    <glyph glyph-name="kcommaaccent" unicode="&#x137;" horiz-adv-x="463" 
d="M58 0v714h38v-473l317 273h55l-225 -192l241 -322h-52l-219 293l-117 -99v-194h-38zM225 -196v20c17 4 28 13 31 33h-25v93h57v-80c0 -41 -22 -63 -63 -66z" />
    <glyph glyph-name="lacute" unicode="&#x13a;" horiz-adv-x="168" 
d="M65 714h38v-714h-38v714zM65 780l120 140h51l-134 -140h-37z" />
    <glyph glyph-name="lcaron" unicode="&#x13e;" horiz-adv-x="228" 
d="M65 714h38v-714h-38v714zM158 574l65 140h51l-87 -140h-29z" />
    <glyph glyph-name="lcommaaccent" unicode="&#x13c;" horiz-adv-x="168" 
d="M65 714h38v-714h-38v714zM52 -196v20c17 4 28 13 31 33h-25v93h57v-80c0 -41 -22 -63 -63 -66z" />
    <glyph glyph-name="ldot" unicode="&#x140;" horiz-adv-x="246" 
d="M65 714h38v-714h-38v714zM210 411h-44v103h44v-103z" />
    <glyph glyph-name="nacute" unicode="&#x144;" 
d="M56 0v514h38v-110h2c27 77 103 122 184 122c181 0 183 -145 183 -208v-318h-38v325c0 52 -6 168 -146 168c-116 0 -185 -90 -185 -215v-278h-38zM237 590l120 140h51l-134 -140h-37z" />
    <glyph glyph-name="ncaron" unicode="&#x148;" 
d="M56 0v514h38v-110h2c27 77 103 122 184 122c181 0 183 -145 183 -208v-318h-38v325c0 52 -6 168 -146 168c-116 0 -185 -90 -185 -215v-278h-38zM280 590h-40l-115 140h38l97 -115l98 115h38z" />
    <glyph glyph-name="ncommaaccent" unicode="&#x146;" 
d="M56 0v514h38v-110h2c27 77 103 122 184 122c181 0 183 -145 183 -208v-318h-38v325c0 52 -6 168 -146 168c-116 0 -185 -90 -185 -215v-278h-38zM225 -196v20c17 4 28 13 31 33h-25v93h57v-80c0 -41 -22 -63 -63 -66z" />
    <glyph glyph-name="omacron" unicode="&#x14d;" horiz-adv-x="537" 
d="M70 257c0 -123 70 -236 198 -236s198 113 198 236s-70 236 -198 236s-198 -113 -198 -236zM32 257c0 146 84 269 236 269s236 -123 236 -269c0 -147 -84 -269 -236 -269s-236 122 -236 269zM390 638h-242v33h242v-33z" />
    <glyph glyph-name="obreve" unicode="&#x14f;" horiz-adv-x="537" 
d="M70 257c0 -123 70 -236 198 -236s198 113 198 236s-70 236 -198 236s-198 -113 -198 -236zM32 257c0 146 84 269 236 269s236 -123 236 -269c0 -147 -84 -269 -236 -269s-236 122 -236 269zM369 720h33c-8 -65 -64 -120 -131 -120c-76 0 -131 44 -140 120h33
c17 -70 66 -87 106 -87c52 0 90 35 99 87z" />
    <glyph glyph-name="ohungarumlaut" unicode="&#x151;" horiz-adv-x="537" 
d="M70 257c0 -123 70 -236 198 -236s198 113 198 236s-70 236 -198 236s-198 -113 -198 -236zM32 257c0 146 84 269 236 269s236 -123 236 -269c0 -147 -84 -269 -236 -269s-236 122 -236 269zM363 591h-37l120 140h51zM205 591h-37l120 140h51z" />
    <glyph glyph-name="racute" unicode="&#x155;" horiz-adv-x="278" 
d="M94 514v-114h3c19 68 104 120 197 117v-38c-40 5 -95 -5 -142 -50c-37 -40 -55 -71 -58 -148v-281h-38v514h38zM56 590l120 140h51l-134 -140h-37z" />
    <glyph glyph-name="rcommaaccent" unicode="&#x157;" horiz-adv-x="278" 
d="M94 514v-114h3c19 68 104 120 197 117v-38c-40 5 -95 -5 -142 -50c-37 -40 -55 -71 -58 -148v-281h-38v514h38zM45 -196v20c17 4 28 13 31 33h-25v93h57v-80c0 -41 -22 -63 -63 -66z" />
    <glyph glyph-name="rcaron" unicode="&#x159;" horiz-adv-x="278" 
d="M94 514v-114h3c19 68 104 120 197 117v-38c-40 5 -95 -5 -142 -50c-37 -40 -55 -71 -58 -148v-281h-38v514h38zM185 590h-40l-115 140h38l97 -115l98 115h38z" />
    <glyph glyph-name="sacute" unicode="&#x15b;" horiz-adv-x="481" 
d="M36 171h38c5 -95 78 -150 170 -150c67 0 163 20 163 109c0 174 -353 54 -353 264c0 101 99 132 186 132c108 0 190 -47 190 -164h-38c0 93 -66 131 -152 131c-69 0 -148 -26 -148 -99c0 -83 88 -94 171 -113c102 -19 182 -44 182 -151c0 -111 -111 -142 -201 -142
c-117 0 -205 63 -208 183zM214 590l120 140h51l-134 -140h-37z" />
    <glyph glyph-name="scircumflex" unicode="&#x15d;" horiz-adv-x="481" 
d="M36 171h38c5 -95 78 -150 170 -150c67 0 163 20 163 109c0 174 -353 54 -353 264c0 101 99 132 186 132c108 0 190 -47 190 -164h-38c0 93 -66 131 -152 131c-69 0 -148 -26 -148 -99c0 -83 88 -94 171 -113c102 -19 182 -44 182 -151c0 -111 -111 -142 -201 -142
c-117 0 -205 63 -208 183zM228 730h40l116 -140h-38l-98 115l-97 -115h-38z" />
    <glyph glyph-name="scedilla" unicode="&#x15f;" horiz-adv-x="481" 
d="M36 171h38c5 -95 78 -150 170 -150c67 0 163 20 163 109c0 174 -353 54 -353 264c0 101 99 132 186 132c108 0 190 -47 190 -164h-38c0 93 -66 131 -152 131c-69 0 -148 -26 -148 -99c0 -83 88 -94 171 -113c102 -19 182 -44 182 -151c0 -82 -63 -123 -132 -135
c-20 -4 -40 -6 -60 -7l-37 -44l2 -2c9 4 21 8 37 8c39 1 74 -22 74 -69s-31 -77 -98 -77c-43 0 -75 14 -92 25l11 24c23 -11 45 -22 80 -22c32 0 61 14 61 50c0 29 -28 43 -48 43c-21 0 -38 -5 -53 -12l-16 13l47 64c-21 1 -40 5 -59 11c-74 22 -124 82 -126 171z" />
    <glyph glyph-name="scedilla" unicode="&#xf6c2;" horiz-adv-x="481" 
d="M36 171h38c5 -95 78 -150 170 -150c67 0 163 20 163 109c0 174 -353 54 -353 264c0 101 99 132 186 132c108 0 190 -47 190 -164h-38c0 93 -66 131 -152 131c-69 0 -148 -26 -148 -99c0 -83 88 -94 171 -113c102 -19 182 -44 182 -151c0 -82 -63 -123 -132 -135
c-20 -4 -40 -6 -60 -7l-37 -44l2 -2c9 4 21 8 37 8c39 1 74 -22 74 -69s-31 -77 -98 -77c-43 0 -75 14 -92 25l11 24c23 -11 45 -22 80 -22c32 0 61 14 61 50c0 29 -28 43 -48 43c-21 0 -38 -5 -53 -12l-16 13l47 64c-21 1 -40 5 -59 11c-74 22 -124 82 -126 171z" />
    <glyph glyph-name="scommaaccent" unicode="&#x219;" horiz-adv-x="481" 
d="M36 171h38c5 -95 78 -150 170 -150c67 0 163 20 163 109c0 174 -353 54 -353 264c0 101 99 132 186 132c108 0 190 -47 190 -164h-38c0 93 -66 131 -152 131c-69 0 -148 -26 -148 -99c0 -83 88 -94 171 -113c102 -19 182 -44 182 -151c0 -111 -111 -142 -201 -142
c-117 0 -205 63 -208 183zM218 -196v20c17 4 28 13 31 33h-25v93h57v-80c0 -41 -22 -63 -63 -66z" />
    <glyph glyph-name="tcaron" unicode="&#x165;" horiz-adv-x="304" 
d="M234 574l65 140h51l-87 -140h-29zM245 514v-33h-112v-359c0 -82 39 -92 111 -89v-33c-76 -5 -154 6 -149 122v359h-95v33h95v160h38v-160h112z" />
    <glyph glyph-name="tcommaaccent" unicode="&#x163;" horiz-adv-x="259" 
d="M245 514v-33h-112v-359c0 -82 39 -92 111 -89v-33c-76 -5 -154 6 -149 122v359h-95v33h95v160h38v-160h112zM128 -196v20c17 4 28 13 31 33h-25v93h57v-80c0 -41 -22 -63 -63 -66z" />
    <glyph glyph-name="tbar" unicode="&#x167;" horiz-adv-x="259" 
d="M245 514v-33h-112v-135h120v-33h-120v-191c0 -82 39 -92 111 -89v-33c-76 -5 -154 6 -149 122v191h-101v33h101v135h-95v33h95v160h38v-160h112z" />
    <glyph glyph-name="utilde" unicode="&#x169;" 
d="M463 514v-514h-38v110h-2c-27 -77 -103 -122 -184 -122c-181 0 -183 145 -183 208v318h38v-325c0 -52 6 -168 146 -168c116 0 185 90 185 215v278h38zM145 609h-29c3 44 31 90 77 90c45 3 96 -55 138 -57c28 0 42 30 45 57h29c-5 -44 -25 -90 -76 -90
c-23 0 -48 16 -69 29s-35 20 -43 23c-7 3 -16 5 -25 5c-27 0 -42 -26 -47 -57z" />
    <glyph glyph-name="umacron" unicode="&#x16b;" 
d="M463 514v-514h-38v110h-2c-27 -77 -103 -122 -184 -122c-181 0 -183 145 -183 208v318h38v-325c0 -52 6 -168 146 -168c116 0 185 90 185 215v278h38zM382 638h-242v33h242v-33z" />
    <glyph glyph-name="ubreve" unicode="&#x16d;" 
d="M463 514v-514h-38v110h-2c-27 -77 -103 -122 -184 -122c-181 0 -183 145 -183 208v318h38v-325c0 -52 6 -168 146 -168c116 0 185 90 185 215v278h38zM358 720h33c-8 -65 -64 -120 -131 -120c-76 0 -131 44 -140 120h33c17 -70 66 -87 106 -87c52 0 90 35 99 87z" />
    <glyph glyph-name="uring" unicode="&#x16f;" 
d="M463 514v-514h-38v110h-2c-27 -77 -103 -122 -184 -122c-181 0 -183 145 -183 208v318h38v-325c0 -52 6 -168 146 -168c116 0 185 90 185 215v278h38zM186 670c0 -40 32 -72 72 -72s72 32 72 72s-32 72 -72 72s-72 -32 -72 -72zM159 670c0 56 43 99 99 99s99 -43 99 -99
s-43 -99 -99 -99s-99 43 -99 99z" />
    <glyph glyph-name="uhungarumlaut" unicode="&#x171;" 
d="M463 514v-514h-38v110h-2c-27 -77 -103 -122 -184 -122c-181 0 -183 145 -183 208v318h38v-325c0 -52 6 -168 146 -168c116 0 185 90 185 215v278h38zM350 591h-37l120 140h51zM192 591h-37l120 140h51z" />
    <glyph glyph-name="uogonek" unicode="&#x173;" 
d="M463 514v-514h-38v110h-2c-20 -57 -68 -98 -125 -114c-6 -1 -12 -3 -18 -4c-12 -11 -22 -22 -31 -31c-30 -36 -41 -57 -41 -82c0 -27 21 -42 42 -42c27 0 40 8 59 35l23 -8c-16 -37 -43 -60 -86 -60c-23 0 -82 5 -82 68c0 22 8 51 50 89c10 9 22 18 35 27h-10
c-181 0 -183 145 -183 208v318h38v-325c0 -52 6 -168 146 -168c116 0 185 90 185 215v278h38z" />
    <glyph glyph-name="wcircumflex" unicode="&#x175;" horiz-adv-x="704" 
d="M39 514l145 -470h2l140 470h51l141 -470h2l144 470h42l-165 -514h-47l-141 466h-2l-142 -466h-48l-163 514h41zM332 730h40l116 -140h-38l-98 115l-97 -115h-38z" />
    <glyph glyph-name="ycircumflex" unicode="&#x177;" horiz-adv-x="444" 
d="M209 3l-215 511h45l191 -469l176 469h43l-220 -569c-21 -51 -37 -89 -60 -106c-27 -21 -61 -23 -120 -23v33c55 0 80 6 107 33c15 15 29 53 53 121zM210 730h40l116 -140h-38l-98 115l-97 -115h-38z" />
    <glyph glyph-name="zacute" unicode="&#x17a;" horiz-adv-x="426" 
d="M55 33h362v-33h-408v36l345 445h-318v33h365v-36zM191 590l120 140h51l-134 -140h-37z" />
    <glyph glyph-name="zdotaccent" unicode="&#x17c;" horiz-adv-x="426" 
d="M55 33h362v-33h-408v36l345 445h-318v33h365v-36zM242 603h-44v103h44v-103z" />
    <glyph glyph-name="estimated" unicode="&#x212e;" horiz-adv-x="600" 
d="M561 259h-404v-181c39 -39 87 -59 145 -59c83 0 143 36 193 120l35 -21c-61 -95 -123 -135 -228 -135c-157 0 -258 122 -258 276c0 155 101 276 258 276c154 0 258 -114 259 -276zM157 295h291v145c-42 40 -91 60 -147 60c-57 0 -105 -21 -144 -60v-145z" />
    <glyph glyph-name="afii61289" unicode="&#x2113;" horiz-adv-x="500" 
d="M396 35c-33 -33 -71 -49 -110 -49c-58 0 -110 32 -110 119v148l-60 -68h-2l-15 19l77 83v269c0 111 49 165 106 165c52 0 90 -42 90 -118c0 -96 -59 -208 -161 -324v-168c0 -78 45 -96 81 -96c29 0 60 11 88 39h2zM342 599c0 58 -27 95 -60 95c-36 0 -71 -39 -71 -134
v-246c82 98 131 202 131 285z" />
    <glyph glyph-name=".null" horiz-adv-x="500" 
 />
    <glyph glyph-name=".null" horiz-adv-x="500" 
 />
    <glyph glyph-name="CR" unicode="&#xd;" horiz-adv-x="0" 
 />
    <glyph glyph-name="uni00A0" unicode="&#xa0;" horiz-adv-x="278" 
 />
    <glyph glyph-name="grave.cap" horiz-adv-x="167" 
d="M141 780h-37l-134 140h51z" />
    <glyph glyph-name="uni00AD" unicode="&#xad;" horiz-adv-x="352" 
d="M283 253h-214v38h214v-38z" />
    <glyph glyph-name="Dcroat" unicode="&#x110;" horiz-adv-x="667" 
d="M107 396h264v-33h-264v-325h192c133 0 284 73 284 320c0 292 -187 318 -293 318h-183v-280zM63 396v318h234c256 0 330 -175 330 -356c0 -203 -103 -358 -332 -358h-232v363h-68v33h68z" />
    <glyph glyph-name="uni021A" unicode="&#x21a;" 
d="M237 676h-251v38h547v-38h-252v-676h-44v676zM228 -196v20c17 4 28 13 31 33h-25v93h57v-80c0 -41 -22 -63 -63 -66z" />
    <glyph glyph-name="uni021B" unicode="&#x21b;" horiz-adv-x="259" 
d="M245 514v-33h-112v-359c0 -82 39 -92 111 -89v-33c-76 -5 -154 6 -149 122v359h-95v33h95v160h38v-160h112zM128 -196v20c17 4 28 13 31 33h-25v93h57v-80c0 -41 -22 -63 -63 -66z" />
    <glyph glyph-name="acute.cap" horiz-adv-x="167" 
d="M26 780l120 140h51l-134 -140h-37z" />
    <glyph glyph-name="circumflex.cap" horiz-adv-x="167" 
d="M63 920h40l116 -140h-38l-98 115l-97 -115h-38z" />
    <glyph glyph-name="caron.cap" horiz-adv-x="167" 
d="M103 780h-40l-115 140h38l97 -115l98 115h38z" />
    <glyph glyph-name="tilde.cap" horiz-adv-x="167" 
d="M-32 779h-29c3 44 31 90 77 90c45 3 96 -55 138 -57c28 0 42 30 45 57h29c-5 -44 -25 -90 -76 -90c-23 0 -48 16 -69 29s-35 20 -43 23c-7 3 -16 5 -25 5c-27 0 -42 -26 -47 -57z" />
    <glyph glyph-name="dieresis.cap" horiz-adv-x="167" 
d="M184 793h-44v103h44v-103zM26 793h-44v103h44v-103z" />
    <glyph glyph-name="macron.cap" horiz-adv-x="167" 
d="M205 828h-242v33h242v-33z" />
    <glyph glyph-name="uni02C9" unicode="&#x2c9;" horiz-adv-x="167" 
d="M205 638h-242v33h242v-33z" />
    <glyph glyph-name="breve.cap" horiz-adv-x="167" 
d="M186 910h33c-8 -65 -64 -120 -131 -120c-76 0 -131 44 -140 120h33c17 -70 66 -87 106 -87c52 0 90 35 99 87z" />
    <glyph glyph-name="ring.cap" horiz-adv-x="167" 
d="M11 850c0 -40 32 -72 72 -72s72 32 72 72s-32 72 -72 72s-72 -32 -72 -72zM-16 850c0 56 43 99 99 99s99 -43 99 -99s-43 -99 -99 -99s-99 43 -99 99z" />
    <glyph glyph-name="hungarumlaut.cap" horiz-adv-x="167" 
d="M139 780h-37l120 140h51zM-19 780h-37l120 140h51z" />
    <glyph glyph-name="dotaccent.cap" horiz-adv-x="167" 
d="M105 793h-44v103h44v-103z" />
    <glyph glyph-name="uni2219" unicode="&#x2219;" horiz-adv-x="278" 
d="M85 317c0 28 26 54 54 54s55 -25 55 -54s-26 -55 -55 -55s-54 27 -54 55z" />
    <glyph glyph-name="uni2215" unicode="&#x2215;" horiz-adv-x="167" 
d="M-169 -24l465 738h40l-465 -738h-40z" />
    <glyph glyph-name="uniF8FF" unicode="&#xf8ff;" horiz-adv-x="512" 
d="M222 117h56v67h-56v-67zM225 234h46c0 35 2 59 6 72s18 30 43 52c51 47 63 77 63 120c0 79 -53 131 -124 131c-72 0 -126 -42 -135 -137l50 -8c8 68 41 95 82 95s76 -37 76 -85c0 -25 -7 -42 -50 -83c-22 -22 -37 -42 -46 -59s-13 -44 -13 -81zM462 50h-412v617h412v-617
zM512 718h-512v-718h512v718z" />
    <glyph glyph-name="uni0394" unicode="&#x394;" horiz-adv-x="639" 
d="M572 35l-255 632l-252 -632h507zM626 0h-612l287 712h34z" />
    <glyph glyph-name="uni03A9" unicode="&#x3a9;" horiz-adv-x="731" 
d="M671 0h-230v166c127 21 194 125 194 249c0 153 -120 272 -273 272c-152 0 -271 -121 -271 -272c0 -120 69 -233 195 -249v-166h-232v33h200v105c-129 35 -199 147 -199 278c0 172 137 305 308 305s308 -133 308 -304c0 -134 -67 -239 -198 -279v-105h198v-33z" />
    <glyph glyph-name="uni03BC" unicode="&#x3bc;" 
d="M463 514v-514h-38v110h-2c-27 -77 -103 -122 -184 -122c-55 0 -110 13 -143 56h-2v-228h-38v698h38v-325c0 -52 6 -168 146 -168c116 0 185 90 185 215v278h38z" />
    </font>
</defs>
</svg>
